<svg xmlns="http://www.w3.org/2000/svg" xmlns:xlink="http://www.w3.org/1999/xlink" width="483.969" height="593.996" viewBox="0 0 483.969 593.996">
  <defs>
    <linearGradient id="linear-gradient" x1="0.5" y1="1" x2="0.5" gradientUnits="objectBoundingBox">
      <stop offset="0" stop-color="#020230"/>
      <stop offset="0.189" stop-color="#010532"/>
      <stop offset="0.335" stop-color="#010e3c"/>
      <stop offset="0.465" stop-color="#011f4c"/>
      <stop offset="0.588" stop-color="#013662"/>
      <stop offset="0.704" stop-color="#01547f"/>
      <stop offset="0.816" stop-color="#0179a2"/>
      <stop offset="0.922" stop-color="#01a3cc"/>
      <stop offset="1" stop-color="#01c8ef"/>
    </linearGradient>
    <radialGradient id="radial-gradient" cx="0.5" cy="0.5" r="0.529" gradientTransform="translate(0.028 0.014) scale(0.945 0.945)" gradientUnits="objectBoundingBox">
      <stop offset="0" stop-color="#f8359e"/>
      <stop offset="0.043" stop-color="#e53192"/>
      <stop offset="0.194" stop-color="#a9246c"/>
      <stop offset="0.345" stop-color="#75194b"/>
      <stop offset="0.491" stop-color="#4b1030"/>
      <stop offset="0.632" stop-color="#2a091b"/>
      <stop offset="0.767" stop-color="#13040c"/>
      <stop offset="0.893" stop-color="#040103"/>
      <stop offset="1"/>
    </radialGradient>
    <linearGradient id="linear-gradient-10" x1="-0.06" y1="0.5" x2="0.645" y2="0.5" gradientUnits="objectBoundingBox">
      <stop offset="0" stop-color="#01c8ef"/>
      <stop offset="0.13" stop-color="#04b0dd"/>
      <stop offset="0.547" stop-color="#0e6ba6"/>
      <stop offset="0.848" stop-color="#143f84"/>
      <stop offset="1" stop-color="#172f78"/>
    </linearGradient>
    <radialGradient id="radial-gradient-2" cx="-0.185" cy="-0.066" r="2.72" gradientTransform="translate(0.21) scale(0.579 1)" gradientUnits="objectBoundingBox">
      <stop offset="0" stop-color="#01c8ef"/>
      <stop offset="0.14" stop-color="#03bae4"/>
      <stop offset="0.403" stop-color="#0895c7"/>
      <stop offset="0.76" stop-color="#105a99"/>
      <stop offset="1" stop-color="#172f78"/>
    </radialGradient>
    <radialGradient id="radial-gradient-3" cx="-0.185" cy="-0.066" r="2.719" xlink:href="#radial-gradient-2"/>
    <radialGradient id="radial-gradient-4" cx="-0.185" cy="-0.066" r="2.72" xlink:href="#radial-gradient-2"/>
    <radialGradient id="radial-gradient-5" cx="-0.046" cy="0.098" r="1.87" gradientTransform="translate(0.21) scale(0.579 1)" gradientUnits="objectBoundingBox">
      <stop offset="0" stop-color="#f9636b"/>
      <stop offset="1" stop-color="#b6246e"/>
    </radialGradient>
    <radialGradient id="radial-gradient-6" cx="-0.185" cy="-0.066" r="2.72" xlink:href="#radial-gradient-5"/>
    <radialGradient id="radial-gradient-8" cx="-0.046" cy="0.098" r="1.87" xlink:href="#radial-gradient-5"/>
    <radialGradient id="radial-gradient-9" cx="-0.185" cy="-0.066" r="2.72" xlink:href="#radial-gradient-2"/>
    <radialGradient id="radial-gradient-10" cx="-0.185" cy="-0.066" r="2.72" xlink:href="#radial-gradient-2"/>
    <radialGradient id="radial-gradient-11" cx="-0.185" cy="-0.066" r="2.719" xlink:href="#radial-gradient-2"/>
    <radialGradient id="radial-gradient-12" cx="-0.046" cy="0.098" r="1.87" xlink:href="#radial-gradient-5"/>
    <radialGradient id="radial-gradient-13" cx="-0.185" cy="-0.066" r="2.719" xlink:href="#radial-gradient-5"/>
    <radialGradient id="radial-gradient-15" cx="-0.046" cy="0.098" r="1.87" xlink:href="#radial-gradient-5"/>
    <radialGradient id="radial-gradient-16" cx="-0.185" cy="-0.066" r="2.72" xlink:href="#radial-gradient-2"/>
    <radialGradient id="radial-gradient-17" cx="-0.185" cy="-0.066" r="2.72" xlink:href="#radial-gradient-2"/>
    <radialGradient id="radial-gradient-18" cx="-0.185" cy="-0.066" r="2.719" xlink:href="#radial-gradient-2"/>
    <radialGradient id="radial-gradient-19" cx="-0.046" cy="0.098" r="1.87" xlink:href="#radial-gradient-5"/>
    <radialGradient id="radial-gradient-20" cx="-0.185" cy="-0.066" r="2.719" xlink:href="#radial-gradient-5"/>
    <radialGradient id="radial-gradient-22" cx="-0.046" cy="0.098" r="1.87" xlink:href="#radial-gradient-5"/>
  </defs>
  <g id="isometric01" transform="translate(-60.158 -18.518)">
    <path id="Path_21810" data-name="Path 21810" d="M65.177,236.658V372.534H179.263V238.98Z" transform="translate(5.521 239.98)" opacity="0.3" fill="url(#linear-gradient)" style="mix-blend-mode: lighten;isolation: isolate"/>
    <g id="Group_4259" data-name="Group 4259" transform="translate(70.698 476.638)">
      <path id="Path_21811" data-name="Path 21811" d="M65.177,236.658V372.534h1.2V238.98Z" transform="translate(-65.177 -236.658)" opacity="0.6" fill="url(#linear-gradient)" style="mix-blend-mode: lighten;isolation: isolate"/>
      <path id="Path_21812" data-name="Path 21812" d="M118.927,236.658V372.534h1.2V238.98Z" transform="translate(-6.046 -236.658)" opacity="0.6" fill="url(#linear-gradient)" style="mix-blend-mode: lighten;isolation: isolate"/>
    </g>
    <path id="Path_21813" data-name="Path 21813" d="M230.924,236.658V372.534H345.01V238.98Z" transform="translate(187.862 239.98)" opacity="0.3" fill="url(#linear-gradient)" style="mix-blend-mode: lighten;isolation: isolate"/>
    <path id="Path_21814" data-name="Path 21814" d="M230.909,236.658V372.534h1.205V238.98Z" transform="translate(187.845 239.98)" opacity="0.6" fill="url(#linear-gradient)" style="mix-blend-mode: lighten;isolation: isolate"/>
    <path id="Path_21815" data-name="Path 21815" d="M284.659,236.658V372.534h1.205V238.98Z" transform="translate(246.976 239.98)" opacity="0.6" fill="url(#linear-gradient)" style="mix-blend-mode: lighten;isolation: isolate"/>
    <path id="Path_21816" data-name="Path 21816" d="M148.849,215.477V351.355H262.935V217.8Z" transform="translate(97.57 216.678)" opacity="0.3" fill="url(#linear-gradient)" style="mix-blend-mode: lighten;isolation: isolate"/>
    <g id="Group_4293" data-name="Group 4293" transform="translate(60.158 18.518)">
      <ellipse id="Ellipse_708" data-name="Ellipse 708" cx="232.761" cy="219.909" rx="232.761" ry="219.909" transform="translate(10.54)" opacity="0.6" fill="url(#radial-gradient)" style="mix-blend-mode: lighten;isolation: isolate"/>
      <path id="Path_21817" data-name="Path 21817" d="M148.849,215.27V351.148h1.2V217.594Z" transform="translate(37.412 197.933)" opacity="0.6" fill="url(#linear-gradient)" style="mix-blend-mode: lighten;isolation: isolate"/>
      <path id="Path_21818" data-name="Path 21818" d="M202.6,215.27V351.148h1.2V217.594Z" transform="translate(96.543 197.933)" opacity="0.6" fill="url(#linear-gradient)" style="mix-blend-mode: lighten;isolation: isolate"/>
      <g id="Group_4270" data-name="Group 4270" transform="translate(174.446 136.451)">
        <path id="Path_21819" data-name="Path 21819" d="M211.949,281.238a17.242,17.242,0,0,1-8.426-2.01l-56.657-32.711c-2.35-1.357-3.644-3.192-3.644-5.168s1.294-3.814,3.644-5.17l56.357-32.77c4.648-2.682,12.208-2.68,16.855,0l56.655,32.713c2.35,1.357,3.646,3.192,3.644,5.17s-1.294,3.81-3.644,5.168l-56.357,32.768A17.229,17.229,0,0,1,211.949,281.238Zm-.3-78.8a16.158,16.158,0,0,0-7.9,1.884L147.4,237.089c-2.012,1.161-3.119,2.676-3.119,4.259s1.107,3.1,3.117,4.255l56.657,32.711a17.479,17.479,0,0,0,15.8,0l56.354-32.77c2.012-1.161,3.121-2.671,3.121-4.255s-1.109-3.1-3.119-4.261v0l-56.655-32.711A16.152,16.152,0,0,0,211.651,202.435Z" transform="translate(-143.223 46.219)" fill="#03a7d3"/>
        <g id="Group_4261" data-name="Group 4261" transform="translate(0.804 202.884)">
          <path id="Path_21820" data-name="Path 21820" d="M279.706,232.505h0L279.7,205.34l-34.326,4.582-25.7-14.842c-4.507-2.6-11.817-2.6-16.326,0l-4,2.545-55.733,7.432v27.658l.021,0c.063,1.657,1.168,3.3,3.356,4.564l56.657,32.711c4.507,2.6,11.817,2.6,16.324,0l56.359-32.772c2.182-1.26,3.285-2.9,3.354-4.551l.027,0Z" transform="translate(-143.603 -165.761)" fill="url(#linear-gradient-10)"/>
          <path id="Path_21821" data-name="Path 21821" d="M276.327,214.761,219.67,182.05c-4.507-2.6-11.817-2.6-16.326,0l-56.357,32.77c-4.509,2.6-4.509,6.825,0,9.425l56.655,32.711c4.509,2.6,11.819,2.6,16.326,0l56.359-32.77C280.836,221.585,280.836,217.363,276.327,214.761Z" transform="translate(-143.606 -180.097)" fill="url(#radial-gradient-2)"/>
          <path id="Path_21822" data-name="Path 21822" d="M276.322,202.344l-56.359,32.77c-4.507,2.6-11.817,2.6-16.326,0l-56.655-32.709a6.259,6.259,0,0,1-3.282-3.892c-.422,1.97.664,4.024,3.282,5.536l56.655,32.711c4.509,2.6,11.819,2.6,16.326,0l56.359-32.77c2.617-1.512,3.7-3.568,3.282-5.536A6.257,6.257,0,0,1,276.322,202.344Z" transform="translate(-143.6 -159.901)" fill="#fff"/>
          <g id="Group_4260" data-name="Group 4260" transform="translate(81.299 55.22)">
            <path id="Path_21823" data-name="Path 21823" d="M185,221.77l-2.683,1.548v-3.1L185,218.673Z" transform="translate(-182.317 -192.879)" fill="#fff"/>
            <path id="Path_21824" data-name="Path 21824" d="M187.672,220.228l-2.682,1.547v-3.1l2.682-1.546Z" transform="translate(-179.378 -194.575)" fill="#fff"/>
            <path id="Path_21825" data-name="Path 21825" d="M190.344,218.685l-2.682,1.548v-3.1l2.682-1.548Z" transform="translate(-176.439 -196.273)" fill="#fff"/>
            <path id="Path_21826" data-name="Path 21826" d="M188.159,222.933l-2.683,1.548v-3.1l2.683-1.546Z" transform="translate(-178.842 -191.597)" fill="#fff"/>
            <path id="Path_21827" data-name="Path 21827" d="M190.512,221.575l-2.683,1.551v-3.1l2.683-1.551Z" transform="translate(-176.254 -193.093)" fill="#fff"/>
            <path id="Path_21828" data-name="Path 21828" d="M198.914,213.736l-2.682,1.548v-3.1l2.682-1.548Z" transform="translate(-167.01 -201.716)" fill="#fff"/>
            <path id="Path_21829" data-name="Path 21829" d="M206.274,209.487l-2.683,1.548v-3.1l2.683-1.546Z" transform="translate(-158.913 -206.391)" fill="#fff"/>
            <path id="Path_21830" data-name="Path 21830" d="M193.016,217.142l-2.682,1.551v-3.1l2.682-1.548Z" transform="translate(-173.499 -197.97)" fill="#fff"/>
          </g>
        </g>
        <path id="Path_21831" data-name="Path 21831" d="M195,235.184l-38.117-22.005c-1.55-.895-1.355-2.457.433-3.49l37.25-21.507a6.715,6.715,0,0,1,6.044-.25l38.117,22.007c1.55.895,1.357,2.457-.433,3.49l-37.25,21.505A6.716,6.716,0,0,1,195,235.184Z" transform="translate(-129.349 30.741)" fill="#06033e" opacity="0.4"/>
        <path id="Path_21832" data-name="Path 21832" d="M184.531,234.179l-31.453-18.162a3.252,3.252,0,0,1-1.361-2.6v-2.335c0-1,.609-1.462,1.361-1.027l31.453,18.158a3.257,3.257,0,0,1,1.359,2.6v2.337C185.89,234.152,185.283,234.611,184.531,234.179Z" transform="translate(-133.879 55.568)" fill="#fff"/>
        <g id="Group_4263" data-name="Group 4263" transform="translate(0.804 151.923)">
          <path id="Path_21833" data-name="Path 21833" d="M279.706,208.238h0l-.008-27.163-34.326,4.578-25.7-14.839c-4.507-2.6-11.817-2.6-16.326,0l-4,2.543-55.733,7.436V208.45l.021,0c.063,1.655,1.168,3.3,3.356,4.564l56.657,32.711c4.507,2.6,11.817,2.6,16.324,0l56.359-32.774c2.182-1.258,3.285-2.9,3.354-4.549l.027,0Z" transform="translate(-143.603 -141.495)" fill="url(#linear-gradient-10)"/>
          <path id="Path_21834" data-name="Path 21834" d="M276.327,190.5,219.67,157.784c-4.507-2.6-11.817-2.6-16.326,0l-56.357,32.77c-4.509,2.6-4.509,6.823,0,9.425l56.655,32.713c4.509,2.6,11.819,2.6,16.326,0l56.359-32.772C280.836,197.317,280.836,193.1,276.327,190.5Z" transform="translate(-143.606 -155.831)" fill="url(#radial-gradient-3)"/>
          <path id="Path_21835" data-name="Path 21835" d="M234.462,183.859,201.45,164.8a10.5,10.5,0,0,0-9.513,0L159.1,183.895c-2.625,1.518-2.625,3.976,0,5.492l33.014,19.059a10.5,10.5,0,0,0,9.511,0l32.839-19.092C237.089,187.835,237.089,185.375,234.462,183.859Z" transform="translate(-128.729 -147.216)" fill="#06033e" opacity="0.4"/>
          <path id="Path_21836" data-name="Path 21836" d="M276.322,178.079l-56.359,32.772c-4.507,2.6-11.817,2.6-16.326,0L146.982,178.14a6.25,6.25,0,0,1-3.282-3.889c-.422,1.968.664,4.024,3.282,5.534L203.637,212.5c4.509,2.6,11.819,2.6,16.326,0l56.359-32.774c2.617-1.51,3.7-3.566,3.282-5.536A6.255,6.255,0,0,1,276.322,178.079Z" transform="translate(-143.6 -135.636)" fill="#fff"/>
          <g id="Group_4262" data-name="Group 4262" transform="translate(81.299 55.218)">
            <path id="Path_21837" data-name="Path 21837" d="M185,197.5l-2.683,1.548v-3.1L185,194.407Z" transform="translate(-182.317 -168.611)" fill="#fff"/>
            <path id="Path_21838" data-name="Path 21838" d="M187.672,195.961l-2.682,1.548v-3.1l2.682-1.548Z" transform="translate(-179.378 -170.309)" fill="#fff"/>
            <path id="Path_21839" data-name="Path 21839" d="M190.344,194.419l-2.682,1.548v-3.1l2.682-1.548Z" transform="translate(-176.439 -172.005)" fill="#fff"/>
            <path id="Path_21840" data-name="Path 21840" d="M188.159,198.668l-2.683,1.548v-3.1l2.683-1.549Z" transform="translate(-178.842 -167.331)" fill="#fff"/>
            <path id="Path_21841" data-name="Path 21841" d="M190.512,197.31l-2.683,1.548v-3.1l2.683-1.548Z" transform="translate(-176.254 -168.825)" fill="#fff"/>
            <path id="Path_21842" data-name="Path 21842" d="M198.914,189.471l-2.682,1.548v-3.1l2.682-1.548Z" transform="translate(-167.01 -177.448)" fill="#fff"/>
            <path id="Path_21843" data-name="Path 21843" d="M206.274,185.221l-2.683,1.548v-3.1l2.683-1.548Z" transform="translate(-158.913 -182.124)" fill="#fff"/>
            <path id="Path_21844" data-name="Path 21844" d="M193.016,192.876l-2.682,1.548v-3.1l2.682-1.548Z" transform="translate(-173.499 -173.702)" fill="#fff"/>
          </g>
        </g>
        <g id="Group_4265" data-name="Group 4265" transform="translate(0.804 100.963)">
          <path id="Path_21845" data-name="Path 21845" d="M279.706,183.974h0l-.008-27.165-34.326,4.58-25.7-14.842c-4.507-2.6-11.817-2.6-16.326,0l-4,2.543-55.733,7.437v27.656l.021,0c.063,1.655,1.168,3.3,3.356,4.564l56.657,32.709c4.507,2.6,11.817,2.6,16.324,0l56.359-32.77c2.182-1.26,3.285-2.9,3.354-4.549l.027,0Z" transform="translate(-143.603 -117.23)" fill="url(#linear-gradient-10)"/>
          <path id="Path_21846" data-name="Path 21846" d="M276.327,166.229,219.67,133.517c-4.507-2.6-11.817-2.6-16.326,0L146.987,166.29c-4.509,2.6-4.509,6.821,0,9.425l56.655,32.709c4.509,2.6,11.819,2.6,16.326,0l56.359-32.77C280.836,173.05,280.836,168.831,276.327,166.229Z" transform="translate(-143.606 -131.566)" fill="url(#radial-gradient-4)"/>
          <path id="Path_21847" data-name="Path 21847" d="M276.327,166.229,219.67,133.517c-4.507-2.6-11.817-2.6-16.326,0L146.987,166.29c-4.509,2.6-4.509,6.821,0,9.425l56.655,32.709c4.509,2.6,11.819,2.6,16.326,0l56.359-32.77C280.836,173.05,280.836,168.831,276.327,166.229Z" transform="translate(-143.606 -131.566)" fill="url(#radial-gradient-5)"/>
          <path id="Path_21848" data-name="Path 21848" d="M242.479,160.864l-37.54-21.673a11.945,11.945,0,0,0-10.818,0L156.779,160.9c-2.986,1.726-2.986,4.522,0,6.248l37.54,21.673a11.958,11.958,0,0,0,10.818,0l37.342-21.713C245.465,165.384,245.465,162.589,242.479,160.864Z" transform="translate(-131.577 -124.601)" fill="#8b1e64"/>
          <path id="Path_21849" data-name="Path 21849" d="M276.322,153.812l-56.359,32.77c-4.507,2.6-11.817,2.6-16.326,0l-56.655-32.709a6.256,6.256,0,0,1-3.282-3.889c-.422,1.97.664,4.024,3.282,5.536l56.655,32.709c4.509,2.6,11.819,2.6,16.326,0l56.359-32.77c2.617-1.512,3.7-3.568,3.282-5.536A6.257,6.257,0,0,1,276.322,153.812Z" transform="translate(-143.6 -111.371)" fill="#fff"/>
          <g id="Group_4264" data-name="Group 4264" transform="translate(81.299 55.218)">
            <path id="Path_21850" data-name="Path 21850" d="M185,173.237l-2.683,1.549v-3.1L185,170.142Z" transform="translate(-182.317 -144.345)" fill="#fff"/>
            <path id="Path_21851" data-name="Path 21851" d="M187.672,171.7l-2.682,1.548v-3.1l2.682-1.548Z" transform="translate(-179.378 -146.043)" fill="#fff"/>
            <path id="Path_21852" data-name="Path 21852" d="M190.344,170.152l-2.682,1.548v-3.1l2.682-1.548Z" transform="translate(-176.439 -147.74)" fill="#fff"/>
            <path id="Path_21853" data-name="Path 21853" d="M188.159,174.4l-2.683,1.548v-3.1l2.683-1.549Z" transform="translate(-178.842 -143.065)" fill="#fff"/>
            <path id="Path_21854" data-name="Path 21854" d="M190.512,173.044l-2.683,1.548v-3.1l2.683-1.548Z" transform="translate(-176.254 -144.559)" fill="#fff"/>
            <path id="Path_21855" data-name="Path 21855" d="M198.914,165.2l-2.682,1.548v-3.1l2.682-1.548Z" transform="translate(-167.01 -153.183)" fill="#fff"/>
            <path id="Path_21856" data-name="Path 21856" d="M206.274,160.955l-2.683,1.548v-3.1l2.683-1.548Z" transform="translate(-158.913 -157.858)" fill="#fff"/>
            <path id="Path_21857" data-name="Path 21857" d="M193.016,168.611l-2.682,1.548v-3.1l2.682-1.549Z" transform="translate(-173.499 -149.437)" fill="#fff"/>
          </g>
        </g>
        <g id="Group_4267" data-name="Group 4267" transform="translate(0.804 50.961)">
          <path id="Path_21858" data-name="Path 21858" d="M279.706,160.164h0L279.7,133l-34.326,4.58-25.7-14.842c-4.507-2.6-11.817-2.6-16.326,0l-4,2.545-55.733,7.434v27.658l.021,0c.063,1.655,1.168,3.3,3.356,4.564l56.657,32.711c4.507,2.6,11.817,2.6,16.324,0l56.359-32.772c2.182-1.258,3.285-2.9,3.354-4.549l.027,0Z" transform="translate(-143.603 -93.422)" fill="url(#linear-gradient-10)"/>
          <path id="Path_21859" data-name="Path 21859" d="M276.327,142.42,219.67,109.708c-4.507-2.6-11.817-2.6-16.326,0l-56.357,32.772c-4.509,2.6-4.509,6.821,0,9.425l56.655,32.709c4.509,2.6,11.819,2.6,16.326,0l56.359-32.77C280.836,149.243,280.836,145.022,276.327,142.42Z" transform="translate(-143.606 -107.757)" fill="url(#radial-gradient-6)"/>
          <path id="Path_21860" data-name="Path 21860" d="M234.462,135.784,201.45,116.726a10.5,10.5,0,0,0-9.513,0L159.1,135.82c-2.625,1.516-2.625,3.975,0,5.492l33.014,19.061a10.513,10.513,0,0,0,9.511,0l32.839-19.1C237.089,139.76,237.089,137.3,234.462,135.784Z" transform="translate(-128.729 -99.143)" fill="#8b1e64"/>
          <path id="Path_21861" data-name="Path 21861" d="M276.322,130l-56.359,32.77c-4.507,2.6-11.817,2.6-16.326,0l-56.655-32.709a6.254,6.254,0,0,1-3.282-3.892c-.422,1.97.664,4.026,3.282,5.538l56.655,32.709c4.509,2.6,11.819,2.6,16.326,0l56.359-32.77c2.617-1.512,3.7-3.568,3.282-5.536A6.257,6.257,0,0,1,276.322,130Z" transform="translate(-143.6 -87.562)" fill="#fff"/>
          <g id="Group_4266" data-name="Group 4266" transform="translate(81.299 55.217)">
            <path id="Path_21862" data-name="Path 21862" d="M185,149.429l-2.683,1.548v-3.1L185,146.332Z" transform="translate(-182.317 -120.537)" fill="#fff"/>
            <path id="Path_21863" data-name="Path 21863" d="M187.672,147.886l-2.682,1.548v-3.1l2.682-1.548Z" transform="translate(-179.378 -122.234)" fill="#fff"/>
            <path id="Path_21864" data-name="Path 21864" d="M190.344,146.344l-2.682,1.548v-3.1l2.682-1.548Z" transform="translate(-176.439 -123.931)" fill="#fff"/>
            <path id="Path_21865" data-name="Path 21865" d="M188.159,150.593l-2.683,1.548v-3.1l2.683-1.548Z" transform="translate(-178.842 -119.256)" fill="#fff"/>
            <path id="Path_21866" data-name="Path 21866" d="M190.512,149.236l-2.683,1.548v-3.1l2.683-1.549Z" transform="translate(-176.254 -120.751)" fill="#fff"/>
            <path id="Path_21867" data-name="Path 21867" d="M198.914,141.4l-2.682,1.548v-3.1l2.682-1.548Z" transform="translate(-167.01 -129.374)" fill="#fff"/>
            <path id="Path_21868" data-name="Path 21868" d="M206.274,137.146l-2.683,1.549v-3.1l2.683-1.548Z" transform="translate(-158.913 -134.049)" fill="#fff"/>
            <path id="Path_21869" data-name="Path 21869" d="M193.016,144.8l-2.682,1.548v-3.1l2.682-1.548Z" transform="translate(-173.499 -125.628)" fill="#fff"/>
          </g>
        </g>
        <g id="Group_4269" data-name="Group 4269" transform="translate(0.804)">
          <path id="Path_21870" data-name="Path 21870" d="M279.706,135.9h0l-.008-27.163-34.326,4.578-25.7-14.839c-4.507-2.6-11.817-2.6-16.326,0l-4,2.545-55.733,7.434v27.656l.021,0c.063,1.655,1.168,3.3,3.356,4.564l56.657,32.711c4.507,2.6,11.817,2.6,16.324,0l56.359-32.772c2.182-1.258,3.285-2.9,3.354-4.549l.027,0Z" transform="translate(-143.603 -69.155)" fill="url(#linear-gradient-10)"/>
          <path id="Path_21871" data-name="Path 21871" d="M276.327,118.154,219.67,85.442c-4.507-2.6-11.817-2.6-16.326,0l-56.357,32.77c-4.509,2.6-4.509,6.823,0,9.427l56.655,32.709c4.509,2.6,11.819,2.6,16.326,0l56.359-32.77C280.836,124.977,280.836,120.756,276.327,118.154Z" transform="translate(-143.606 -83.491)" fill="url(#radial-gradient-2)"/>
          <path id="Path_21872" data-name="Path 21872" d="M276.327,118.154,219.67,85.442c-4.507-2.6-11.817-2.6-16.326,0l-56.357,32.77c-4.509,2.6-4.509,6.823,0,9.427l56.655,32.709c4.509,2.6,11.819,2.6,16.326,0l56.359-32.77C280.836,124.977,280.836,120.756,276.327,118.154Z" transform="translate(-143.606 -83.491)" fill="url(#radial-gradient-8)"/>
          <path id="Path_21873" data-name="Path 21873" d="M200.114,143.178a11.765,11.765,0,0,1-5.777-1.4L156.8,120.1a4.015,4.015,0,0,1,0-7.521L194.135,90.87a12.6,12.6,0,0,1,11.557,0l37.54,21.673a4.015,4.015,0,0,1,0,7.521l-37.338,21.711A11.8,11.8,0,0,1,200.114,143.178Zm-.2-52.238a10.274,10.274,0,0,0-5.038,1.2l-37.342,21.711a2.586,2.586,0,0,0,0,4.971l37.54,21.675a11.149,11.149,0,0,0,10.083,0l37.338-21.711a2.587,2.587,0,0,0,0-4.973l-37.54-21.673A10.276,10.276,0,0,0,199.915,90.94Z" transform="translate(-131.963 -76.917)" fill="#8b1e64"/>
          <path id="Path_21874" data-name="Path 21874" d="M276.322,105.737,219.963,138.51c-4.507,2.6-11.817,2.6-16.326,0L146.982,105.8a6.25,6.25,0,0,1-3.282-3.889c-.422,1.968.664,4.024,3.282,5.536l56.655,32.711c4.509,2.6,11.819,2.6,16.326,0l56.359-32.772c2.617-1.51,3.7-3.568,3.282-5.536A6.252,6.252,0,0,1,276.322,105.737Z" transform="translate(-143.6 -63.296)" fill="#fff"/>
          <g id="Group_4268" data-name="Group 4268" transform="translate(81.299 55.217)">
            <path id="Path_21875" data-name="Path 21875" d="M185,125.163l-2.683,1.548v-3.1L185,122.066Z" transform="translate(-182.317 -96.27)" fill="#fff"/>
            <path id="Path_21876" data-name="Path 21876" d="M187.672,123.62l-2.682,1.548v-3.1l2.682-1.548Z" transform="translate(-179.378 -97.968)" fill="#fff"/>
            <path id="Path_21877" data-name="Path 21877" d="M190.344,122.078l-2.682,1.549v-3.1l2.682-1.548Z" transform="translate(-176.439 -99.665)" fill="#fff"/>
            <path id="Path_21878" data-name="Path 21878" d="M188.159,126.327l-2.683,1.548v-3.1l2.683-1.548Z" transform="translate(-178.842 -94.99)" fill="#fff"/>
            <path id="Path_21879" data-name="Path 21879" d="M190.512,124.969l-2.683,1.548v-3.1l2.683-1.548Z" transform="translate(-176.254 -96.484)" fill="#fff"/>
            <path id="Path_21880" data-name="Path 21880" d="M198.914,117.13l-2.682,1.548v-3.1l2.682-1.548Z" transform="translate(-167.01 -105.108)" fill="#fff"/>
            <path id="Path_21881" data-name="Path 21881" d="M206.274,112.881l-2.683,1.547v-3.1l2.683-1.548Z" transform="translate(-158.913 -109.783)" fill="#fff"/>
            <path id="Path_21882" data-name="Path 21882" d="M193.016,120.535l-2.682,1.549v-3.1l2.682-1.548Z" transform="translate(-173.499 -101.362)" fill="#fff"/>
          </g>
        </g>
      </g>
      <g id="Group_4281" data-name="Group 4281" transform="translate(346.813 183.939)">
        <path id="Path_21883" data-name="Path 21883" d="M294.024,303.851a17.211,17.211,0,0,1-8.424-2.01L228.942,269.13c-2.348-1.357-3.644-3.192-3.644-5.168s1.3-3.81,3.644-5.171L285.3,226.025c4.648-2.69,12.208-2.686,16.853,0l56.657,32.711c2.35,1.355,3.644,3.192,3.644,5.168s-1.294,3.812-3.644,5.173l-56.357,32.768A17.23,17.23,0,0,1,294.024,303.851Zm-.294-78.8a16.157,16.157,0,0,0-7.9,1.888L229.471,259.7c-2.012,1.163-3.119,2.673-3.119,4.259s1.107,3.1,3.119,4.257l56.657,32.713c4.356,2.51,11.444,2.514,15.8,0l56.354-32.77c2.012-1.161,3.119-2.673,3.119-4.257s-1.107-3.1-3.117-4.255v0L301.627,226.93A16.189,16.189,0,0,0,293.73,225.047Z" transform="translate(-225.298 23.607)" fill="#03a7d3"/>
        <g id="Group_4272" data-name="Group 4272" transform="translate(0.806 202.886)">
          <path id="Path_21884" data-name="Path 21884" d="M361.781,255.115h0l-.008-27.161-34.326,4.578-25.7-14.839c-4.509-2.6-11.819-2.6-16.326,0l-4,2.543-55.733,7.436v27.656l.021,0c.065,1.657,1.17,3.3,3.358,4.566L285.717,292.6c4.509,2.6,11.817,2.6,16.326,0L358.4,259.828c2.182-1.258,3.285-2.9,3.356-4.549l.025,0Z" transform="translate(-225.68 -188.374)" fill="url(#linear-gradient-10)"/>
          <path id="Path_21885" data-name="Path 21885" d="M358.4,237.372l-56.655-32.709c-4.509-2.6-11.819-2.6-16.326,0l-56.357,32.77c-4.509,2.6-4.509,6.823,0,9.425l56.655,32.711c4.509,2.6,11.817,2.6,16.326,0L358.4,246.8C362.91,244.2,362.91,239.977,358.4,237.372Z" transform="translate(-225.682 -202.71)" fill="url(#radial-gradient-9)"/>
          <path id="Path_21886" data-name="Path 21886" d="M358.4,224.959l-56.357,32.768c-4.509,2.606-11.817,2.606-16.326,0l-56.655-32.709a6.245,6.245,0,0,1-3.282-3.889c-.424,1.968.664,4.026,3.282,5.536l56.655,32.711c4.509,2.6,11.817,2.6,16.326,0L358.4,226.6c2.619-1.51,3.707-3.566,3.282-5.536A6.26,6.26,0,0,1,358.4,224.959Z" transform="translate(-225.676 -182.515)" fill="#fff"/>
          <g id="Group_4271" data-name="Group 4271" transform="translate(81.298 55.218)">
            <path id="Path_21887" data-name="Path 21887" d="M267.075,244.382l-2.682,1.55v-3.1l2.682-1.551Z" transform="translate(-264.393 -215.491)" fill="#fff"/>
            <path id="Path_21888" data-name="Path 21888" d="M269.746,242.84l-2.681,1.548v-3.1l2.681-1.548Z" transform="translate(-261.454 -217.187)" fill="#fff"/>
            <path id="Path_21889" data-name="Path 21889" d="M272.418,241.3l-2.681,1.548v-3.1l2.681-1.548Z" transform="translate(-258.514 -218.885)" fill="#fff"/>
            <path id="Path_21890" data-name="Path 21890" d="M270.234,245.547l-2.681,1.548V244l2.681-1.548Z" transform="translate(-260.918 -214.209)" fill="#fff"/>
            <path id="Path_21891" data-name="Path 21891" d="M272.587,244.189l-2.683,1.548v-3.1l2.683-1.548Z" transform="translate(-258.33 -215.704)" fill="#fff"/>
            <path id="Path_21892" data-name="Path 21892" d="M280.989,236.349l-2.681,1.551v-3.1l2.681-1.551Z" transform="translate(-249.086 -224.328)" fill="#fff"/>
            <path id="Path_21893" data-name="Path 21893" d="M288.349,232.1l-2.682,1.548v-3.1L288.349,229Z" transform="translate(-240.989 -229.003)" fill="#fff"/>
            <path id="Path_21894" data-name="Path 21894" d="M275.09,239.755l-2.682,1.548v-3.1l2.682-1.548Z" transform="translate(-255.575 -220.581)" fill="#fff"/>
          </g>
        </g>
        <path id="Path_21895" data-name="Path 21895" d="M277.075,257.8,238.956,235.79c-1.55-.9-1.355-2.457.435-3.49l37.248-21.505a6.716,6.716,0,0,1,6.044-.25L320.8,232.552c1.55.895,1.355,2.457-.435,3.488l-37.248,21.505A6.71,6.71,0,0,1,277.075,257.8Z" transform="translate(-211.423 8.13)" fill="#06033e" opacity="0.4"/>
        <path id="Path_21896" data-name="Path 21896" d="M266.606,256.79l-31.453-18.158a3.266,3.266,0,0,1-1.361-2.6V233.7c0-1,.611-1.46,1.361-1.027l31.453,18.16a3.253,3.253,0,0,1,1.361,2.6v2.335C267.967,256.765,267.358,257.225,266.606,256.79Z" transform="translate(-215.954 32.956)" fill="#fff"/>
        <g id="Group_4274" data-name="Group 4274" transform="translate(0.806 151.926)">
          <path id="Path_21897" data-name="Path 21897" d="M361.781,230.852h0l-.008-27.163-34.326,4.58-25.7-14.844c-4.509-2.6-11.819-2.6-16.326,0l-4,2.545-55.733,7.434v27.658l.021,0c.065,1.657,1.17,3.3,3.358,4.566l56.655,32.709c4.509,2.6,11.817,2.6,16.326,0l56.357-32.77c2.182-1.26,3.285-2.9,3.356-4.549l.025,0Z" transform="translate(-225.68 -164.11)" fill="url(#linear-gradient-10)"/>
          <path id="Path_21898" data-name="Path 21898" d="M358.4,213.106,301.746,180.4c-4.509-2.6-11.819-2.6-16.326,0l-56.357,32.77c-4.509,2.6-4.509,6.823,0,9.427L285.718,255.3c4.509,2.6,11.817,2.6,16.326,0l56.357-32.77C362.91,219.929,362.91,215.708,358.4,213.106Z" transform="translate(-225.682 -178.445)" fill="url(#radial-gradient-10)"/>
          <path id="Path_21899" data-name="Path 21899" d="M316.539,206.472l-33.014-19.061a10.513,10.513,0,0,0-9.511,0l-32.84,19.094c-2.627,1.518-2.627,3.978,0,5.492l33.012,19.063a10.53,10.53,0,0,0,9.514,0l32.84-19.1C319.164,210.448,319.164,207.989,316.539,206.472Z" transform="translate(-210.806 -169.831)" fill="#06033e" opacity="0.4"/>
          <path id="Path_21900" data-name="Path 21900" d="M358.4,200.689l-56.357,32.772c-4.509,2.6-11.817,2.6-16.326,0l-56.655-32.709a6.253,6.253,0,0,1-3.282-3.892c-.424,1.968.664,4.024,3.282,5.538l56.655,32.709c4.509,2.6,11.817,2.6,16.326,0l56.357-32.77c2.619-1.512,3.707-3.568,3.282-5.536A6.254,6.254,0,0,1,358.4,200.689Z" transform="translate(-225.676 -158.25)" fill="#fff"/>
          <g id="Group_4273" data-name="Group 4273" transform="translate(81.298 55.217)">
            <path id="Path_21901" data-name="Path 21901" d="M267.075,220.116l-2.682,1.548V218.57l2.682-1.551Z" transform="translate(-264.393 -191.225)" fill="#fff"/>
            <path id="Path_21902" data-name="Path 21902" d="M269.746,218.572l-2.681,1.551v-3.1l2.681-1.548Z" transform="translate(-261.454 -192.922)" fill="#fff"/>
            <path id="Path_21903" data-name="Path 21903" d="M272.418,217.031l-2.681,1.548v-3.1l2.681-1.548Z" transform="translate(-258.514 -194.619)" fill="#fff"/>
            <path id="Path_21904" data-name="Path 21904" d="M270.234,221.28l-2.681,1.55v-3.1l2.681-1.548Z" transform="translate(-260.918 -189.945)" fill="#fff"/>
            <path id="Path_21905" data-name="Path 21905" d="M272.587,219.923l-2.683,1.547v-3.1l2.683-1.547Z" transform="translate(-258.33 -191.438)" fill="#fff"/>
            <path id="Path_21906" data-name="Path 21906" d="M280.989,212.083l-2.681,1.548v-3.1l2.681-1.548Z" transform="translate(-249.086 -200.063)" fill="#fff"/>
            <path id="Path_21907" data-name="Path 21907" d="M288.349,207.834l-2.682,1.548v-3.1l2.682-1.548Z" transform="translate(-240.989 -204.737)" fill="#fff"/>
            <path id="Path_21908" data-name="Path 21908" d="M275.09,215.488l-2.682,1.548v-3.1l2.682-1.548Z" transform="translate(-255.575 -196.317)" fill="#fff"/>
          </g>
        </g>
        <g id="Group_4276" data-name="Group 4276" transform="translate(0.806 100.963)">
          <path id="Path_21909" data-name="Path 21909" d="M361.781,206.586h0l-.008-27.165L327.446,184l-25.7-14.839c-4.509-2.6-11.819-2.6-16.326,0l-4,2.545-55.733,7.434V206.8l.021,0c.065,1.655,1.17,3.3,3.358,4.564l56.655,32.711c4.509,2.6,11.817,2.6,16.326,0L358.4,211.3c2.182-1.26,3.285-2.9,3.356-4.551l.025,0Z" transform="translate(-225.68 -139.842)" fill="url(#linear-gradient-10)"/>
          <path id="Path_21910" data-name="Path 21910" d="M358.4,188.843l-56.655-32.714c-4.509-2.6-11.819-2.6-16.326,0L229.063,188.9c-4.509,2.6-4.509,6.823,0,9.425l56.655,32.711c4.509,2.6,11.817,2.6,16.326,0l56.357-32.77C362.91,195.664,362.91,191.445,358.4,188.843Z" transform="translate(-225.682 -154.178)" fill="url(#radial-gradient-11)"/>
          <path id="Path_21911" data-name="Path 21911" d="M358.4,188.843l-56.655-32.714c-4.509-2.6-11.819-2.6-16.326,0L229.063,188.9c-4.509,2.6-4.509,6.823,0,9.425l56.655,32.711c4.509,2.6,11.817,2.6,16.326,0l56.357-32.77C362.91,195.664,362.91,191.445,358.4,188.843Z" transform="translate(-225.682 -154.178)" fill="url(#radial-gradient-12)"/>
          <path id="Path_21912" data-name="Path 21912" d="M324.553,183.476,287.014,161.8a11.958,11.958,0,0,0-10.818,0l-37.34,21.715c-2.988,1.724-2.988,4.519,0,6.244l37.54,21.675a11.958,11.958,0,0,0,10.818,0l37.34-21.715C327.542,188,327.542,185.2,324.553,183.476Z" transform="translate(-213.654 -147.213)" fill="#8b1e64"/>
          <path id="Path_21913" data-name="Path 21913" d="M358.4,176.425,302.039,209.2c-4.509,2.6-11.817,2.6-16.326,0l-56.655-32.711a6.25,6.25,0,0,1-3.282-3.889c-.424,1.97.664,4.024,3.282,5.536l56.655,32.711c4.509,2.6,11.817,2.6,16.326,0l56.357-32.77c2.619-1.512,3.707-3.568,3.282-5.536A6.257,6.257,0,0,1,358.4,176.425Z" transform="translate(-225.676 -133.982)" fill="#fff"/>
          <g id="Group_4275" data-name="Group 4275" transform="translate(81.298 55.218)">
            <path id="Path_21914" data-name="Path 21914" d="M267.075,195.851l-2.682,1.548v-3.1l2.682-1.548Z" transform="translate(-264.393 -166.958)" fill="#fff"/>
            <path id="Path_21915" data-name="Path 21915" d="M269.746,194.308l-2.681,1.551v-3.1l2.681-1.548Z" transform="translate(-261.454 -168.655)" fill="#fff"/>
            <path id="Path_21916" data-name="Path 21916" d="M272.418,192.767l-2.681,1.548v-3.1l2.681-1.551Z" transform="translate(-258.514 -170.353)" fill="#fff"/>
            <path id="Path_21917" data-name="Path 21917" d="M270.234,197.015l-2.681,1.548v-3.1l2.681-1.548Z" transform="translate(-260.918 -165.677)" fill="#fff"/>
            <path id="Path_21918" data-name="Path 21918" d="M272.587,195.656,269.9,197.2v-3.1l2.683-1.548Z" transform="translate(-258.33 -167.172)" fill="#fff"/>
            <path id="Path_21919" data-name="Path 21919" d="M280.989,187.818l-2.681,1.548v-3.1l2.681-1.548Z" transform="translate(-249.086 -175.795)" fill="#fff"/>
            <path id="Path_21920" data-name="Path 21920" d="M288.349,183.568l-2.682,1.551v-3.1l2.682-1.548Z" transform="translate(-240.989 -180.471)" fill="#fff"/>
            <path id="Path_21921" data-name="Path 21921" d="M275.09,191.223l-2.682,1.549v-3.1l2.682-1.548Z" transform="translate(-255.575 -172.049)" fill="#fff"/>
          </g>
        </g>
        <g id="Group_4278" data-name="Group 4278" transform="translate(0.806 50.961)">
          <path id="Path_21922" data-name="Path 21922" d="M361.781,182.777h0l-.008-27.163-34.326,4.578-25.7-14.839c-4.509-2.6-11.819-2.6-16.326,0l-4,2.543-55.733,7.436v27.656l.021,0c.065,1.657,1.17,3.3,3.358,4.566l56.655,32.709c4.509,2.6,11.817,2.6,16.326,0L358.4,187.49c2.182-1.26,3.285-2.9,3.356-4.551l.025,0Z" transform="translate(-225.68 -116.033)" fill="url(#linear-gradient-10)"/>
          <path id="Path_21923" data-name="Path 21923" d="M358.4,165.031l-56.655-32.709c-4.509-2.6-11.819-2.6-16.326,0l-56.357,32.77c-4.509,2.6-4.509,6.823,0,9.427l56.655,32.709c4.509,2.6,11.817,2.6,16.326,0L358.4,174.457C362.91,171.855,362.91,167.636,358.4,165.031Z" transform="translate(-225.682 -130.369)" fill="url(#radial-gradient-13)"/>
          <path id="Path_21924" data-name="Path 21924" d="M316.539,158.4l-33.014-19.061a10.526,10.526,0,0,0-9.511,0l-32.84,19.1c-2.627,1.516-2.627,3.973,0,5.492l33.012,19.059a10.5,10.5,0,0,0,9.514,0l32.84-19.092C319.164,162.372,319.164,159.913,316.539,158.4Z" transform="translate(-210.806 -121.754)" fill="#8b1e64"/>
          <path id="Path_21925" data-name="Path 21925" d="M358.4,152.617l-56.357,32.77c-4.509,2.6-11.817,2.6-16.326,0l-56.655-32.711a6.245,6.245,0,0,1-3.282-3.889c-.424,1.97.664,4.026,3.282,5.538l56.655,32.709c4.509,2.6,11.817,2.6,16.326,0L358.4,154.262c2.619-1.51,3.707-3.566,3.282-5.536A6.26,6.26,0,0,1,358.4,152.617Z" transform="translate(-225.676 -110.174)" fill="#fff"/>
          <g id="Group_4277" data-name="Group 4277" transform="translate(81.298 55.218)">
            <path id="Path_21926" data-name="Path 21926" d="M267.075,172.042l-2.682,1.549v-3.1l2.682-1.548Z" transform="translate(-264.393 -143.15)" fill="#fff"/>
            <path id="Path_21927" data-name="Path 21927" d="M269.746,170.5l-2.681,1.548v-3.1l2.681-1.548Z" transform="translate(-261.454 -144.847)" fill="#fff"/>
            <path id="Path_21928" data-name="Path 21928" d="M272.418,168.956l-2.681,1.548v-3.1l2.681-1.548Z" transform="translate(-258.514 -146.544)" fill="#fff"/>
            <path id="Path_21929" data-name="Path 21929" d="M270.234,173.206l-2.681,1.548v-3.1l2.681-1.548Z" transform="translate(-260.918 -141.869)" fill="#fff"/>
            <path id="Path_21930" data-name="Path 21930" d="M272.587,171.848,269.9,173.4v-3.1l2.683-1.548Z" transform="translate(-258.33 -143.363)" fill="#fff"/>
            <path id="Path_21931" data-name="Path 21931" d="M280.989,164.008l-2.681,1.548v-3.1l2.681-1.548Z" transform="translate(-249.086 -151.987)" fill="#fff"/>
            <path id="Path_21932" data-name="Path 21932" d="M288.349,159.759l-2.682,1.548v-3.1l2.682-1.548Z" transform="translate(-240.989 -156.662)" fill="#fff"/>
            <path id="Path_21933" data-name="Path 21933" d="M275.09,167.414l-2.682,1.548v-3.1l2.682-1.548Z" transform="translate(-255.575 -148.24)" fill="#fff"/>
          </g>
        </g>
        <g id="Group_4280" data-name="Group 4280" transform="translate(0.806)">
          <path id="Path_21934" data-name="Path 21934" d="M361.781,158.511h0l-.008-27.163-34.326,4.58-25.7-14.842c-4.509-2.6-11.819-2.6-16.326,0l-4,2.543-55.733,7.437v27.656l.021,0c.065,1.657,1.17,3.3,3.358,4.566l56.655,32.709c4.509,2.6,11.817,2.6,16.326,0l56.357-32.77c2.182-1.26,3.285-2.9,3.356-4.551l.025,0Z" transform="translate(-225.68 -91.767)" fill="url(#linear-gradient-10)"/>
          <path id="Path_21935" data-name="Path 21935" d="M358.4,140.765l-56.655-32.709c-4.509-2.6-11.819-2.6-16.326,0l-56.357,32.772c-4.509,2.6-4.509,6.821,0,9.423l56.655,32.711c4.509,2.6,11.817,2.6,16.326,0l56.357-32.77C362.91,147.589,362.91,143.37,358.4,140.765Z" transform="translate(-225.682 -106.103)" fill="url(#radial-gradient-9)"/>
          <path id="Path_21936" data-name="Path 21936" d="M358.4,140.765l-56.655-32.709c-4.509-2.6-11.819-2.6-16.326,0l-56.357,32.772c-4.509,2.6-4.509,6.821,0,9.423l56.655,32.711c4.509,2.6,11.817,2.6,16.326,0l56.357-32.77C362.91,147.589,362.91,143.37,358.4,140.765Z" transform="translate(-225.682 -106.103)" fill="url(#radial-gradient-15)"/>
          <path id="Path_21937" data-name="Path 21937" d="M282.186,165.794a11.746,11.746,0,0,1-5.775-1.4l-37.54-21.673a4.016,4.016,0,0,1,0-7.521l37.34-21.713a12.6,12.6,0,0,1,11.557,0l37.54,21.673a4.016,4.016,0,0,1,0,7.521l-37.34,21.713A11.771,11.771,0,0,1,282.186,165.794Zm-.2-52.24a10.3,10.3,0,0,0-5.038,1.2l-37.342,21.713a2.587,2.587,0,0,0,0,4.973l37.54,21.673a11.149,11.149,0,0,0,10.083,0l37.34-21.713a2.586,2.586,0,0,0,0-4.971l-37.54-21.675A10.312,10.312,0,0,0,281.989,113.554Z" transform="translate(-214.039 -99.529)" fill="#8b1e64"/>
          <path id="Path_21938" data-name="Path 21938" d="M358.4,128.35l-56.357,32.77c-4.509,2.6-11.817,2.6-16.326,0l-56.655-32.709a6.253,6.253,0,0,1-3.282-3.892c-.424,1.97.664,4.026,3.282,5.536l56.655,32.711c4.509,2.6,11.817,2.6,16.326,0L358.4,130c2.619-1.512,3.707-3.568,3.282-5.536A6.257,6.257,0,0,1,358.4,128.35Z" transform="translate(-225.676 -85.907)" fill="#fff"/>
          <g id="Group_4279" data-name="Group 4279" transform="translate(81.298 55.219)">
            <path id="Path_21939" data-name="Path 21939" d="M267.075,147.776l-2.682,1.548v-3.1l2.682-1.548Z" transform="translate(-264.393 -118.884)" fill="#fff"/>
            <path id="Path_21940" data-name="Path 21940" d="M269.746,146.234l-2.681,1.548v-3.1l2.681-1.549Z" transform="translate(-261.454 -120.581)" fill="#fff"/>
            <path id="Path_21941" data-name="Path 21941" d="M272.418,144.691l-2.681,1.548v-3.1l2.681-1.548Z" transform="translate(-258.514 -122.278)" fill="#fff"/>
            <path id="Path_21942" data-name="Path 21942" d="M270.234,148.94l-2.681,1.549v-3.1l2.681-1.547Z" transform="translate(-260.918 -117.603)" fill="#fff"/>
            <path id="Path_21943" data-name="Path 21943" d="M272.587,147.582,269.9,149.13v-3.1l2.683-1.548Z" transform="translate(-258.33 -119.098)" fill="#fff"/>
            <path id="Path_21944" data-name="Path 21944" d="M280.989,139.742l-2.681,1.548v-3.1l2.681-1.548Z" transform="translate(-249.086 -127.722)" fill="#fff"/>
            <path id="Path_21945" data-name="Path 21945" d="M288.349,135.493l-2.682,1.548v-3.1l2.682-1.548Z" transform="translate(-240.989 -132.396)" fill="#fff"/>
            <path id="Path_21946" data-name="Path 21946" d="M275.09,143.148l-2.682,1.55v-3.1l2.682-1.548Z" transform="translate(-255.575 -123.976)" fill="#fff"/>
          </g>
        </g>
      </g>
      <g id="Group_4292" data-name="Group 4292" transform="translate(0 183.939)">
        <path id="Path_21947" data-name="Path 21947" d="M128.886,303.851a17.219,17.219,0,0,1-8.426-2.01L63.8,269.13c-2.352-1.357-3.646-3.192-3.646-5.168s1.294-3.81,3.646-5.171l56.357-32.766c4.645-2.69,12.208-2.686,16.853,0l56.655,32.711c2.352,1.355,3.646,3.192,3.646,5.168s-1.294,3.812-3.646,5.173l-56.354,32.768A17.233,17.233,0,0,1,128.886,303.851Zm-.3-78.8a16.163,16.163,0,0,0-7.9,1.888L64.333,259.7c-2.012,1.163-3.121,2.673-3.121,4.259s1.109,3.1,3.119,4.255l56.657,32.716c4.358,2.51,11.444,2.514,15.8,0l56.354-32.77c2.012-1.161,3.119-2.673,3.119-4.257s-1.107-3.1-3.117-4.255v0L136.485,226.93A16.175,16.175,0,0,0,128.59,225.047Z" transform="translate(-60.158 23.607)" fill="#03a7d3"/>
        <g id="Group_4283" data-name="Group 4283" transform="translate(0.805 202.886)">
          <path id="Path_21948" data-name="Path 21948" d="M196.643,255.115h0l-.01-27.161-34.324,4.578-25.7-14.839c-4.509-2.6-11.817-2.6-16.326,0l-4,2.543-55.733,7.436v27.656l.021,0c.065,1.657,1.168,3.3,3.356,4.566L120.577,292.6c4.509,2.6,11.817,2.6,16.326,0l56.357-32.774c2.182-1.258,3.285-2.9,3.354-4.549l.029,0Z" transform="translate(-60.54 -188.374)" fill="url(#linear-gradient-10)"/>
          <path id="Path_21949" data-name="Path 21949" d="M193.261,237.372l-56.655-32.709c-4.509-2.6-11.817-2.6-16.326,0l-56.359,32.77c-4.507,2.6-4.507,6.823,0,9.425l56.657,32.711c4.509,2.6,11.817,2.6,16.326,0L193.261,246.8C197.77,244.2,197.77,239.977,193.261,237.372Z" transform="translate(-60.541 -202.71)" fill="url(#radial-gradient-16)"/>
          <path id="Path_21950" data-name="Path 21950" d="M193.256,224.959,136.9,257.727c-4.509,2.606-11.817,2.606-16.326,0L63.917,225.017a6.252,6.252,0,0,1-3.282-3.889c-.422,1.968.666,4.026,3.282,5.536l56.657,32.711c4.509,2.6,11.817,2.6,16.326,0L193.256,226.6c2.619-1.51,3.7-3.566,3.282-5.536A6.254,6.254,0,0,1,193.256,224.959Z" transform="translate(-60.537 -182.515)" fill="#fff"/>
          <g id="Group_4282" data-name="Group 4282" transform="translate(81.299 55.218)">
            <path id="Path_21951" data-name="Path 21951" d="M101.935,244.382l-2.682,1.55v-3.1l2.682-1.551Z" transform="translate(-99.253 -215.491)" fill="#fff"/>
            <path id="Path_21952" data-name="Path 21952" d="M104.607,242.84l-2.682,1.548v-3.1l2.682-1.548Z" transform="translate(-96.314 -217.187)" fill="#fff"/>
            <path id="Path_21953" data-name="Path 21953" d="M107.279,241.3l-2.683,1.548v-3.1l2.683-1.548Z" transform="translate(-93.374 -218.885)" fill="#fff"/>
            <path id="Path_21954" data-name="Path 21954" d="M105.095,245.547l-2.682,1.548V244l2.682-1.548Z" transform="translate(-95.777 -214.209)" fill="#fff"/>
            <path id="Path_21955" data-name="Path 21955" d="M107.447,244.189l-2.682,1.548v-3.1l2.682-1.548Z" transform="translate(-93.189 -215.704)" fill="#fff"/>
            <path id="Path_21956" data-name="Path 21956" d="M115.85,236.349l-2.683,1.551v-3.1l2.683-1.551Z" transform="translate(-83.946 -224.328)" fill="#fff"/>
            <path id="Path_21957" data-name="Path 21957" d="M123.21,232.1l-2.682,1.548v-3.1L123.21,229Z" transform="translate(-75.849 -229.003)" fill="#fff"/>
            <path id="Path_21958" data-name="Path 21958" d="M109.951,239.755l-2.682,1.548v-3.1l2.682-1.548Z" transform="translate(-90.435 -220.581)" fill="#fff"/>
          </g>
        </g>
        <path id="Path_21959" data-name="Path 21959" d="M111.933,257.8,73.816,235.79c-1.55-.9-1.355-2.457.435-3.49L111.5,210.794a6.716,6.716,0,0,1,6.044-.25l38.119,22.007c1.55.895,1.355,2.457-.435,3.488l-37.248,21.505A6.714,6.714,0,0,1,111.933,257.8Z" transform="translate(-46.283 8.13)" fill="#06033e" opacity="0.4"/>
        <path id="Path_21960" data-name="Path 21960" d="M101.465,256.79,70.012,238.632a3.258,3.258,0,0,1-1.359-2.6V233.7c0-1,.607-1.46,1.359-1.027l31.453,18.16a3.253,3.253,0,0,1,1.361,2.6v2.335C102.826,256.765,102.217,257.225,101.465,256.79Z" transform="translate(-50.813 32.956)" fill="#fff"/>
        <g id="Group_4285" data-name="Group 4285" transform="translate(0.805 151.926)">
          <path id="Path_21961" data-name="Path 21961" d="M196.643,230.852h0l-.01-27.163-34.324,4.58-25.7-14.844c-4.509-2.6-11.817-2.6-16.326,0l-4,2.545-55.733,7.434v27.658l.021,0c.065,1.657,1.168,3.3,3.356,4.566l56.657,32.709c4.509,2.6,11.817,2.6,16.326,0l56.357-32.77c2.182-1.26,3.285-2.9,3.354-4.549l.029,0Z" transform="translate(-60.54 -164.11)" fill="url(#linear-gradient-10)"/>
          <path id="Path_21962" data-name="Path 21962" d="M193.261,213.106,136.607,180.4c-4.509-2.6-11.817-2.6-16.326,0l-56.359,32.77c-4.507,2.6-4.507,6.823,0,9.427L120.578,255.3c4.509,2.6,11.817,2.6,16.326,0l56.357-32.77C197.77,219.929,197.77,215.708,193.261,213.106Z" transform="translate(-60.541 -178.445)" fill="url(#radial-gradient-17)"/>
          <path id="Path_21963" data-name="Path 21963" d="M151.4,206.472l-33.014-19.061a10.513,10.513,0,0,0-9.511,0L76.034,206.506c-2.627,1.518-2.627,3.978,0,5.492l33.014,19.063a10.526,10.526,0,0,0,9.511,0l32.839-19.1C154.026,210.448,154.026,207.989,151.4,206.472Z" transform="translate(-45.665 -169.831)" fill="#06033e" opacity="0.4"/>
          <path id="Path_21964" data-name="Path 21964" d="M193.256,200.689,136.9,233.462c-4.509,2.6-11.817,2.6-16.326,0L63.917,200.752a6.26,6.26,0,0,1-3.282-3.892c-.422,1.968.666,4.024,3.282,5.538l56.657,32.709c4.509,2.6,11.817,2.6,16.326,0l56.357-32.77c2.619-1.512,3.7-3.568,3.282-5.536A6.248,6.248,0,0,1,193.256,200.689Z" transform="translate(-60.537 -158.25)" fill="#fff"/>
          <g id="Group_4284" data-name="Group 4284" transform="translate(81.299 55.217)">
            <path id="Path_21965" data-name="Path 21965" d="M101.935,220.116l-2.682,1.548V218.57l2.682-1.551Z" transform="translate(-99.253 -191.225)" fill="#fff"/>
            <path id="Path_21966" data-name="Path 21966" d="M104.607,218.572l-2.682,1.551v-3.1l2.682-1.548Z" transform="translate(-96.314 -192.922)" fill="#fff"/>
            <path id="Path_21967" data-name="Path 21967" d="M107.279,217.031,104.6,218.58v-3.1l2.683-1.548Z" transform="translate(-93.374 -194.619)" fill="#fff"/>
            <path id="Path_21968" data-name="Path 21968" d="M105.095,221.28l-2.682,1.55v-3.1l2.682-1.548Z" transform="translate(-95.777 -189.945)" fill="#fff"/>
            <path id="Path_21969" data-name="Path 21969" d="M107.447,219.923l-2.682,1.547v-3.1l2.682-1.547Z" transform="translate(-93.189 -191.438)" fill="#fff"/>
            <path id="Path_21970" data-name="Path 21970" d="M115.85,212.083l-2.683,1.548v-3.1l2.683-1.548Z" transform="translate(-83.946 -200.063)" fill="#fff"/>
            <path id="Path_21971" data-name="Path 21971" d="M123.21,207.834l-2.682,1.548v-3.1l2.682-1.548Z" transform="translate(-75.849 -204.737)" fill="#fff"/>
            <path id="Path_21972" data-name="Path 21972" d="M109.951,215.488l-2.682,1.548v-3.1l2.682-1.548Z" transform="translate(-90.435 -196.317)" fill="#fff"/>
          </g>
        </g>
        <g id="Group_4287" data-name="Group 4287" transform="translate(0.805 100.963)">
          <path id="Path_21973" data-name="Path 21973" d="M196.643,206.586h0l-.01-27.165L162.308,184l-25.7-14.839c-4.509-2.6-11.817-2.6-16.326,0l-4,2.545-55.733,7.434V206.8l.021,0c.065,1.655,1.168,3.3,3.356,4.564l56.657,32.711c4.509,2.6,11.817,2.6,16.326,0L193.26,211.3c2.182-1.26,3.285-2.9,3.354-4.551l.029,0Z" transform="translate(-60.54 -139.842)" fill="url(#linear-gradient-10)"/>
          <path id="Path_21974" data-name="Path 21974" d="M193.261,188.843l-56.655-32.714c-4.509-2.6-11.817-2.6-16.326,0L63.922,188.9c-4.507,2.6-4.507,6.823,0,9.425l56.657,32.711c4.509,2.6,11.817,2.6,16.326,0l56.357-32.77C197.77,195.664,197.77,191.445,193.261,188.843Z" transform="translate(-60.541 -154.178)" fill="url(#radial-gradient-18)"/>
          <path id="Path_21975" data-name="Path 21975" d="M193.261,188.843l-56.655-32.714c-4.509-2.6-11.817-2.6-16.326,0L63.922,188.9c-4.507,2.6-4.507,6.823,0,9.425l56.657,32.711c4.509,2.6,11.817,2.6,16.326,0l56.357-32.77C197.77,195.664,197.77,191.445,193.261,188.843Z" transform="translate(-60.541 -154.178)" fill="url(#radial-gradient-19)"/>
          <path id="Path_21976" data-name="Path 21976" d="M159.413,183.476,121.874,161.8a11.958,11.958,0,0,0-10.818,0l-37.34,21.715c-2.988,1.724-2.988,4.519,0,6.244l37.54,21.675a11.954,11.954,0,0,0,10.816,0l37.342-21.715C162.4,188,162.4,185.2,159.413,183.476Z" transform="translate(-48.514 -147.213)" fill="#8b1e64"/>
          <path id="Path_21977" data-name="Path 21977" d="M193.256,176.425,136.9,209.2c-4.509,2.6-11.817,2.6-16.326,0L63.917,176.484a6.257,6.257,0,0,1-3.282-3.889c-.422,1.97.666,4.024,3.282,5.536l56.657,32.711c4.509,2.6,11.817,2.6,16.326,0l56.357-32.77c2.619-1.512,3.7-3.568,3.282-5.536A6.251,6.251,0,0,1,193.256,176.425Z" transform="translate(-60.537 -133.982)" fill="#fff"/>
          <g id="Group_4286" data-name="Group 4286" transform="translate(81.299 55.218)">
            <path id="Path_21978" data-name="Path 21978" d="M101.935,195.851,99.253,197.4v-3.1l2.682-1.548Z" transform="translate(-99.253 -166.958)" fill="#fff"/>
            <path id="Path_21979" data-name="Path 21979" d="M104.607,194.308l-2.682,1.551v-3.1l2.682-1.548Z" transform="translate(-96.314 -168.655)" fill="#fff"/>
            <path id="Path_21980" data-name="Path 21980" d="M107.279,192.767l-2.683,1.548v-3.1l2.683-1.551Z" transform="translate(-93.374 -170.353)" fill="#fff"/>
            <path id="Path_21981" data-name="Path 21981" d="M105.095,197.015l-2.682,1.548v-3.1l2.682-1.548Z" transform="translate(-95.777 -165.677)" fill="#fff"/>
            <path id="Path_21982" data-name="Path 21982" d="M107.447,195.656l-2.682,1.548v-3.1l2.682-1.548Z" transform="translate(-93.189 -167.172)" fill="#fff"/>
            <path id="Path_21983" data-name="Path 21983" d="M115.85,187.818l-2.683,1.548v-3.1l2.683-1.548Z" transform="translate(-83.946 -175.795)" fill="#fff"/>
            <path id="Path_21984" data-name="Path 21984" d="M123.21,183.568l-2.682,1.551v-3.1l2.682-1.548Z" transform="translate(-75.849 -180.471)" fill="#fff"/>
            <path id="Path_21985" data-name="Path 21985" d="M109.951,191.223l-2.682,1.549v-3.1l2.682-1.548Z" transform="translate(-90.435 -172.049)" fill="#fff"/>
          </g>
        </g>
        <g id="Group_4289" data-name="Group 4289" transform="translate(0.805 50.961)">
          <path id="Path_21986" data-name="Path 21986" d="M196.643,182.777h0l-.01-27.163-34.324,4.578-25.7-14.839c-4.509-2.6-11.817-2.6-16.326,0l-4,2.543-55.733,7.436v27.656l.021,0c.065,1.657,1.168,3.3,3.356,4.566l56.657,32.709c4.509,2.6,11.817,2.6,16.326,0l56.357-32.77c2.182-1.26,3.285-2.9,3.354-4.551l.029,0Z" transform="translate(-60.54 -116.033)" fill="url(#linear-gradient-10)"/>
          <path id="Path_21987" data-name="Path 21987" d="M193.261,165.031l-56.655-32.709c-4.509-2.6-11.817-2.6-16.326,0l-56.359,32.77c-4.507,2.6-4.507,6.823,0,9.427l56.657,32.709c4.509,2.6,11.817,2.6,16.326,0l56.357-32.772C197.77,171.855,197.77,167.636,193.261,165.031Z" transform="translate(-60.541 -130.369)" fill="url(#radial-gradient-20)"/>
          <path id="Path_21988" data-name="Path 21988" d="M151.4,158.4l-33.014-19.061a10.526,10.526,0,0,0-9.511,0l-32.839,19.1c-2.627,1.516-2.627,3.973,0,5.492l33.014,19.059a10.5,10.5,0,0,0,9.511,0L151.4,163.89C154.026,162.372,154.026,159.913,151.4,158.4Z" transform="translate(-45.665 -121.754)" fill="#8b1e64"/>
          <path id="Path_21989" data-name="Path 21989" d="M193.256,152.617,136.9,185.388c-4.509,2.6-11.817,2.6-16.326,0L63.917,152.676a6.252,6.252,0,0,1-3.282-3.889c-.422,1.97.666,4.026,3.282,5.538l56.657,32.709c4.509,2.6,11.817,2.6,16.326,0l56.357-32.772c2.619-1.51,3.7-3.566,3.282-5.536A6.254,6.254,0,0,1,193.256,152.617Z" transform="translate(-60.537 -110.174)" fill="#fff"/>
          <g id="Group_4288" data-name="Group 4288" transform="translate(81.299 55.218)">
            <path id="Path_21990" data-name="Path 21990" d="M101.935,172.042l-2.682,1.549v-3.1l2.682-1.548Z" transform="translate(-99.253 -143.15)" fill="#fff"/>
            <path id="Path_21991" data-name="Path 21991" d="M104.607,170.5l-2.682,1.548v-3.1l2.682-1.548Z" transform="translate(-96.314 -144.847)" fill="#fff"/>
            <path id="Path_21992" data-name="Path 21992" d="M107.279,168.956,104.6,170.5v-3.1l2.683-1.548Z" transform="translate(-93.374 -146.544)" fill="#fff"/>
            <path id="Path_21993" data-name="Path 21993" d="M105.095,173.206l-2.682,1.548v-3.1l2.682-1.548Z" transform="translate(-95.777 -141.869)" fill="#fff"/>
            <path id="Path_21994" data-name="Path 21994" d="M107.447,171.848l-2.682,1.549v-3.1l2.682-1.548Z" transform="translate(-93.189 -143.363)" fill="#fff"/>
            <path id="Path_21995" data-name="Path 21995" d="M115.85,164.008l-2.683,1.548v-3.1l2.683-1.548Z" transform="translate(-83.946 -151.987)" fill="#fff"/>
            <path id="Path_21996" data-name="Path 21996" d="M123.21,159.759l-2.682,1.548v-3.1l2.682-1.548Z" transform="translate(-75.849 -156.662)" fill="#fff"/>
            <path id="Path_21997" data-name="Path 21997" d="M109.951,167.414l-2.682,1.548v-3.1l2.682-1.548Z" transform="translate(-90.435 -148.24)" fill="#fff"/>
          </g>
        </g>
        <g id="Group_4291" data-name="Group 4291" transform="translate(0.805)">
          <path id="Path_21998" data-name="Path 21998" d="M196.643,158.511h0l-.01-27.163-34.324,4.58-25.7-14.842c-4.509-2.6-11.817-2.6-16.326,0l-4,2.543-55.733,7.437v27.656l.021,0c.065,1.657,1.168,3.3,3.356,4.566l56.657,32.709c4.509,2.6,11.817,2.6,16.326,0l56.357-32.77c2.182-1.26,3.285-2.9,3.354-4.551l.029,0Z" transform="translate(-60.54 -91.767)" fill="url(#linear-gradient-10)"/>
          <path id="Path_21999" data-name="Path 21999" d="M193.261,140.765l-56.655-32.709c-4.509-2.6-11.817-2.6-16.326,0L63.922,140.828c-4.507,2.6-4.507,6.821,0,9.423l56.657,32.711c4.509,2.6,11.817,2.6,16.326,0l56.357-32.77C197.77,147.589,197.77,143.37,193.261,140.765Z" transform="translate(-60.541 -106.103)" fill="url(#radial-gradient-16)"/>
          <path id="Path_22000" data-name="Path 22000" d="M193.261,140.765l-56.655-32.709c-4.509-2.6-11.817-2.6-16.326,0L63.922,140.828c-4.507,2.6-4.507,6.821,0,9.423l56.657,32.711c4.509,2.6,11.817,2.6,16.326,0l56.357-32.77C197.77,147.589,197.77,143.37,193.261,140.765Z" transform="translate(-60.541 -106.103)" fill="url(#radial-gradient-22)"/>
          <path id="Path_22001" data-name="Path 22001" d="M117.048,165.794a11.754,11.754,0,0,1-5.777-1.4l-37.54-21.673a4.016,4.016,0,0,1,0-7.521l37.34-21.713a12.606,12.606,0,0,1,11.555,0l37.54,21.673a4.015,4.015,0,0,1,0,7.521l-37.338,21.713A11.769,11.769,0,0,1,117.048,165.794Zm-.2-52.24a10.3,10.3,0,0,0-5.04,1.2L74.47,136.468a2.586,2.586,0,0,0,0,4.973l37.54,21.673a11.149,11.149,0,0,0,10.083,0L159.428,141.4a2.585,2.585,0,0,0,0-4.971l-37.54-21.675A10.31,10.31,0,0,0,116.851,113.553Z" transform="translate(-48.898 -99.529)" fill="#8b1e64"/>
          <path id="Path_22002" data-name="Path 22002" d="M193.256,128.35,136.9,161.121c-4.509,2.6-11.817,2.6-16.326,0L63.917,128.411a6.26,6.26,0,0,1-3.282-3.892c-.422,1.97.666,4.026,3.282,5.536l56.657,32.711c4.509,2.6,11.817,2.6,16.326,0L193.256,130c2.619-1.512,3.7-3.568,3.282-5.536A6.251,6.251,0,0,1,193.256,128.35Z" transform="translate(-60.537 -85.907)" fill="#fff"/>
          <g id="Group_4290" data-name="Group 4290" transform="translate(81.299 55.219)">
            <path id="Path_22003" data-name="Path 22003" d="M101.935,147.776l-2.682,1.548v-3.1l2.682-1.548Z" transform="translate(-99.253 -118.884)" fill="#fff"/>
            <path id="Path_22004" data-name="Path 22004" d="M104.607,146.234l-2.682,1.548v-3.1l2.682-1.549Z" transform="translate(-96.314 -120.581)" fill="#fff"/>
            <path id="Path_22005" data-name="Path 22005" d="M107.279,144.691l-2.683,1.548v-3.1l2.683-1.548Z" transform="translate(-93.374 -122.278)" fill="#fff"/>
            <path id="Path_22006" data-name="Path 22006" d="M105.095,148.94l-2.682,1.549v-3.1l2.682-1.547Z" transform="translate(-95.777 -117.603)" fill="#fff"/>
            <path id="Path_22007" data-name="Path 22007" d="M107.447,147.582l-2.682,1.548v-3.1l2.682-1.548Z" transform="translate(-93.189 -119.098)" fill="#fff"/>
            <path id="Path_22008" data-name="Path 22008" d="M115.85,139.742l-2.683,1.548v-3.1l2.683-1.548Z" transform="translate(-83.946 -127.722)" fill="#fff"/>
            <path id="Path_22009" data-name="Path 22009" d="M123.21,135.493l-2.682,1.548v-3.1l2.682-1.548Z" transform="translate(-75.849 -132.396)" fill="#fff"/>
            <path id="Path_22010" data-name="Path 22010" d="M109.951,143.148l-2.682,1.55v-3.1l2.682-1.548Z" transform="translate(-90.435 -123.976)" fill="#fff"/>
          </g>
        </g>
      </g>
    </g>
    <g id="Group_4294" data-name="Group 4294" transform="translate(369.392 144.682)">
      <rect id="Rectangle_798" data-name="Rectangle 798" width="4.216" height="4.215" transform="translate(0)" fill="#f8359e" opacity="0.8"/>
      <rect id="Rectangle_799" data-name="Rectangle 799" width="4.216" height="4.215" transform="translate(8.972)" fill="#f8359e"/>
      <rect id="Rectangle_800" data-name="Rectangle 800" width="4.216" height="4.215" transform="translate(17.943)" fill="#f8359e" opacity="0.4"/>
      <rect id="Rectangle_801" data-name="Rectangle 801" width="4.216" height="4.215" transform="translate(26.914)" fill="#f8359e"/>
      <rect id="Rectangle_802" data-name="Rectangle 802" width="4.216" height="4.215" transform="translate(55.45)" fill="#f8359e"/>
      <rect id="Rectangle_803" data-name="Rectangle 803" width="4.216" height="4.216" transform="translate(26.914 30.049)" fill="#f8359e" opacity="0.8"/>
      <rect id="Rectangle_804" data-name="Rectangle 804" width="4.216" height="4.215" transform="translate(31.13 53.071) rotate(180)" fill="#f8359e"/>
      <rect id="Rectangle_805" data-name="Rectangle 805" width="4.216" height="4.217" transform="translate(31.13 61.611) rotate(180)" fill="#f8359e" opacity="0.4"/>
      <rect id="Rectangle_806" data-name="Rectangle 806" width="4.216" height="4.215" transform="translate(31.13 70.149) rotate(180)" fill="#f8359e"/>
      <rect id="Rectangle_807" data-name="Rectangle 807" width="4.216" height="4.216" transform="translate(51.667 58.476) rotate(180)" fill="#f8359e" opacity="0.8"/>
      <rect id="Rectangle_808" data-name="Rectangle 808" width="4.215" height="4.215" transform="translate(58.8 51.99) rotate(180)" fill="#f8359e"/>
      <rect id="Rectangle_809" data-name="Rectangle 809" width="4.216" height="4.215" transform="translate(64.422)" fill="#f8359e" opacity="0.4"/>
    </g>
    <g id="Group_4295" data-name="Group 4295" transform="translate(170.126 142.117)">
      <rect id="Rectangle_810" data-name="Rectangle 810" width="4.216" height="4.215" transform="translate(50.694 70.149) rotate(180)" fill="#f8359e" opacity="0.4"/>
      <rect id="Rectangle_811" data-name="Rectangle 811" width="4.216" height="4.215" transform="translate(41.722 70.149) rotate(180)" fill="#f8359e"/>
      <rect id="Rectangle_812" data-name="Rectangle 812" width="4.216" height="4.215" transform="translate(11.079 25.689) rotate(180)" fill="#f8359e"/>
      <rect id="Rectangle_813" data-name="Rectangle 813" width="4.216" height="4.215" transform="translate(11.079 16.969) rotate(180)" fill="#f8359e"/>
      <rect id="Rectangle_814" data-name="Rectangle 814" width="4.216" height="4.215" transform="translate(11.079 8.249) rotate(180)" fill="#f8359e"/>
      <rect id="Rectangle_815" data-name="Rectangle 815" width="4.215" height="4.215" transform="translate(13.186 70.149) rotate(180)" fill="#f8359e"/>
      <rect id="Rectangle_816" data-name="Rectangle 816" width="4.216" height="4.217" transform="translate(41.722 40.101) rotate(180)" fill="#f8359e" opacity="0.8"/>
      <rect id="Rectangle_817" data-name="Rectangle 817" width="4.216" height="4.216" transform="translate(37.507 17.078)" fill="#f8359e"/>
      <rect id="Rectangle_818" data-name="Rectangle 818" width="4.216" height="4.217" transform="translate(37.507 8.538)" fill="#f8359e" opacity="0.4"/>
      <rect id="Rectangle_819" data-name="Rectangle 819" width="4.216" height="4.216" transform="translate(37.507)" fill="#f8359e"/>
      <rect id="Rectangle_820" data-name="Rectangle 820" width="4.216" height="4.215" transform="translate(4.216 70.149) rotate(180)" fill="#f8359e" opacity="0.4"/>
    </g>
  </g>
</svg>
