<svg xmlns="http://www.w3.org/2000/svg" width="69.3" height="84" viewBox="0 0 69.3 84">
  <g id="icon-19" transform="translate(-1136.35 -599)">
    <g id="Polygon_32" data-name="Polygon 32" transform="translate(1136.35 683) rotate(-90)" fill="none">
      <path d="M56.241,0A12,12,0,0,1,66.5,5.78L80.231,28.43a12,12,0,0,1,0,12.439L66.5,63.52A12,12,0,0,1,56.241,69.3H27.759A12,12,0,0,1,17.5,63.52L3.769,40.87a12,12,0,0,1,0-12.439L17.5,5.78A12,12,0,0,1,27.759,0Z" stroke="none"/>
      <path d="M 27.75911712646484 1 C 25.87182998657227 1 24.00509643554688 1.489570617675781 22.3607177734375 2.415779113769531 C 20.71633911132812 3.341987609863281 19.33013153076172 4.684677124023438 18.35194396972656 6.298679351806641 L 4.624671936035156 28.94868087768555 C 3.582626342773438 30.66803359985352 3.031837463378906 32.63952255249023 3.031837463378906 34.65000152587891 C 3.031837463378906 36.66048049926758 3.582626342773438 38.6319580078125 4.624664306640625 40.35131072998047 L 18.35194396972656 63.00132369995117 C 19.33011627197266 64.61532592773438 20.71632766723633 65.95801544189453 22.3607063293457 66.88422393798828 C 24.00508499145508 67.81043243408203 25.87181854248047 68.30000305175781 27.75910568237305 68.30000305175781 L 56.24088287353516 68.30000305175781 C 58.128173828125 68.30000305175781 59.99490737915039 67.81043243408203 61.6392822265625 66.88422393798828 C 63.28367614746094 65.95801544189453 64.66987609863281 64.61532592773438 65.64805603027344 63.00132369995117 L 79.37534332275391 40.35132598876953 C 80.41737365722656 38.63196563720703 80.96815490722656 36.66048049926758 80.96815490722656 34.65000152587891 C 80.96815490722656 32.63952255249023 80.41737365722656 30.66803359985352 79.37534332275391 28.94868087768555 L 65.64805603027344 6.298679351806641 C 64.66987609863281 4.684677124023438 63.28367614746094 3.341987609863281 61.6392822265625 2.415779113769531 C 59.99490737915039 1.489570617675781 58.128173828125 1 56.24088287353516 1 L 27.75911712646484 1 M 27.75911712646484 0 L 56.24088287353516 0 C 60.43702697753906 0 64.32839965820312 2.19183349609375 66.50325012207031 5.780380249023438 L 80.23053741455078 28.43037796020508 C 82.54736328125 32.25315856933594 82.54736328125 37.04684448242188 80.23053741455078 40.86962127685547 L 66.50325012207031 63.51962280273438 C 64.32839965820312 67.108154296875 60.43702697753906 69.30000305175781 56.24088287353516 69.30000305175781 L 27.75910568237305 69.30000305175781 C 23.56296157836914 69.30000305175781 19.67160797119141 67.108154296875 17.49674224853516 63.51962280273438 L 3.769462585449219 40.86961364746094 C 1.452629089355469 37.04684448242188 1.452629089355469 32.25315856933594 3.76947021484375 28.43037796020508 L 17.49674224853516 5.780380249023438 C 19.67161560058594 2.19183349609375 23.56297302246094 0 27.75911712646484 0 Z" stroke="none" fill="#28d1ba"/>
    </g>
    <path id="financial-growth" d="M5.244,19.217V29.99a.494.494,0,0,1-.494.483H.494A.494.494,0,0,1,0,29.993V19.217ZM11.256,0A5.655,5.655,0,1,1,5.6,5.653,5.655,5.655,0,0,1,11.256,0Zm-.483,2.916V2.347h.782V2.9a.984.984,0,0,1,.275.025c.2.022.387.047.549.08s.335.063.475.1V4.211c-.222-.019-.472-.036-.749-.047s-.53-.019-.755-.019a2.056,2.056,0,0,0-.362.03.445.445,0,0,0-.244.115.332.332,0,0,0-.088.253v.074a.335.335,0,0,0,.115.275.549.549,0,0,0,.354.093H11.6a1.672,1.672,0,0,1,.843.192,1.255,1.255,0,0,1,.508.522,1.6,1.6,0,0,1,.167.747v.239A1.9,1.9,0,0,1,12.9,7.736a1.172,1.172,0,0,1-.675.5,3.152,3.152,0,0,1-.673.113v.623h-.782V8.34h-.066a3.431,3.431,0,0,1-.447-.044c-.146-.019-.275-.041-.423-.066a3.716,3.716,0,0,1-.393-.085V7.028c.165,0,.343.027.533.036s.384.016.579.022H11.1a1.993,1.993,0,0,0,.4-.036.511.511,0,0,0,.239-.115.3.3,0,0,0,.08-.22V6.63a.275.275,0,0,0-.113-.239.434.434,0,0,0-.275-.08H11.05a1.922,1.922,0,0,1-1.274-.371,1.542,1.542,0,0,1-.434-1.235V4.475a1.458,1.458,0,0,1,.483-1.18,1.828,1.828,0,0,1,.947-.368ZM0,15.7l5.812-5.084.231.242h0a7.366,7.366,0,0,0,3.47,1.952L6.254,15.7Zm16.17-4.576c.824.884,1.625,1.752,2.446,2.561L27.6,4.667l-2.894-2.9,9.027-.681-.516,9.2L30.451,7.5c-1.993,2.018-6.707,6.468-8.7,8.464-2.523,2.52-3.725,2.567-6.248.044l-2.819-3.138A7.377,7.377,0,0,0,16.17,11.124Zm14.756,1.922V30a.494.494,0,0,1-.494.491H26.177A.5.5,0,0,1,25.682,30V17.177c.824-.788,1.76-1.7,2.726-2.633L30.424,12.6l.085.08a3.473,3.473,0,0,0,.417.36Zm-8.56,7.119v9.828a.5.5,0,0,1-.494.491H17.617a.494.494,0,0,1-.494-.491V21.208a6.347,6.347,0,0,0,1.546.178,6.49,6.49,0,0,0,3.7-1.222Zm-8.563-.8V29.993a.494.494,0,0,1-.494.491H9.06a.5.5,0,0,1-.494-.491V18.462c.088-.063.17-.132.253-.2l2.128-1.886,1.713,1.905.132.14c.346.346.686.664,1.019.95Z" transform="translate(1154.351 626)" fill="#28d1ba" fill-rule="evenodd"/>
    <g id="Polygon_34" data-name="Polygon 34" transform="translate(1136.35 683) rotate(-90)" fill="none">
      <path d="M56.241,0A12,12,0,0,1,66.5,5.78L80.231,28.43a12,12,0,0,1,0,12.439L66.5,63.52A12,12,0,0,1,56.241,69.3H27.759A12,12,0,0,1,17.5,63.52L3.769,40.87a12,12,0,0,1,0-12.439L17.5,5.78A12,12,0,0,1,27.759,0Z" stroke="none"/>
      <path d="M 27.75911712646484 1 C 25.87182998657227 1 24.00509643554688 1.489570617675781 22.3607177734375 2.415779113769531 C 20.71633911132812 3.341987609863281 19.33013153076172 4.684677124023438 18.35194396972656 6.298679351806641 L 4.624671936035156 28.94868087768555 C 3.582626342773438 30.66803359985352 3.031837463378906 32.63952255249023 3.031837463378906 34.65000152587891 C 3.031837463378906 36.66048049926758 3.582626342773438 38.6319580078125 4.624664306640625 40.35131072998047 L 18.35194396972656 63.00132369995117 C 19.33011627197266 64.61532592773438 20.71632766723633 65.95801544189453 22.3607063293457 66.88422393798828 C 24.00508499145508 67.81043243408203 25.87181854248047 68.30000305175781 27.75910568237305 68.30000305175781 L 56.24088287353516 68.30000305175781 C 58.128173828125 68.30000305175781 59.99490737915039 67.81043243408203 61.6392822265625 66.88422393798828 C 63.28367614746094 65.95801544189453 64.66987609863281 64.61532592773438 65.64805603027344 63.00132369995117 L 79.37534332275391 40.35132598876953 C 80.41737365722656 38.63196563720703 80.96815490722656 36.66048049926758 80.96815490722656 34.65000152587891 C 80.96815490722656 32.63952255249023 80.41737365722656 30.66803359985352 79.37534332275391 28.94868087768555 L 65.64805603027344 6.298679351806641 C 64.66987609863281 4.684677124023438 63.28367614746094 3.341987609863281 61.6392822265625 2.415779113769531 C 59.99490737915039 1.489570617675781 58.128173828125 1 56.24088287353516 1 L 27.75911712646484 1 M 27.75911712646484 0 L 56.24088287353516 0 C 60.43702697753906 0 64.32839965820312 2.19183349609375 66.50325012207031 5.780380249023438 L 80.23053741455078 28.43037796020508 C 82.54736328125 32.25315856933594 82.54736328125 37.04684448242188 80.23053741455078 40.86962127685547 L 66.50325012207031 63.51962280273438 C 64.32839965820312 67.108154296875 60.43702697753906 69.30000305175781 56.24088287353516 69.30000305175781 L 27.75910568237305 69.30000305175781 C 23.56296157836914 69.30000305175781 19.67160797119141 67.108154296875 17.49674224853516 63.51962280273438 L 3.769462585449219 40.86961364746094 C 1.452629089355469 37.04684448242188 1.452629089355469 32.25315856933594 3.76947021484375 28.43037796020508 L 17.49674224853516 5.780380249023438 C 19.67161560058594 2.19183349609375 23.56297302246094 0 27.75911712646484 0 Z" stroke="none" fill="#28d1ba"/>
    </g>
  </g>
</svg>
