<svg xmlns="http://www.w3.org/2000/svg" width="69.3" height="84" viewBox="0 0 69.3 84">
  <g id="icon-7" transform="translate(-1018.051 -464)">
    <g id="Polygon_24" data-name="Polygon 24" transform="translate(1018.051 548) rotate(-90)" fill="none">
      <path d="M56.241,0A12,12,0,0,1,66.5,5.78L80.231,28.43a12,12,0,0,1,0,12.439L66.5,63.52A12,12,0,0,1,56.241,69.3H27.759A12,12,0,0,1,17.5,63.52L3.769,40.87a12,12,0,0,1,0-12.439L17.5,5.78A12,12,0,0,1,27.759,0Z" stroke="none"/>
      <path d="M 27.75911712646484 1 C 25.87182998657227 1 24.00509643554688 1.489570617675781 22.3607177734375 2.415779113769531 C 20.71633911132812 3.341987609863281 19.33013153076172 4.684677124023438 18.35194396972656 6.298679351806641 L 4.624671936035156 28.94868087768555 C 3.582626342773438 30.66803359985352 3.031837463378906 32.63952255249023 3.031837463378906 34.65000152587891 C 3.031837463378906 36.66048049926758 3.582626342773438 38.6319580078125 4.624664306640625 40.35131072998047 L 18.35194396972656 63.00132369995117 C 19.33011627197266 64.61532592773438 20.71632766723633 65.95801544189453 22.3607063293457 66.88422393798828 C 24.00508499145508 67.81043243408203 25.87181854248047 68.30000305175781 27.75910568237305 68.30000305175781 L 56.24088287353516 68.30000305175781 C 58.128173828125 68.30000305175781 59.99490737915039 67.81043243408203 61.6392822265625 66.88422393798828 C 63.28367614746094 65.95801544189453 64.66987609863281 64.61532592773438 65.64805603027344 63.00132369995117 L 79.37534332275391 40.35132598876953 C 80.41737365722656 38.63196563720703 80.96815490722656 36.66048049926758 80.96815490722656 34.65000152587891 C 80.96815490722656 32.63952255249023 80.41737365722656 30.66803359985352 79.37534332275391 28.94868087768555 L 65.64805603027344 6.298679351806641 C 64.66987609863281 4.684677124023438 63.28367614746094 3.341987609863281 61.6392822265625 2.415779113769531 C 59.99490737915039 1.489570617675781 58.128173828125 1 56.24088287353516 1 L 27.75911712646484 1 M 27.75911712646484 0 L 56.24088287353516 0 C 60.43702697753906 0 64.32839965820312 2.19183349609375 66.50325012207031 5.780380249023438 L 80.23053741455078 28.43037796020508 C 82.54736328125 32.25315856933594 82.54736328125 37.04684448242188 80.23053741455078 40.86962127685547 L 66.50325012207031 63.51962280273438 C 64.32839965820312 67.108154296875 60.43702697753906 69.30000305175781 56.24088287353516 69.30000305175781 L 27.75910568237305 69.30000305175781 C 23.56296157836914 69.30000305175781 19.67160797119141 67.108154296875 17.49674224853516 63.51962280273438 L 3.769462585449219 40.86961364746094 C 1.452629089355469 37.04684448242188 1.452629089355469 32.25315856933594 3.76947021484375 28.43037796020508 L 17.49674224853516 5.780380249023438 C 19.67161560058594 2.19183349609375 23.56297302246094 0 27.75911712646484 0 Z" stroke="none" fill="#28d1ba"/>
    </g>
    <path id="distribute" d="M20.732,12.049V8.861A4.5,4.5,0,0,1,18.71,1.328h0a4.486,4.486,0,0,1,6.356,0h0a4.5,4.5,0,0,1-2.172,7.577v3.022l-.069-.032a2.633,2.633,0,0,0-.372-.073,4.373,4.373,0,0,0-.5,0h-.057a2.759,2.759,0,0,0-.4.028,1.552,1.552,0,0,0-.332.073,2.714,2.714,0,0,0-.4.125H20.72ZM13.45,19.132l8.2-4.592.1-.04a.829.829,0,0,1,.263-.04.85.85,0,0,1,.227.028.441.441,0,0,1,.178.081l8.115,4.7a.841.841,0,0,1,.449.4,1.072,1.072,0,0,1,.121.526v9.471a.914.914,0,0,1-.481.748l-8.152,4.737a.809.809,0,0,1-.186.073.87.87,0,0,1-.5,0,.882.882,0,0,1-.227-.1L13.224,30.27a.914.914,0,0,1-.473-.732V20.014a.914.914,0,0,1,.688-.882ZM21.137,32.81V25.4l-6.566-3.9v7.46l6.558,3.855Zm8.16-11.2L22.949,25.4v7.415L29.3,29.076Zm-7.282-5.231-6.194,3.7,6.222,3.746,6.036-3.641Zm.939,24.488a4.523,4.523,0,0,1,2.108,1.189h0a4.487,4.487,0,0,1,0,6.356h0a4.487,4.487,0,0,1-6.356,0h0a4.486,4.486,0,0,1,0-6.356h0a4.487,4.487,0,0,1,2.1-1.189V37.709a2.671,2.671,0,0,0,.267.093h0l.154.04a1.983,1.983,0,0,0,.316.065,3.43,3.43,0,0,0,.51.045,3.386,3.386,0,0,0,.51-.045,2.606,2.606,0,0,0,.4-.089v3.046Zm.583,2.711a2.354,2.354,0,0,0-3.309,0h0a2.359,2.359,0,0,0,0,3.313h0a2.354,2.354,0,0,0,3.309,0h0a2.35,2.35,0,0,0,0-3.313Zm0-40.738a2.355,2.355,0,0,0-3.309,0h0a2.341,2.341,0,1,0,3.313,0ZM39.589,30.525a4.5,4.5,0,0,1,3.18,1.319h0a4.487,4.487,0,0,1,0,6.356h0a4.5,4.5,0,0,1-7.488-4.478L32.646,32.2a3.382,3.382,0,0,0,.587-.728,3.985,3.985,0,0,0,.206-.4,2.609,2.609,0,0,0,.158-.4,3.261,3.261,0,0,0,.093-.368l2.69,1.553.024-.028A4.5,4.5,0,0,1,39.589,30.5Zm1.655,2.832a2.342,2.342,0,1,0,0,3.321h0a2.35,2.35,0,0,0,0-3.313ZM4.267,30.525A4.491,4.491,0,0,1,7.4,31.795l2.767-1.618.024.1.065.247a2.892,2.892,0,0,0,.19.473,1.938,1.938,0,0,0,.162.316,3.6,3.6,0,0,0,.583.724l.024.024L8.543,33.6a4.5,4.5,0,0,1-7.456,4.608h0a4.5,4.5,0,0,1,3.184-7.687Zm1.655,2.832A2.343,2.343,0,0,0,2.608,36.67H2.6a2.344,2.344,0,1,0,3.313-3.317ZM39.589,10.172a4.5,4.5,0,0,1,3.184,7.687h0a4.5,4.5,0,0,1-6.364,0l-.061-.053-2.674,1.537a3.479,3.479,0,0,0-.372-.975,3.588,3.588,0,0,0-.7-.9l2.662-1.537a4.478,4.478,0,0,1,1.137-4.45h0a4.482,4.482,0,0,1,3.18-1.319ZM41.243,13a2.35,2.35,0,0,0-3.309,0h0a2.344,2.344,0,1,0,3.313,3.317h0a2.342,2.342,0,0,0,0-3.313ZM4.267,10.172A4.45,4.45,0,0,1,7.451,11.49h0A4.45,4.45,0,0,1,8.77,14.666a4.58,4.58,0,0,1-.125,1.06l2.662,1.618a2.957,2.957,0,0,0-.336.34,3.423,3.423,0,0,0-.538.833l-.109.243c-.049.142-.093.279-.129.4L7.649,17.619a2.487,2.487,0,0,1-.2.214,4.5,4.5,0,1,1-6.368-6.339h0a4.482,4.482,0,0,1,3.18-1.319ZM5.922,13a2.359,2.359,0,0,0-3.313,0H2.6a2.344,2.344,0,1,0,4,1.655A2.334,2.334,0,0,0,5.918,13Z" transform="translate(1030.744 481.102)" fill="#28d1ba"/>
  </g>
</svg>
