<svg xmlns="http://www.w3.org/2000/svg" width="69.3" height="84" viewBox="0 0 69.3 84">
  <g id="icon-10" transform="translate(-1285.35 -464)">
    <g id="Polygon_25" data-name="Polygon 25" transform="translate(1285.35 548) rotate(-90)" fill="none">
      <path d="M56.241,0A12,12,0,0,1,66.5,5.78L80.231,28.43a12,12,0,0,1,0,12.439L66.5,63.52A12,12,0,0,1,56.241,69.3H27.759A12,12,0,0,1,17.5,63.52L3.769,40.87a12,12,0,0,1,0-12.439L17.5,5.78A12,12,0,0,1,27.759,0Z" stroke="none"/>
      <path d="M 27.75911712646484 1 C 25.87182998657227 1 24.00509643554688 1.489570617675781 22.3607177734375 2.415779113769531 C 20.71633911132812 3.341987609863281 19.33013153076172 4.684677124023438 18.35194396972656 6.298679351806641 L 4.624671936035156 28.94868087768555 C 3.582626342773438 30.66803359985352 3.031837463378906 32.63952255249023 3.031837463378906 34.65000152587891 C 3.031837463378906 36.66048049926758 3.582626342773438 38.6319580078125 4.624664306640625 40.35131072998047 L 18.35194396972656 63.00132369995117 C 19.33011627197266 64.61532592773438 20.71632766723633 65.95801544189453 22.3607063293457 66.88422393798828 C 24.00508499145508 67.81043243408203 25.87181854248047 68.30000305175781 27.75910568237305 68.30000305175781 L 56.24088287353516 68.30000305175781 C 58.128173828125 68.30000305175781 59.99490737915039 67.81043243408203 61.6392822265625 66.88422393798828 C 63.28367614746094 65.95801544189453 64.66987609863281 64.61532592773438 65.64805603027344 63.00132369995117 L 79.37534332275391 40.35132598876953 C 80.41737365722656 38.63196563720703 80.96815490722656 36.66048049926758 80.96815490722656 34.65000152587891 C 80.96815490722656 32.63952255249023 80.41737365722656 30.66803359985352 79.37534332275391 28.94868087768555 L 65.64805603027344 6.298679351806641 C 64.66987609863281 4.684677124023438 63.28367614746094 3.341987609863281 61.6392822265625 2.415779113769531 C 59.99490737915039 1.489570617675781 58.128173828125 1 56.24088287353516 1 L 27.75911712646484 1 M 27.75911712646484 0 L 56.24088287353516 0 C 60.43702697753906 0 64.32839965820312 2.19183349609375 66.50325012207031 5.780380249023438 L 80.23053741455078 28.43037796020508 C 82.54736328125 32.25315856933594 82.54736328125 37.04684448242188 80.23053741455078 40.86962127685547 L 66.50325012207031 63.51962280273438 C 64.32839965820312 67.108154296875 60.43702697753906 69.30000305175781 56.24088287353516 69.30000305175781 L 27.75910568237305 69.30000305175781 C 23.56296157836914 69.30000305175781 19.67160797119141 67.108154296875 17.49674224853516 63.51962280273438 L 3.769462585449219 40.86961364746094 C 1.452629089355469 37.04684448242188 1.452629089355469 32.25315856933594 3.76947021484375 28.43037796020508 L 17.49674224853516 5.780380249023438 C 19.67161560058594 2.19183349609375 23.56297302246094 0 27.75911712646484 0 Z" stroke="none" fill="#28d1ba"/>
    </g>
    <path id="cash-flow" d="M.676,14.715a.661.661,0,0,0-.569.264c-.284.417.043.833.311,1.137.764.873,2.942,3.752,3.352,4.238a.661.661,0,0,0,1.038,0c.4-.466,2.532-3.21,3.349-4.093.284-.331.707-.76.407-1.217A.678.678,0,0,0,8,14.771l-2.053-.017a14.711,14.711,0,0,1,27.988-2.678l2.913-1.21A17.852,17.852,0,0,0,2.736,14.734l-2.06-.02Zm17.945-4.552V8.44h2.9v1.686a23.773,23.773,0,0,1,3.937.545v3.091q-1.041-.079-2.344-.129t-2.367-.05a7.273,7.273,0,0,0-1.134.079c-1.521.245-1.537,2.241.43,2.241H21.52a5.848,5.848,0,0,1,2.645.532,3.7,3.7,0,0,1,1.584,1.441,4,4,0,0,1,.536,2.073v.661a4.792,4.792,0,0,1-.75,2.9A3.653,3.653,0,0,1,23.4,24.864a8.989,8.989,0,0,1-1.881.331v1.868h-2.9V25.181a20.87,20.87,0,0,1-3.944-.552V21.545c1.716.136,3.468.182,5.187.182a6.235,6.235,0,0,0,1.246-.1c1.534-.307,1.286-2.04-.182-2.04h-1.2a6.568,6.568,0,0,1-3.987-1.022,4.013,4.013,0,0,1-1.359-3.425v-.661a3.846,3.846,0,0,1,1.494-3.306,5.29,5.29,0,0,1,2.744-1.022ZM37.994,20.44A17.852,17.852,0,0,1,3.4,23.386l2.975-.992a14.715,14.715,0,0,0,28.4-1.888l-2.149.046a.661.661,0,0,1-.559-.255c-.331-.446.1-.906.37-1.227.79-.909,2.837-3.716,3.223-4.2a.662.662,0,0,1,1.038-.02c.426.473,2.691,3.286,3.481,4.136.274.294.615.7.331,1.124a.661.661,0,0,1-.562.284l-1.967.04Z" transform="translate(1300.353 488.184)" fill="#28d1ba"/>
  </g>
</svg>
