<svg xmlns="http://www.w3.org/2000/svg" width="69.3" height="84" viewBox="0 0 69.3 84">
  <g id="icon-8" transform="translate(-1107.051 -462.092)">
    <g id="Polygon_4" data-name="Polygon 4" transform="translate(1107.051 546.092) rotate(-90)" fill="none">
      <path d="M56.241,0A12,12,0,0,1,66.5,5.78L80.231,28.43a12,12,0,0,1,0,12.439L66.5,63.52A12,12,0,0,1,56.241,69.3H27.759A12,12,0,0,1,17.5,63.52L3.769,40.87a12,12,0,0,1,0-12.439L17.5,5.78A12,12,0,0,1,27.759,0Z" stroke="none"/>
      <path d="M 27.75911712646484 1 C 25.87182998657227 1 24.00509643554688 1.489570617675781 22.3607177734375 2.415779113769531 C 20.71633911132812 3.341987609863281 19.33013153076172 4.684677124023438 18.35194396972656 6.298679351806641 L 4.624671936035156 28.94868087768555 C 3.582626342773438 30.66803359985352 3.031837463378906 32.63952255249023 3.031837463378906 34.65000152587891 C 3.031837463378906 36.66048049926758 3.582626342773438 38.6319580078125 4.624664306640625 40.35131072998047 L 18.35194396972656 63.00132369995117 C 19.33011627197266 64.61532592773438 20.71632766723633 65.95801544189453 22.3607063293457 66.88422393798828 C 24.00508499145508 67.81043243408203 25.87181854248047 68.30000305175781 27.75910568237305 68.30000305175781 L 56.24088287353516 68.30000305175781 C 58.128173828125 68.30000305175781 59.99490737915039 67.81043243408203 61.6392822265625 66.88422393798828 C 63.28367614746094 65.95801544189453 64.66987609863281 64.61532592773438 65.64805603027344 63.00132369995117 L 79.37534332275391 40.35132598876953 C 80.41737365722656 38.63196563720703 80.96815490722656 36.66048049926758 80.96815490722656 34.65000152587891 C 80.96815490722656 32.63952255249023 80.41737365722656 30.66803359985352 79.37534332275391 28.94868087768555 L 65.64805603027344 6.298679351806641 C 64.66987609863281 4.684677124023438 63.28367614746094 3.341987609863281 61.6392822265625 2.415779113769531 C 59.99490737915039 1.489570617675781 58.128173828125 1 56.24088287353516 1 L 27.75911712646484 1 M 27.75911712646484 0 L 56.24088287353516 0 C 60.43702697753906 0 64.32839965820312 2.19183349609375 66.50325012207031 5.780380249023438 L 80.23053741455078 28.43037796020508 C 82.54736328125 32.25315856933594 82.54736328125 37.04684448242188 80.23053741455078 40.86962127685547 L 66.50325012207031 63.51962280273438 C 64.32839965820312 67.108154296875 60.43702697753906 69.30000305175781 56.24088287353516 69.30000305175781 L 27.75910568237305 69.30000305175781 C 23.56296157836914 69.30000305175781 19.67160797119141 67.108154296875 17.49674224853516 63.51962280273438 L 3.769462585449219 40.86961364746094 C 1.452629089355469 37.04684448242188 1.452629089355469 32.25315856933594 3.76947021484375 28.43037796020508 L 17.49674224853516 5.780380249023438 C 19.67161560058594 2.19183349609375 23.56297302246094 0 27.75911712646484 0 Z" stroke="none" fill="#28d1ba"/>
    </g>
    <path id="Icon_metro-bitcoin" data-name="Icon metro-bitcoin" d="M27.074,13.221a4.081,4.081,0,0,1-2.255,4.441,5.17,5.17,0,0,1,3.013,1.773,5.1,5.1,0,0,1,.775,3.684,6.508,6.508,0,0,1-.559,2.152,4.75,4.75,0,0,1-1.11,1.532,5.651,5.651,0,0,1-1.67,1.007,10.174,10.174,0,0,1-2.092.594,20.742,20.742,0,0,1-2.5.258v4.39H18.019V28.731q-1.377,0-2.1-.017v4.338H13.267v-4.39q-.31,0-.93-.009t-.947-.009H7.948l.534-3.15h1.911a.92.92,0,0,0,1-.878V17.7h.275a1.751,1.751,0,0,0-.275-.017V12.739a1.367,1.367,0,0,0-1.532-1.171H7.948V8.745l3.649.017q1.1,0,1.67-.017V4.407h2.651V8.659q1.412-.034,2.1-.034V4.407H20.67V8.745a15.358,15.358,0,0,1,2.41.387,7.828,7.828,0,0,1,1.945.775,3.944,3.944,0,0,1,1.42,1.343,4.393,4.393,0,0,1,.628,1.971Zm-3.7,9.382a2.3,2.3,0,0,0-.258-1.1,2.581,2.581,0,0,0-.637-.792,3.269,3.269,0,0,0-.99-.525,8.357,8.357,0,0,0-1.128-.318,10.179,10.179,0,0,0-1.274-.155q-.757-.052-1.188-.052t-1.11.017q-.68.017-.818.017v5.819q.138,0,.637.009t.826.009q.327,0,.912-.026t1.007-.069q.422-.043.981-.146a6.589,6.589,0,0,0,.955-.241,5.85,5.85,0,0,0,.818-.362,2.386,2.386,0,0,0,.68-.516,2.433,2.433,0,0,0,.422-.689,2.282,2.282,0,0,0,.164-.878ZM22.15,14.409a2.259,2.259,0,0,0-.215-1.007,2.4,2.4,0,0,0-.525-.723,2.574,2.574,0,0,0-.826-.482,5.917,5.917,0,0,0-.947-.284,9.478,9.478,0,0,0-1.059-.138q-.628-.052-1-.043t-.93.017q-.559.009-.68.009v5.285l.594.009q.508.009.8,0t.861-.034a7.28,7.28,0,0,0,.947-.095q.379-.069.887-.189a2.919,2.919,0,0,0,.835-.318,4.727,4.727,0,0,0,.637-.465A1.656,1.656,0,0,0,22,15.287a2.387,2.387,0,0,0,.155-.878Z" transform="translate(1123.253 486.24)" fill="#28d1ba"/>
  </g>
</svg>
