<svg width="27" height="27" viewBox="0 0 27 27" fill="none" xmlns="http://www.w3.org/2000/svg">
<path d="M18.0658 13.3748L25.0998 6.33876C25.5145 5.92394 25.7475 5.36136 25.7475 4.77476C25.7475 4.18816 25.5145 3.62558 25.0998 3.21076L23.5388 1.64776C23.1239 1.233 22.5614 1 21.9748 1C21.3882 1 20.8256 1.233 20.4108 1.64776L13.3748 8.68376L6.33876 1.64776C5.92394 1.233 5.36136 1 4.77476 1C4.18816 1 3.62558 1.233 3.21076 1.64776L1.64776 3.21076C1.233 3.62558 1 4.18816 1 4.77476C1 5.36136 1.233 5.92394 1.64776 6.33876L8.68376 13.3748L1.64776 20.4108C1.233 20.8256 1 21.3882 1 21.9748C1 22.5614 1.233 23.1239 1.64776 23.5388L3.21176 25.1028C3.62658 25.5175 4.18916 25.7505 4.77576 25.7505C5.36236 25.7505 5.92494 25.5175 6.33976 25.1028L13.3758 18.0668L20.4118 25.1028C20.8266 25.5175 21.3892 25.7505 21.9758 25.7505C22.5624 25.7505 23.1249 25.5175 23.5398 25.1028L25.0998 23.5388C25.5145 23.1239 25.7475 22.5614 25.7475 21.9748C25.7475 21.3882 25.5145 20.8256 25.0998 20.4108L18.0658 13.3748Z" stroke="#FF4874" stroke-width="2"/>
</svg>
