<svg xmlns="http://www.w3.org/2000/svg" width="69.3" height="84" viewBox="0 0 69.3 84">
  <g id="icon-15" transform="translate(-781.351 -601)">
    <g id="Polygon_27" data-name="Polygon 27" transform="translate(781.351 685) rotate(-90)" fill="none">
      <path d="M56.241,0A12,12,0,0,1,66.5,5.78L80.231,28.43a12,12,0,0,1,0,12.439L66.5,63.52A12,12,0,0,1,56.241,69.3H27.759A12,12,0,0,1,17.5,63.52L3.769,40.87a12,12,0,0,1,0-12.439L17.5,5.78A12,12,0,0,1,27.759,0Z" stroke="none"/>
      <path d="M 27.75911712646484 1 C 25.87182998657227 1 24.00509643554688 1.489570617675781 22.3607177734375 2.415779113769531 C 20.71633911132812 3.341987609863281 19.33013153076172 4.684677124023438 18.35194396972656 6.298679351806641 L 4.624671936035156 28.94868087768555 C 3.582626342773438 30.66803359985352 3.031837463378906 32.63952255249023 3.031837463378906 34.65000152587891 C 3.031837463378906 36.66048049926758 3.582626342773438 38.6319580078125 4.624664306640625 40.35131072998047 L 18.35194396972656 63.00132369995117 C 19.33011627197266 64.61532592773438 20.71632766723633 65.95801544189453 22.3607063293457 66.88422393798828 C 24.00508499145508 67.81043243408203 25.87181854248047 68.30000305175781 27.75910568237305 68.30000305175781 L 56.24088287353516 68.30000305175781 C 58.128173828125 68.30000305175781 59.99490737915039 67.81043243408203 61.6392822265625 66.88422393798828 C 63.28367614746094 65.95801544189453 64.66987609863281 64.61532592773438 65.64805603027344 63.00132369995117 L 79.37534332275391 40.35132598876953 C 80.41737365722656 38.63196563720703 80.96815490722656 36.66048049926758 80.96815490722656 34.65000152587891 C 80.96815490722656 32.63952255249023 80.41737365722656 30.66803359985352 79.37534332275391 28.94868087768555 L 65.64805603027344 6.298679351806641 C 64.66987609863281 4.684677124023438 63.28367614746094 3.341987609863281 61.6392822265625 2.415779113769531 C 59.99490737915039 1.489570617675781 58.128173828125 1 56.24088287353516 1 L 27.75911712646484 1 M 27.75911712646484 0 L 56.24088287353516 0 C 60.43702697753906 0 64.32839965820312 2.19183349609375 66.50325012207031 5.780380249023438 L 80.23053741455078 28.43037796020508 C 82.54736328125 32.25315856933594 82.54736328125 37.04684448242188 80.23053741455078 40.86962127685547 L 66.50325012207031 63.51962280273438 C 64.32839965820312 67.108154296875 60.43702697753906 69.30000305175781 56.24088287353516 69.30000305175781 L 27.75910568237305 69.30000305175781 C 23.56296157836914 69.30000305175781 19.67160797119141 67.108154296875 17.49674224853516 63.51962280273438 L 3.769462585449219 40.86961364746094 C 1.452629089355469 37.04684448242188 1.452629089355469 32.25315856933594 3.76947021484375 28.43037796020508 L 17.49674224853516 5.780380249023438 C 19.67161560058594 2.19183349609375 23.56297302246094 0 27.75911712646484 0 Z" stroke="none" fill="#28d1ba"/>
    </g>
    <path id="privacy" d="M14.918,0C20.5,3.539,25.546,5.214,29.876,4.818a41.029,41.029,0,0,1-1.1,12.511,6.088,6.088,0,0,0-2.037-.45A35.129,35.129,0,0,0,27.589,6.6c-3.665.335-7.936-1.082-12.662-4.079A18.1,18.1,0,0,1,2.313,6.406C2.122,13.673,3.4,19.145,5.866,23.125c1.824-1.525,4.929-1.295,6.4-3.317.106-.156.155-.24.154-.309,0-.036-1.6-1.992-1.739-2.22-.376-.6-1.08-1.409-1.08-2.109a1.13,1.13,0,0,1,.758-1.026c-.035-.592-.058-1.193-.058-1.789,0-.351.006-.707.019-1.056a2.483,2.483,0,0,1,.119-.531,3.761,3.761,0,0,1,1.679-2.132,4.694,4.694,0,0,1,.912-.435c.576-.21.3-1.12.929-1.134a8.287,8.287,0,0,1,4.854,2.28,3.446,3.446,0,0,1,.968,2.308l-.06,2.588a.849.849,0,0,1,.621.532c.2.817-.645,1.833-1.04,2.483-.363.6-1.752,2.235-1.753,2.249a.519.519,0,0,0,.125.3,5.323,5.323,0,0,0,2.782,1.751,6.531,6.531,0,0,0-.227,1.333,2.345,2.345,0,0,0-.315.264l-.006.006a2.387,2.387,0,0,0-.7,1.687v5.988a23.944,23.944,0,0,1-4.229,2.073C5.312,29.383-.405,20.74.019,4.586A21.384,21.384,0,0,0,14.918,0Zm6.79,24.131h.249v-.768a4.767,4.767,0,0,1,1.32-3.3,4.395,4.395,0,0,1,6.41,0,4.764,4.764,0,0,1,1.321,3.3v.768h.249A.741.741,0,0,1,32,24.87v7.3a.741.741,0,0,1-.738.739h-9.55a.74.74,0,0,1-.738-.739v-7.3A.74.74,0,0,1,21.708,24.131Zm4.19,4.722-.769,2.014h2.707l-.712-2.041a1.4,1.4,0,1,0-1.227.028Zm-2.543-4.722H29.61v-.768a3.366,3.366,0,0,0-.927-2.335,3.007,3.007,0,0,0-4.4,0,3.364,3.364,0,0,0-.928,2.335v.768Z" transform="translate(800.354 627)" fill="#28d1ba" fill-rule="evenodd"/>
  </g>
</svg>
