<svg xmlns="http://www.w3.org/2000/svg" width="69.3" height="84" viewBox="0 0 69.3 84">
  <g id="icon-14" transform="translate(-690.351 -601.488)">
    <g id="Polygon_28" data-name="Polygon 28" transform="translate(690.351 685.488) rotate(-90)" fill="none">
      <path d="M56.241,0A12,12,0,0,1,66.5,5.78L80.231,28.43a12,12,0,0,1,0,12.439L66.5,63.52A12,12,0,0,1,56.241,69.3H27.759A12,12,0,0,1,17.5,63.52L3.769,40.87a12,12,0,0,1,0-12.439L17.5,5.78A12,12,0,0,1,27.759,0Z" stroke="none"/>
      <path d="M 27.75911712646484 1 C 25.87182998657227 1 24.00509643554688 1.489570617675781 22.3607177734375 2.415779113769531 C 20.71633911132812 3.341987609863281 19.33013153076172 4.684677124023438 18.35194396972656 6.298679351806641 L 4.624671936035156 28.94868087768555 C 3.582626342773438 30.66803359985352 3.031837463378906 32.63952255249023 3.031837463378906 34.65000152587891 C 3.031837463378906 36.66048049926758 3.582626342773438 38.6319580078125 4.624664306640625 40.35131072998047 L 18.35194396972656 63.00132369995117 C 19.33011627197266 64.61532592773438 20.71632766723633 65.95801544189453 22.3607063293457 66.88422393798828 C 24.00508499145508 67.81043243408203 25.87181854248047 68.30000305175781 27.75910568237305 68.30000305175781 L 56.24088287353516 68.30000305175781 C 58.128173828125 68.30000305175781 59.99490737915039 67.81043243408203 61.6392822265625 66.88422393798828 C 63.28367614746094 65.95801544189453 64.66987609863281 64.61532592773438 65.64805603027344 63.00132369995117 L 79.37534332275391 40.35132598876953 C 80.41737365722656 38.63196563720703 80.96815490722656 36.66048049926758 80.96815490722656 34.65000152587891 C 80.96815490722656 32.63952255249023 80.41737365722656 30.66803359985352 79.37534332275391 28.94868087768555 L 65.64805603027344 6.298679351806641 C 64.66987609863281 4.684677124023438 63.28367614746094 3.341987609863281 61.6392822265625 2.415779113769531 C 59.99490737915039 1.489570617675781 58.128173828125 1 56.24088287353516 1 L 27.75911712646484 1 M 27.75911712646484 0 L 56.24088287353516 0 C 60.43702697753906 0 64.32839965820312 2.19183349609375 66.50325012207031 5.780380249023438 L 80.23053741455078 28.43037796020508 C 82.54736328125 32.25315856933594 82.54736328125 37.04684448242188 80.23053741455078 40.86962127685547 L 66.50325012207031 63.51962280273438 C 64.32839965820312 67.108154296875 60.43702697753906 69.30000305175781 56.24088287353516 69.30000305175781 L 27.75910568237305 69.30000305175781 C 23.56296157836914 69.30000305175781 19.67160797119141 67.108154296875 17.49674224853516 63.51962280273438 L 3.769462585449219 40.86961364746094 C 1.452629089355469 37.04684448242188 1.452629089355469 32.25315856933594 3.76947021484375 28.43037796020508 L 17.49674224853516 5.780380249023438 C 19.67161560058594 2.19183349609375 23.56297302246094 0 27.75911712646484 0 Z" stroke="none" fill="#28d1ba"/>
    </g>
    <path id="money-transactions" d="M35.451,9.841,22.921,22.947,15.978,16.5l.718-1.006,5.085,4.7.064.06a1.189,1.189,0,0,0,1.679-.079l.408-.464h0l1.933-2.135,8.536-8.7Zm.52,6.529V13.835a.374.374,0,0,1,0-.064c.045-1.122.8-1.5,1.81-1.17a.55.55,0,0,1,.153.082c2.558,2.008,4.939,4.012,7.478,6.02l.034.034a1.185,1.185,0,0,1,.452,1.189,1.679,1.679,0,0,1-.654.916l-6.873,5.564c-1.211.953-2.475.774-2.475-.98V23.074H26.137l6.424-6.73ZM11.416,12.362c0,.613.056,1.369,0,1.967a2.617,2.617,0,0,1-.127.673,1.8,1.8,0,0,1-.714.957,1.87,1.87,0,0,1-1.122.288,2.916,2.916,0,0,1-.793-.168h0A1.335,1.335,0,0,1,8.47,16a1.72,1.72,0,0,1-.172-.112h0c-1.23-.965-2.505-2-3.784-3.04C3.325,11.876,2.132,10.907.8,9.853L.73,9.785A2.18,2.18,0,0,1,.1,8.929L.079,8.854a1.8,1.8,0,0,1-.034-.924,2.03,2.03,0,0,1,.374-.767A3.059,3.059,0,0,1,.976,6.6c2.311-1.739,4.565-3.765,6.876-5.56A3.036,3.036,0,0,1,9.662.31a1.772,1.772,0,0,1,.748.157,1.66,1.66,0,0,1,.613.482,2.569,2.569,0,0,1,.471,1.619h0V4.2H20.8l-1.38,1.443H10.754a.718.718,0,0,1-.71-.729c0-.538,0-1.084,0-1.623V2.569h0a1.2,1.2,0,0,0-.165-.729A.251.251,0,0,0,9.8,1.772a.344.344,0,0,0-.138-.022,1.634,1.634,0,0,0-.924.423L1.87,7.733a1.522,1.522,0,0,0-.292.288.587.587,0,0,0-.112.221.374.374,0,0,0,0,.172v.034a.838.838,0,0,0,.224.3C2.9,9.7,4.162,10.716,5.43,11.737s2.4,1.956,3.739,2.991a1.514,1.514,0,0,0,.351.067.475.475,0,0,0,.28-.06.374.374,0,0,0,.142-.206A1.238,1.238,0,0,0,10,14.242V11.625a.718.718,0,0,1,.7-.707h3.683L13.058,12.3l-.052.06ZM35.107,6.45,22.581,19.556l-6.944-6.45L28.167,0ZM27.2,9.217a2.154,2.154,0,1,1-2.756-1.3,2.154,2.154,0,0,1,2.756,1.3Zm4.779-1.5-8.372,8.608a1.4,1.4,0,0,0-1.978.075l-2.745-2.546a1.4,1.4,0,0,0-.075-1.978L27.18,3.246a1.4,1.4,0,0,0,1.985-.075l2.748,2.55A1.406,1.406,0,0,0,31.985,7.7Z" transform="translate(702.35 630.488)" fill="#28d1ba" fill-rule="evenodd"/>
  </g>
</svg>
