<svg xmlns="http://www.w3.org/2000/svg" width="30.877" height="36.743" viewBox="0 0 30.877 36.743">
  <path id="ic_apple" d="M26.143-14.708a7.658,7.658,0,0,1,4.1-6.956A8.814,8.814,0,0,0,23.3-25.323c-2.912-.23-6.095,1.7-7.26,1.7-1.23,0-4.052-1.616-6.267-1.616C5.193-25.167.328-21.591.328-14.314A20.445,20.445,0,0,0,1.509-7.653C2.559-4.643,6.349,2.74,10.3,2.617c2.067-.049,3.527-1.468,6.218-1.468,2.609,0,3.962,1.468,6.267,1.468C26.775,2.559,30.2-4.151,31.2-7.17A8.132,8.132,0,0,1,26.143-14.708ZM21.5-28.178a7.726,7.726,0,0,0,1.969-5.947,8.7,8.7,0,0,0-5.57,2.863,7.847,7.847,0,0,0-2.1,5.9C17.94-25.2,19.893-26.3,21.5-28.178Z" transform="translate(-0.328 34.125)" fill="#fff"/>
</svg>
