<?xml version="1.0" encoding="UTF-8" standalone="no"?>
<svg
   width="112"
   height="127"
   viewBox="0 0 112 127"
   fill="none"
   version="1.1"
   id="svg1383"
   sodipodi:docname="hydranet-logo.svg"
   inkscape:version="1.1.2 (0a00cf5339, 2022-02-04, custom)"
   xmlns:inkscape="http://www.inkscape.org/namespaces/inkscape"
   xmlns:sodipodi="http://sodipodi.sourceforge.net/DTD/sodipodi-0.dtd"
   xmlns="http://www.w3.org/2000/svg"
   xmlns:svg="http://www.w3.org/2000/svg">
  <sodipodi:namedview
     id="namedview1385"
     pagecolor="#ffffff"
     bordercolor="#666666"
     borderopacity="1.0"
     inkscape:pageshadow="2"
     inkscape:pageopacity="0.0"
     inkscape:pagecheckerboard="0"
     showgrid="false"
     inkscape:zoom="8.0064532"
     inkscape:cx="15.674856"
     inkscape:cy="60.701036"
     inkscape:window-width="2560"
     inkscape:window-height="1377"
     inkscape:window-x="-8"
     inkscape:window-y="-8"
     inkscape:window-maximized="1"
     inkscape:current-layer="svg1383" />
  <path
     fill="url(#gradient-fill)"
     d="m 56.308632,127.74811 c -1.360431,-10e-4 -2.696078,-0.35958 -3.87367,-1.04117 L 3.8174978,98.648304 C 2.6439491,97.967225 1.6695843,96.989945 0.99236504,95.814182 0.31392686,94.63852 -0.04411866,93.305413 -0.0472178,91.948029 L -0.03829012,35.80892 C -0.03861111,34.452044 0.31688278,33.119343 0.9933605,31.943174 1.670336,30.767512 2.644782,29.790435 3.8184933,29.110067 L 52.435978,1.0378414 c 1.179826,-0.6747712 2.514559,-1.03058709 3.87367,-1.03214936 1.356368,0.00245514 2.689476,0.35826188 3.866661,1.03214936 L 108.79328,29.110067 c 1.17322,0.679454 2.1504,1.652773 2.83402,2.824676 0.67143,1.180435 1.02796,2.51466 1.03304,3.873162 l -0.009,56.139108 c 0.004,1.354235 -0.34943,2.685514 -1.0239,3.859753 -0.68261,1.174443 -1.65978,2.150809 -2.83402,2.833107 L 60.176309,126.70795 c -1.175357,0.68058 -2.509683,1.03915 -3.867677,1.04016 z M 56.34134,13.558505 c -1.358908,3.05e-4 -2.693742,0.356132 -3.872654,1.032132 L 15.456273,35.959154 c -1.176373,0.675086 -2.151723,1.651757 -2.825082,2.829145 -0.678438,1.173935 -1.039243,2.503893 -1.048588,3.859753 l -0.07436,42.551045 c 0.0035,1.361651 0.358976,2.699329 1.03264,3.882609 0.685752,1.178404 1.665571,2.158224 2.843976,2.843975 l 36.889402,21.203349 c 1.171904,0.67143 2.499221,1.02391 3.849901,1.02391 1.360635,0.003 2.698008,-0.35654 3.873568,-1.04118 L 97.010148,91.752085 c 1.170583,-0.68047 2.144105,-1.654296 2.824168,-2.825184 0.677524,-1.174239 1.038934,-2.503994 1.048084,-3.859753 l 0.0173,-12.687271 0.0579,-29.855343 c -0.004,-1.36419 -0.35907,-2.704408 -1.032941,-3.890532 -0.69144,-1.176575 -1.675932,-2.15416 -2.856876,-2.837982 L 60.186263,14.59663 c -1.168957,-0.679352 -2.496884,-1.037414 -3.848884,-1.038125 z m -0.09122,85.984496 c -1.35454,-0.0022 -2.684904,-0.358062 -3.859753,-1.032132 L 49.98582,97.119152 V 70.166801 l 13.092059,-3.300263 v 20.188589 l 13.52346,-7.727938 V 38.715366 l 7.747339,4.469322 c 1.179014,0.673867 2.155075,1.652874 2.825082,2.834021 0.685447,1.174341 1.046454,2.50948 1.047572,3.8692 l -0.0079,27.943852 c -0.0026,1.3584 -0.360703,2.692523 -1.039649,3.8692 -0.681892,1.172817 -1.658969,2.146441 -2.834021,2.824574 l -24.218993,13.98828 c -1.174748,0.674375 -2.505112,1.030202 -3.859754,1.032132 z M 36.442451,89.314319 28.173408,84.539959 C 26.999575,83.857255 26.023615,82.880889 25.341317,81.706852 24.661863,80.531597 24.302786,79.198185 24.300754,77.8407 l 0.01686,-27.946798 c 0.0024,-1.354641 0.358163,-2.685514 1.03264,-3.860261 0.681993,-1.17749 1.658258,-2.15731 2.833005,-2.843976 L 52.409162,29.213778 c 1.171801,-0.682095 2.503893,-1.03975 3.859753,-1.036094 1.359518,-0.0041 2.696383,0.351663 3.87367,1.031625 l 2.932246,1.685379 v 22.85399 L 49.982874,56.834714 V 41.166032 l -13.537477,7.735353 z"
     id="path1374"
     style="fill:url(#gradient-fill);stroke:#969696;stroke-width:0.3;stroke-opacity:1;stroke-miterlimit:4;stroke-dasharray:none" />
  <defs
     id="defs1381">
    <linearGradient
       id="gradient-fill"
       gradientUnits="userSpaceOnUse"
       gradientTransform="matrix(0.71826358,0.71826358,-0.71826358,0.71826358,-0.88840901,-1.0078544)">
      <stop
         offset="15%"
         stop-color="#26b6d4"
         id="stop1376"
         style="stop-color:#ececec;stop-opacity:1" />
      <stop
         offset="65%"
         stop-color="#1356de"
         id="stop1378"
         style="stop-color:#808080;stop-opacity:1" />
    </linearGradient>
  </defs>
</svg>
