<svg xmlns="http://www.w3.org/2000/svg" width="34.687" height="42.004" viewBox="0 0 34.687 42.004">
  <path id="ic_linux"  d="M18.112-26.636c.082.041.148.139.246.139s.23-.033.238-.123c.016-.115-.156-.189-.263-.238a.542.542,0,0,0-.451-.008c-.033.016-.066.057-.049.09C17.858-26.668,18.022-26.685,18.112-26.636Zm-1.8.139c.1,0,.164-.1.246-.139s.254-.033.287-.131c.016-.033-.016-.074-.049-.09a.542.542,0,0,0-.451.008c-.107.049-.279.123-.263.238C16.095-26.529,16.234-26.488,16.316-26.5ZM34.453-3.626a4,4,0,0,1-.591-1.616A3.177,3.177,0,0,0,33-7.079a2.211,2.211,0,0,0-.328-.238,1.822,1.822,0,0,0-.336-.164,9.5,9.5,0,0,0-.3-6.489,21.886,21.886,0,0,0-3.814-6.1c-1.4-1.764-2.764-3.437-2.74-5.906.041-3.765.418-10.763-6.218-10.771-8.4-.016-6.3,8.482-6.39,11.091a9.514,9.514,0,0,1-1.846,5.307A26.2,26.2,0,0,0,6.259-12.42,9.431,9.431,0,0,0,5.75-8.047c-.533.476-.935,1.206-1.362,1.657a3.522,3.522,0,0,1-1.395.681A2.538,2.538,0,0,0,1.477-4.52,2.1,2.1,0,0,0,1.247-3.5a6.446,6.446,0,0,0,.1.968A4.249,4.249,0,0,1,1.411-.828a3.32,3.32,0,0,0-.18,2.6A2.2,2.2,0,0,0,2.879,2.781C4.3,3.076,6.226,3,7.744,3.806a6.873,6.873,0,0,0,4.585.853A2.973,2.973,0,0,0,14.454,3c1.025-.008,2.157-.443,3.962-.541,1.222-.1,2.756.435,4.52.336a2.608,2.608,0,0,0,.205.55v.008a3.29,3.29,0,0,0,3.306,1.887,5.979,5.979,0,0,0,3.962-2.289c1.116-1.345,2.953-1.9,4.175-2.641a1.984,1.984,0,0,0,1.14-1.5A3.7,3.7,0,0,0,34.453-3.626ZM18.35-29.589a1.885,1.885,0,0,1,3.609-.033,3.265,3.265,0,0,1-.353,3.314,10.155,10.155,0,0,0-1.034-.4,1.466,1.466,0,0,0,.32-.377c.394-.968-.016-2.215-.747-2.239-.6-.041-1.14.886-.968,1.887a5.844,5.844,0,0,0-1.066-.361A3.268,3.268,0,0,1,18.35-29.589Zm-3.339-.943c.828,0,1.706,1.165,1.567,2.748a2.949,2.949,0,0,0-.837.377c.1-.73-.271-1.649-.788-1.608-.689.057-.8,1.739-.148,2.305.082.066.156-.016-.484.451C13.043-27.456,13.461-30.532,15.012-30.532ZM13.9-25.553c.509-.377,1.116-.82,1.157-.861a3.273,3.273,0,0,1,2.289-1.165,3.946,3.946,0,0,1,2.125.73,13.746,13.746,0,0,0,1.854.763c.689.287,1.124.8.861,1.493a2.853,2.853,0,0,1-1.862,1.485c-.911.3-1.624,1.313-3.134,1.222a2.283,2.283,0,0,1-.787-.172c-.656-.287-1-.853-1.641-1.23a2.387,2.387,0,0,1-1.206-1.255A.883.883,0,0,1,13.9-25.553Zm.271,27.4c-.222,2.879-3.6,2.822-6.177,1.477-2.453-1.3-5.627-.533-6.275-1.8A2.861,2.861,0,0,1,1.928-.64V-.656a4.407,4.407,0,0,0-.049-1.961,2.762,2.762,0,0,1,.074-1.641,1.878,1.878,0,0,1,1.214-.927A3.687,3.687,0,0,0,4.774-6c.451-.468.779-1.058,1.173-1.477A1.484,1.484,0,0,1,7.4-8.039,2.868,2.868,0,0,1,9.2-6.727L10.8-3.806C11.583-2.174,14.339.164,14.167,1.846ZM14.052-.279a17.608,17.608,0,0,0-1.181-1.608,1.335,1.335,0,0,0,1.37-.73,2.3,2.3,0,0,0-.607-2.043,12.057,12.057,0,0,0-3.142-2.666A4.434,4.434,0,0,1,8.474-9.778a5.554,5.554,0,0,1-.025-2.888,17.059,17.059,0,0,1,2.231-4.856c.189-.139.066.262-.714,1.706-.7,1.321-2,4.372-.213,6.759A14.167,14.167,0,0,1,10.886-14.1c.984-2.248,3.06-6.144,3.224-9.245.09.066.377.262.509.336a9.543,9.543,0,0,1,1.034.845,3,3,0,0,0,3.478.1,9.052,9.052,0,0,1,1.3-.738,3.5,3.5,0,0,0,1.829-1.23,42.366,42.366,0,0,0,3.051,7.85,18.457,18.457,0,0,1,1.936,5.3,3.263,3.263,0,0,1,.894.115c1.132-2.929-.96-6.087-1.911-6.964-.386-.377-.4-.541-.213-.533a10.122,10.122,0,0,1,2.888,4.84,6.2,6.2,0,0,1,.033,2.929c1.345.558,2.945,1.468,2.518,2.855-.18-.008-.263,0-.345,0,.263-.828-.32-1.444-1.87-2.141-1.608-.706-2.953-.706-3.142,1.025a2.87,2.87,0,0,0-1.756,2.239,18.108,18.108,0,0,0-.361,3.273,12.846,12.846,0,0,1-.558,2.379C20.795,1.009,17.136,1.829,14.052-.279Zm21.115-.943C35.093.156,31.787.41,29.982,2.592a5.478,5.478,0,0,1-3.577,2.092A2.683,2.683,0,0,1,23.641,3.1a4.55,4.55,0,0,1,.09-2.978,20.331,20.331,0,0,0,.812-3.33,18.46,18.46,0,0,1,.345-3.175,2.479,2.479,0,0,1,1.124-1.731c.025-.016.057-.025.082-.041a2.515,2.515,0,0,0,1.542,2.42c1.034.271,2.518-.615,3.15-1.337a2.322,2.322,0,0,1,1.854.418c.812.7.582,2.486,1.4,3.412C34.912-2.289,35.191-1.641,35.167-1.222ZM14.216-24.552c.164.156.386.369.656.582a3.628,3.628,0,0,0,2.239.87,5.815,5.815,0,0,0,2.609-.886,7.3,7.3,0,0,0,1.214-.853c.32-.279.484-.517.254-.541s-.213.213-.492.418c-.361.263-.8.607-1.14.8a5.59,5.59,0,0,1-2.453.837,3.289,3.289,0,0,1-2.043-.8c-.254-.205-.468-.41-.632-.566-.123-.115-.156-.377-.353-.4C13.962-25.093,13.929-24.782,14.216-24.552Z" transform="translate(-1.04 36.75)" fill="#fff"/>
</svg>
