<?xml version="1.0" standalone="no"?>
<!DOCTYPE svg PUBLIC "-//W3C//DTD SVG 20010904//EN"
 "http://www.w3.org/TR/2001/REC-SVG-20010904/DTD/svg10.dtd">
<svg version="1.0" xmlns="http://www.w3.org/2000/svg"
 width="1016.000000pt" height="1016.000000pt" viewBox="0 0 1016.000000 1016.000000"
 preserveAspectRatio="xMidYMid meet">
<metadata>
Created by potrace 1.14, written by Peter Selinger 2001-2017
</metadata>
<g transform="translate(0.000000,1016.000000) scale(0.100000,-0.100000)"
fill="#000000" stroke="none">
<path d="M5029 10076 c-3 -3 -21 -6 -40 -7 -18 -2 -38 -6 -44 -9 -5 -4 -23
-10 -40 -14 -28 -7 -123 -56 -240 -125 -27 -17 -88 -51 -135 -77 -47 -26 -87
-50 -90 -53 -3 -3 -18 -13 -35 -21 -16 -8 -52 -29 -80 -45 -27 -17 -61 -36
-75 -43 -14 -7 -86 -48 -160 -93 -74 -44 -143 -83 -152 -86 -10 -3 -18 -9 -18
-14 0 -5 -5 -9 -10 -9 -9 0 -199 -106 -297 -167 -13 -7 -26 -13 -29 -12 -4 0
-10 -3 -13 -8 -3 -4 -17 -14 -31 -22 -13 -8 -82 -47 -152 -87 -69 -41 -144
-83 -165 -95 -21 -12 -42 -25 -48 -29 -5 -4 -35 -21 -65 -37 -30 -16 -105 -60
-167 -96 -61 -37 -117 -67 -122 -67 -6 0 -11 -4 -11 -10 0 -5 -4 -10 -9 -10
-5 0 -55 -27 -111 -60 -56 -33 -103 -60 -105 -60 -3 0 -38 -20 -78 -45 -41
-25 -80 -45 -86 -45 -6 0 -11 -4 -11 -10 0 -5 -11 -12 -25 -16 -14 -3 -25 -10
-25 -15 0 -5 -4 -9 -9 -9 -5 0 -44 -20 -85 -45 -42 -25 -78 -45 -80 -45 -2 0
-34 -18 -71 -41 -37 -22 -83 -49 -101 -59 -18 -11 -135 -78 -259 -149 -125
-72 -231 -131 -236 -131 -5 0 -9 -4 -9 -8 0 -4 -26 -21 -58 -37 -31 -16 -59
-31 -62 -35 -3 -4 -18 -13 -35 -22 -32 -16 -40 -20 -214 -122 -62 -36 -115
-66 -117 -66 -7 0 -118 -74 -132 -87 -7 -7 -18 -13 -23 -13 -5 0 -9 -6 -9 -14
0 -8 -9 -18 -20 -21 -11 -3 -20 -11 -20 -16 0 -5 -11 -22 -25 -37 -51 -55
-106 -185 -122 -287 -6 -41 -9 -4474 -3 -4575 2 -30 7 -62 11 -70 4 -8 18 -45
30 -82 13 -38 27 -68 31 -68 5 0 6 -4 3 -10 -3 -5 -2 -10 2 -10 5 0 17 -16 28
-36 47 -88 192 -189 570 -397 22 -12 41 -25 43 -29 2 -5 7 -8 12 -8 5 0 43
-20 84 -45 42 -25 81 -45 86 -45 6 0 10 -4 10 -10 0 -5 4 -10 9 -10 10 0 152
-79 161 -90 3 -3 16 -11 30 -17 14 -7 57 -31 95 -53 39 -22 85 -48 102 -57 18
-9 33 -20 33 -25 0 -4 5 -8 10 -8 6 0 70 -34 143 -77 73 -42 143 -83 157 -90
14 -8 43 -24 65 -37 22 -12 63 -35 90 -51 28 -15 57 -34 66 -41 8 -8 19 -14
22 -14 4 0 52 -27 108 -60 55 -33 105 -60 109 -60 5 0 10 -3 12 -7 2 -5 23
-19 48 -32 103 -54 125 -66 130 -72 6 -8 84 -52 130 -76 19 -9 37 -19 40 -22
3 -4 14 -11 25 -17 11 -6 79 -45 150 -86 72 -41 151 -86 176 -100 85 -48 94
-53 99 -59 3 -3 21 -14 40 -24 19 -9 71 -39 115 -64 205 -121 230 -135 237
-134 3 1 12 -4 18 -12 7 -8 19 -15 26 -15 8 0 14 -4 14 -10 0 -5 5 -10 11 -10
6 0 49 -23 97 -52 48 -28 112 -64 142 -81 30 -16 62 -36 71 -43 8 -8 18 -14
21 -14 4 0 41 -20 82 -45 42 -25 81 -45 85 -45 5 0 11 -3 13 -7 3 -8 39 -30
98 -60 19 -10 37 -20 40 -23 5 -5 16 -11 96 -56 56 -31 141 -65 184 -73 51 -9
242 -7 265 3 11 5 28 11 38 12 25 5 134 58 192 93 28 17 57 34 65 38 8 4 43
24 78 45 34 21 67 38 72 38 6 0 10 5 10 10 0 6 5 10 11 10 6 0 23 9 37 19 15
10 29 18 32 18 3 0 48 24 100 55 52 31 111 65 130 76 19 11 134 77 255 147
121 70 238 137 261 150 22 12 71 41 108 64 38 22 69 41 71 41 3 0 146 82 175
100 8 5 52 30 97 55 46 26 85 51 88 56 4 5 15 9 26 9 10 0 19 4 19 10 0 5 13
16 28 22 23 11 214 119 262 149 34 21 175 101 237 135 38 21 70 40 73 44 3 4
20 13 38 21 17 8 32 17 32 21 0 5 5 8 10 8 6 0 40 18 76 40 36 22 67 40 69 40
1 0 78 44 171 98 93 54 176 101 184 105 8 4 29 16 45 26 28 17 423 246 510
296 22 12 99 57 172 99 73 42 137 76 143 76 5 0 10 4 10 8 0 5 20 19 43 31 62
32 148 101 189 152 38 47 113 179 102 179 -3 0 -2 6 3 13 10 11 19 51 30 122
7 45 6 4511 -1 4574 -7 68 -20 108 -59 190 -37 79 -45 90 -123 166 -74 72 -94
88 -94 78 0 -4 -4 -3 -8 3 -4 6 -32 24 -62 41 -30 17 -83 47 -117 67 -154 89
-191 110 -233 134 -25 13 -49 28 -55 32 -5 4 -30 19 -55 32 -65 36 -171 98
-200 116 -14 9 -27 17 -30 17 -3 0 -33 17 -66 38 -34 20 -67 37 -73 37 -6 0
-11 5 -11 10 0 6 -5 10 -10 10 -6 0 -29 12 -53 27 -23 15 -60 37 -82 49 -22
11 -56 31 -75 43 -19 11 -48 28 -65 36 -16 9 -43 24 -60 35 -16 10 -41 25 -55
33 -60 33 -189 107 -240 137 -27 16 -222 129 -415 240 -71 41 -139 80 -150 87
-11 7 -27 15 -35 19 -16 9 -138 80 -160 95 -8 5 -28 16 -45 24 -16 9 -43 24
-60 34 -86 53 -208 121 -216 121 -5 0 -9 5 -9 10 0 6 -4 10 -9 10 -9 0 -97 49
-161 89 -14 8 -28 16 -32 16 -4 0 -16 7 -25 15 -10 8 -39 26 -63 39 -25 13
-155 88 -290 166 -135 78 -340 196 -456 264 -186 107 -279 152 -349 168 -33 7
-200 15 -206 9z m156 -1070 c65 -7 97 -16 145 -38 25 -12 50 -22 55 -23 6 -2
72 -39 147 -84 76 -45 146 -85 155 -88 19 -7 79 -45 101 -63 6 -6 12 -8 12 -6
0 3 29 -12 65 -34 36 -22 70 -40 75 -40 6 0 10 -5 10 -12 0 -6 3 -8 7 -5 3 4
13 1 22 -7 9 -7 41 -26 71 -42 30 -16 57 -31 60 -34 9 -10 172 -100 181 -100
5 0 9 -3 9 -7 0 -5 10 -13 23 -19 49 -23 112 -59 115 -66 2 -5 10 -8 17 -8 7
0 15 -3 17 -7 2 -5 32 -23 68 -42 36 -18 72 -40 81 -47 9 -8 19 -11 22 -7 4 3
7 1 7 -5 0 -7 5 -12 10 -12 6 0 27 -11 48 -23 20 -13 57 -35 82 -49 25 -14 85
-48 133 -77 49 -28 92 -51 97 -51 5 0 10 -4 12 -9 2 -5 21 -17 43 -28 22 -11
80 -43 128 -72 48 -28 92 -51 97 -51 6 0 10 -4 10 -8 0 -5 18 -17 40 -27 22
-10 40 -22 40 -27 0 -4 7 -8 15 -8 8 0 31 -11 51 -25 20 -14 43 -25 50 -25 8
0 14 -4 14 -10 0 -5 7 -10 15 -10 8 0 15 -5 15 -10 0 -6 3 -9 8 -8 4 1 18 -5
32 -14 26 -16 349 -201 410 -234 19 -11 46 -26 60 -35 51 -32 147 -87 205
-119 33 -18 63 -37 66 -42 3 -5 9 -9 13 -8 8 2 80 -55 105 -83 70 -80 75 -88
132 -208 11 -25 29 -95 35 -137 5 -38 7 -159 4 -177 -1 -5 -1 -14 0 -20 6 -28
4 -175 -2 -175 -4 0 -5 -7 -1 -17 8 -21 8 -77 0 -90 -4 -6 -4 -19 0 -29 8 -21
8 -77 0 -90 -3 -6 -2 -16 2 -23 5 -7 6 -25 2 -39 -4 -14 -4 -47 -1 -74 4 -26
5 -50 2 -52 -6 -7 -5 -206 1 -212 3 -4 2 -16 -3 -28 -4 -13 -4 -29 0 -36 5 -8
6 -18 3 -24 -9 -14 -9 -67 -1 -72 4 -3 3 -15 -1 -27 -5 -14 -5 -30 0 -40 6 -9
6 -17 2 -17 -5 0 -8 -20 -8 -45 0 -25 4 -45 8 -45 5 0 5 -5 1 -12 -11 -17 -11
-161 0 -175 5 -7 5 -13 0 -13 -5 0 -9 -424 -10 -968 -1 -966 -2 -1052 -14
-1052 -4 0 -6 -10 -5 -22 1 -13 -1 -30 -5 -38 -4 -8 -13 -28 -20 -45 -7 -16
-16 -37 -21 -45 -5 -8 -16 -29 -25 -47 -16 -33 -133 -163 -146 -163 -4 0 -17
-8 -28 -17 -20 -18 -185 -116 -225 -134 -11 -5 -33 -18 -50 -29 -16 -11 -37
-23 -45 -27 -8 -3 -17 -9 -20 -12 -3 -3 -21 -14 -40 -25 -84 -45 -143 -78
-235 -133 -24 -15 -102 -60 -170 -98 -27 -15 -62 -37 -77 -47 -16 -11 -28 -16
-28 -13 0 4 -7 -1 -16 -9 -8 -9 -21 -16 -29 -16 -7 0 -15 -3 -17 -7 -4 -10
-306 -183 -318 -183 -6 0 -10 -4 -10 -10 0 -5 -11 -12 -25 -16 -14 -3 -25 -9
-25 -13 0 -3 -15 -13 -32 -20 -18 -8 -48 -25 -68 -38 -19 -14 -51 -32 -70 -41
-19 -9 -37 -19 -40 -22 -3 -4 -32 -22 -65 -40 -95 -52 -150 -84 -155 -90 -3
-3 -16 -11 -30 -17 -14 -7 -43 -23 -65 -36 -101 -57 -171 -98 -185 -107 -8 -5
-37 -21 -65 -36 -27 -14 -57 -32 -65 -39 -8 -7 -25 -16 -37 -19 -13 -4 -23
-12 -23 -17 0 -5 -4 -9 -10 -9 -5 0 -31 -13 -58 -29 -26 -15 -68 -39 -93 -53
-24 -14 -95 -55 -157 -92 -62 -36 -117 -66 -123 -66 -5 0 -9 -4 -9 -8 0 -4
-12 -13 -27 -19 -16 -7 -73 -39 -128 -72 -199 -119 -271 -145 -410 -145 -95
-1 -152 5 -185 18 -8 3 -28 11 -45 17 -16 7 -32 13 -35 14 -48 19 -70 31 -70
37 0 4 -4 8 -9 8 -7 0 -39 18 -119 65 -10 6 -67 38 -127 73 -61 35 -117 67
-125 72 -101 59 -343 198 -370 212 -19 10 -53 30 -75 43 -22 14 -47 28 -55 32
-14 7 -147 83 -180 103 -26 16 -123 72 -170 98 -25 14 -86 49 -137 78 -50 30
-96 54 -101 54 -6 0 -12 4 -14 9 -1 5 -25 20 -53 35 -84 45 -130 71 -135 76
-5 5 -20 13 -89 52 -114 63 -146 83 -149 90 -2 4 -12 8 -23 8 -10 0 -19 5 -19
10 0 6 -5 10 -10 10 -6 0 -27 11 -48 23 -76 49 -150 90 -156 88 -4 -1 -14 5
-22 14 -9 8 -22 15 -30 15 -8 0 -14 4 -14 8 0 5 -24 21 -52 36 -29 15 -66 36
-83 47 -16 10 -37 22 -45 26 -8 4 -52 28 -97 55 -45 26 -86 48 -92 48 -6 0
-11 4 -11 9 0 5 -12 14 -27 20 -33 14 -65 32 -85 49 -8 6 -18 9 -21 5 -4 -3
-7 -1 -7 5 0 7 -4 12 -9 12 -5 0 -49 23 -98 52 -82 48 -233 183 -233 207 0 5
-6 16 -13 23 -22 22 -67 144 -80 216 -9 49 -12 238 -10 687 1 341 3 1120 4
1730 1 861 5 1120 14 1153 7 23 11 42 10 42 -10 0 58 145 86 187 29 42 91 108
131 138 14 12 108 69 173 106 51 29 142 81 164 94 9 6 64 37 121 70 58 33 107
63 108 67 2 4 8 8 13 8 5 0 137 74 294 165 157 91 290 165 295 165 6 0 10 4
10 8 0 5 16 14 35 22 19 8 35 17 35 21 0 4 8 10 18 13 9 3 26 12 37 19 20 12
146 85 213 123 20 11 98 56 172 99 74 43 167 96 205 118 39 22 72 44 73 48 2
5 11 9 21 9 9 0 21 4 26 9 14 13 233 140 370 215 11 6 22 14 25 17 3 3 25 16
50 30 25 13 47 26 50 29 3 3 16 11 30 17 31 15 131 72 145 83 6 4 30 19 55 32
104 58 125 71 131 80 3 5 9 9 13 9 10 -2 69 29 89 47 9 8 17 11 17 7 0 -4 8
-1 18 7 37 33 243 81 302 71 8 -1 33 -4 55 -7z"/>
<path d="M5099 7866 c-2 -2 -31 -6 -64 -10 -33 -3 -81 -12 -106 -20 -54 -17
-193 -85 -197 -97 -2 -5 -7 -9 -12 -9 -5 0 -106 -56 -225 -125 -120 -69 -220
-125 -222 -125 -3 0 -12 -8 -20 -17 -8 -10 -12 -13 -8 -6 3 7 -18 -3 -47 -22
-29 -19 -58 -35 -64 -35 -7 0 -14 -3 -16 -7 -3 -9 -12 -14 -178 -109 -63 -36
-122 -69 -130 -74 -53 -33 -136 -78 -142 -77 -3 1 -18 -9 -32 -22 -14 -14 -26
-20 -26 -15 0 5 -4 5 -8 -1 -8 -11 -36 -30 -67 -45 -11 -5 -42 -23 -70 -40
-27 -17 -62 -36 -77 -42 -16 -7 -28 -16 -28 -20 0 -4 -4 -8 -10 -8 -5 0 -42
-19 -82 -43 -40 -24 -80 -46 -88 -50 -8 -4 -33 -18 -55 -32 -22 -14 -49 -30
-60 -35 -11 -6 -38 -21 -60 -35 -22 -13 -49 -28 -60 -33 -79 -37 -244 -178
-245 -209 0 -7 -4 -13 -9 -13 -10 0 -78 -145 -86 -186 -4 -16 -9 -42 -12 -59
-7 -39 -7 -2360 0 -2403 21 -127 110 -276 221 -369 14 -13 29 -23 32 -23 3 0
18 -8 32 -19 23 -16 387 -227 532 -309 25 -14 62 -36 82 -49 21 -12 40 -23 43
-23 3 0 5 715 5 1589 l0 1589 96 56 c52 31 98 56 101 56 2 0 17 8 31 18 15 11
52 33 82 49 30 17 80 45 110 62 30 18 63 35 73 38 9 3 17 9 17 14 0 5 5 9 11
9 6 0 24 9 40 21 16 11 29 17 29 12 0 -4 4 -3 8 2 4 6 86 55 182 110 96 54
187 107 203 118 15 10 27 15 27 12 0 -4 7 1 16 9 41 41 41 43 40 -585 -1 -330
2 -606 6 -612 4 -7 27 -5 75 6 37 9 77 18 88 20 11 2 38 9 60 15 22 6 51 13
65 16 14 2 112 25 219 50 107 26 205 48 218 50 12 3 26 7 30 9 5 3 24 8 43 11
19 3 53 11 75 16 57 15 76 20 115 28 l35 8 1 901 1 901 -26 13 c-14 7 -39 22
-56 34 -32 21 -113 67 -155 88 -14 6 -27 14 -30 17 -18 19 -133 51 -197 55
-28 1 -55 5 -61 9 -5 3 -11 4 -13 2z"/>
<path d="M6706 7007 c-3 -12 -4 -726 -3 -1587 2 -861 1 -1571 -1 -1578 -4 -11
-78 -55 -407 -242 -160 -91 -238 -136 -253 -145 -9 -6 -53 -30 -97 -55 -44
-25 -88 -49 -97 -55 -111 -65 -202 -114 -206 -110 -3 3 -5 358 -5 790 l0 785
-26 -5 c-14 -3 -80 -18 -146 -35 -66 -17 -129 -33 -140 -35 -11 -3 -85 -21
-164 -41 -80 -20 -152 -38 -160 -39 -9 -2 -16 -4 -16 -5 0 -1 -8 -3 -17 -5 -9
-2 -72 -17 -140 -35 -135 -35 -127 -34 -180 -45 -32 -6 -38 -11 -39 -34 -1
-34 -1 -2071 0 -2094 1 -10 5 -16 10 -13 5 4 11 3 13 -2 7 -18 260 -152 287
-152 10 0 21 -3 25 -7 20 -20 211 -25 284 -7 31 8 65 16 75 19 26 6 111 49
115 58 2 4 8 7 13 7 5 0 37 17 71 38 35 21 70 41 78 45 8 4 31 17 50 29 19 11
60 34 90 51 30 16 62 36 70 43 8 7 22 14 30 16 8 2 17 6 20 9 3 3 102 61 220
129 118 67 223 129 233 138 9 8 17 12 17 8 0 -4 15 4 33 18 19 14 36 24 39 21
3 -3 11 1 18 10 7 8 16 15 21 15 5 0 33 16 63 35 30 19 58 35 62 35 3 0 25 12
48 28 22 15 55 34 71 42 17 8 32 18 35 21 3 3 19 12 35 21 50 25 100 53 105
58 7 7 43 29 60 37 8 3 95 53 193 110 98 57 182 103 187 103 6 0 10 5 10 10 0
6 5 10 11 10 26 0 140 96 189 159 42 56 86 145 106 217 18 66 19 121 19 1244
0 646 -3 1193 -6 1215 -13 79 -89 255 -111 255 -5 0 -8 5 -8 11 0 15 -119 127
-142 135 -10 3 -18 10 -18 15 0 5 -4 9 -10 9 -5 0 -44 20 -86 45 -41 25 -80
45 -85 45 -5 0 -9 5 -9 10 0 6 -4 10 -8 10 -12 0 -120 61 -184 103 -16 10 -28
16 -28 12 0 -3 -6 -1 -12 5 -7 6 -55 35 -105 65 -88 51 -93 53 -97 32z"/>
</g>
</svg>
