<svg width="1000" height="190" viewBox="0 0 1000 190" fill="none" xmlns="http://www.w3.org/2000/svg">
<g clip-path="url(#clip0_2_43)">
<path d="M0 55.2656H32.81L59.6725 131.995L88.5756 55.2656H108.643L137.026 131.131L163.92 55.2656H196.944L148.289 190H127.048L98.4719 113.356L69.2169 190H48.221L0 55.2656Z" fill="white"/>
<path d="M216.036 0.000488281H249.311V72.3001C255.857 66.622 262.448 62.3658 269.079 59.5218C275.709 56.6876 282.42 55.2656 289.215 55.2656C302.476 55.2656 313.451 59.703 322.735 69.0907C330.509 77.0746 334.399 88.8012 334.399 104.27V190H301.37V134.142C301.37 118.589 300.634 108.058 299.16 102.542C297.687 97.0321 295.17 92.9142 291.609 90.1986C288.049 87.483 283.648 86.1251 278.41 86.1251C271.615 86.1251 265.783 88.3915 260.914 92.9142C256.042 97.442 252.665 103.614 250.784 111.43C249.802 115.464 249.311 124.682 249.311 139.08V190H216.036L216.036 0.000488281Z" fill="white"/>
<path d="M379.883 55.2658C370.436 55.2658 363.123 63.0701 363.123 72.1821V190H396.643V72.179C396.643 63.0683 389.326 55.2658 379.883 55.2658Z" fill="white"/>
<path d="M464.672 55.2658V0.000488281H431.152V190H464.672V84.5953H484.562V55.2658L464.672 55.2658Z" fill="white"/>
<path fill-rule="evenodd" clip-rule="evenodd" d="M632.734 131.937H530.122C531.601 141.048 535.565 148.289 541.995 153.669C548.435 159.044 556.639 161.734 566.627 161.734C578.561 161.734 588.815 157.537 597.399 149.132L624.31 161.852C617.598 171.434 609.567 178.515 600.207 183.113C590.847 187.701 579.731 190 566.861 190C546.891 190 530.627 183.659 518.07 170.977C505.511 158.3 499.233 142.419 499.233 123.34C499.233 103.789 505.492 87.555 518.014 74.6374C530.529 61.7246 546.226 55.2658 565.106 55.2658C585.151 55.2658 601.452 61.7246 614.013 74.6374C626.57 87.555 632.851 104.613 632.851 125.813L632.734 131.937ZM600.792 106.616C598.681 99.4737 594.52 93.6604 588.31 89.1849C582.095 84.7095 574.892 82.4718 566.688 82.4718C557.777 82.4718 549.965 84.9874 543.245 90.0093C539.028 93.1516 535.12 98.6869 531.526 106.616L600.792 106.616Z" fill="white"/>
<path d="M379.551 0C385.622 0 390.828 2.17607 395.171 6.51816C399.514 10.8653 401.685 16.13 401.685 22.3122C401.685 28.4142 399.534 33.6137 395.234 37.9156C390.934 42.2226 385.789 44.3736 379.805 44.3736C373.648 44.3736 368.399 42.1775 364.056 37.7953C359.713 33.4031 357.544 28.0782 357.544 21.8107C357.544 15.794 359.693 10.6546 363.993 6.39277C368.295 2.13096 373.478 0 379.551 0Z" fill="#F2D080"/>
<path d="M840.701 0H875.82V190H840.701V0ZM897.296 0H1000V35.6492H966.144V190H930.267V35.6492H897.296V0Z" fill="#F2D080"/>
<path d="M729.596 70.1524L725.971 76.9429C725.524 77.7741 725.224 78.4139 725.092 78.8471C724.955 79.2753 724.887 79.7237 724.887 80.172C724.887 81.3256 725.334 82.3583 726.218 83.2449C727.112 84.1365 728.238 84.5899 729.569 84.5899C730.848 84.5899 731.952 84.1567 732.852 83.3003C733.757 82.4439 734.215 81.381 734.215 80.1468C734.215 78.8723 733.773 77.7892 732.889 76.9278C732.21 76.2679 731.416 75.8549 730.511 75.6987L732.689 71.6385L729.596 70.1524ZM730.69 80.1115C730.69 80.4692 730.574 80.7563 730.348 80.983C729.88 81.4263 729.238 81.4616 728.759 80.978C728.528 80.7462 728.412 80.4641 728.412 80.1115C728.412 79.7589 728.522 79.4768 728.743 79.2501C728.954 79.0335 729.201 78.9277 729.517 78.9277C729.859 78.9277 730.132 79.0335 730.348 79.2551C730.579 79.4819 730.69 79.7539 730.69 80.1115ZM746.793 17.7169L740.938 26.054L740.849 26.185V29.0765H746.593V31.6608H750.118V29.0765H751.286V25.8273H750.118V17.7169H746.793ZM745.147 25.8273L746.593 23.7922V25.8273H745.147ZM670.163 135.947L674.961 126.542H669.769V123.263H679.475L679.423 125.263L673.246 137.383L670.163 135.947ZM730.495 168.611C730.79 168.323 730.932 167.961 730.932 167.497C730.932 167.044 730.8 166.686 730.532 166.414C730.137 166.006 729.648 165.875 729.054 166.157C728.843 166.263 728.628 166.424 728.417 166.641L728.201 166.857L725.345 166.243L727.139 158.339H734.278V161.588H729.88L729.611 162.727C729.664 162.727 729.711 162.727 729.759 162.727C731.1 162.727 732.231 163.17 733.12 164.052C734.009 164.918 734.457 166.046 734.457 167.401C734.457 168.767 733.967 169.93 732.994 170.867C732.016 171.809 730.816 172.283 729.422 172.283C728.186 172.283 727.102 171.94 726.197 171.26C725.292 170.57 724.698 169.628 724.424 168.454L724.277 167.83H727.907L728.059 168.112C728.217 168.424 728.422 168.651 728.675 168.807C729.222 169.15 730.016 169.094 730.495 168.611ZM728.827 100.841C729.732 99.9845 730.19 98.9216 730.19 97.6874C730.19 96.413 729.748 95.3299 728.864 94.4685C728.186 93.8086 727.391 93.3955 726.486 93.2393L728.664 89.1791L725.571 87.693L721.946 94.4836C721.499 95.3148 721.199 95.9546 721.068 96.3878C720.931 96.816 720.862 97.2643 720.862 97.7127C720.862 98.8662 721.31 99.8989 722.193 100.786C723.088 101.677 724.214 102.131 725.545 102.131C726.823 102.131 727.928 101.697 728.827 100.841ZM724.387 97.6521C724.387 97.2995 724.498 97.0174 724.719 96.7907C724.929 96.5741 725.176 96.4683 725.492 96.4683C725.834 96.4683 726.108 96.5741 726.323 96.7958C726.555 97.0224 726.665 97.2945 726.665 97.6521C726.665 98.0098 726.549 98.2969 726.323 98.5236C725.866 98.9669 725.218 99.0022 724.734 98.5186C724.503 98.2869 724.387 98.0048 724.387 97.6521ZM801.364 136.889V134.305H802.532V131.056H801.364V122.945H798.04L792.184 131.283L792.095 131.414V134.305H797.84V136.889H801.364V136.889H801.364ZM796.393 131.056L797.84 129.021V131.056H796.393ZM718.09 101.607C718.816 101.249 719.405 100.715 719.831 100.02C720.258 99.3196 720.473 98.5539 720.473 97.7428C720.473 96.9922 720.289 96.2819 719.921 95.6321C719.647 95.1535 719.295 94.7354 718.858 94.3878C719.158 94.0302 719.379 93.6977 719.521 93.3803C719.726 92.937 719.826 92.4433 719.826 91.9194C719.826 91.189 719.632 90.4989 719.253 89.8692C718.858 89.2244 718.327 88.7256 717.664 88.3831C716.333 87.693 714.381 87.7081 713.061 88.3781C712.377 88.7206 711.835 89.2093 711.456 89.8289C711.072 90.4485 710.883 91.1387 710.883 91.8842C710.883 92.4383 710.998 92.9673 711.225 93.4559C711.377 93.7884 711.577 94.1007 711.835 94.408C711.388 94.7959 711.035 95.2241 710.778 95.6926C710.436 96.3121 710.267 97.0074 710.267 97.7428C710.267 98.5942 710.478 99.375 710.904 100.065C711.335 100.76 711.914 101.284 712.635 101.632C713.334 101.964 714.265 102.13 715.402 102.13C716.475 102.13 717.38 101.954 718.09 101.607ZM715.996 92.7406C715.654 93.0781 715.044 93.0882 714.692 92.7406C714.507 92.5592 714.418 92.3477 714.418 92.0807C714.418 91.8086 714.497 91.6122 714.67 91.4459C714.828 91.2847 715.028 91.2092 715.291 91.2092C715.596 91.2092 715.823 91.2847 716.001 91.451C716.17 91.6021 716.249 91.7986 716.249 92.0655C716.249 92.3577 716.165 92.5743 715.996 92.7406ZM714.229 96.6597C714.539 96.3927 714.923 96.2618 715.391 96.2618C715.844 96.2618 716.207 96.3928 716.501 96.6497C716.785 96.9116 716.922 97.2088 716.922 97.5816C716.922 97.9544 716.796 98.2415 716.528 98.4732C715.986 98.9569 714.77 98.9669 714.207 98.4481C713.923 98.1912 713.792 97.899 713.792 97.5313C713.792 97.1937 713.934 96.9166 714.229 96.6597ZM748.777 171.965V161.618H745.641L747.751 158.339H752.333V171.965H748.777ZM705.006 162.46C704.249 163.18 703.875 164.057 703.875 165.135C703.875 165.885 704.043 166.55 704.375 167.119C704.712 167.694 705.175 168.132 705.79 168.459C706.921 169.069 708.468 169.094 709.62 168.605C710.157 168.374 710.772 167.93 711.445 167.291L711.835 166.923L714.281 169.361L713.902 169.719C712.866 170.691 711.908 171.341 710.977 171.714C710.051 172.091 708.989 172.283 707.81 172.283C705.627 172.283 703.807 171.608 702.407 170.273C701.008 168.943 700.298 167.21 700.298 165.13C700.298 163.785 700.619 162.571 701.26 161.523C701.892 160.475 702.818 159.619 704.007 158.979C706.179 157.805 708.852 157.699 711.198 158.727C712.277 159.195 713.213 159.87 713.987 160.732L714.318 161.105L711.803 163.397L711.435 163.019C710.341 161.911 709.152 161.372 707.805 161.372C706.69 161.372 705.774 161.729 705.006 162.46ZM719.316 172.283C720.594 172.283 721.699 171.85 722.599 170.993C723.503 170.137 723.961 169.074 723.961 167.84C723.961 166.565 723.519 165.482 722.635 164.621C721.957 163.961 721.162 163.548 720.258 163.392L722.436 159.331L719.342 157.845L715.717 164.636C715.27 165.467 714.97 166.107 714.839 166.54C714.702 166.968 714.634 167.417 714.634 167.865C714.634 169.019 715.081 170.051 715.965 170.938C716.859 171.829 717.985 172.283 719.316 172.283ZM718.158 167.805C718.158 167.452 718.269 167.17 718.49 166.943C718.7 166.726 718.947 166.621 719.263 166.621C719.605 166.621 719.879 166.726 720.094 166.948C720.326 167.175 720.436 167.447 720.436 167.805C720.436 168.162 720.321 168.449 720.094 168.676C719.637 169.119 718.99 169.155 718.506 168.671C718.274 168.439 718.158 168.157 718.158 167.805ZM756.252 171.023L761.05 161.618H755.858V158.339H765.564L765.512 160.339L759.335 172.459L756.252 171.023ZM739.56 95.5062C740.017 94.6548 740.307 94.0352 740.438 93.6121C740.575 93.1889 740.643 92.7456 740.643 92.2922C740.643 91.1336 740.196 90.0959 739.312 89.2143C738.418 88.3227 737.292 87.8693 735.956 87.8693C734.683 87.8693 733.578 88.3026 732.678 89.1589C731.774 90.0153 731.316 91.0782 731.316 92.3225C731.316 93.5919 731.758 94.67 732.642 95.5314C733.32 96.1963 734.125 96.6094 735.03 96.7655L732.842 100.831L735.935 102.307L739.56 95.5062ZM737.119 92.3527C737.119 92.7003 737.008 92.9773 736.787 93.2091C736.34 93.6624 735.609 93.6221 735.183 93.199C734.951 92.9723 734.841 92.6953 734.841 92.3477C734.841 91.995 734.956 91.7079 735.188 91.4812C735.425 91.2545 735.682 91.1437 736.003 91.1437C736.298 91.1437 736.54 91.2545 736.771 91.4812C737.008 91.718 737.119 91.995 737.119 92.3527ZM720.242 80.9175C720.536 80.6304 720.678 80.2677 720.678 79.8042C720.678 79.3508 720.547 78.9932 720.279 78.7211C719.884 78.3181 719.4 78.1822 718.8 78.4642C718.59 78.57 718.374 78.7312 718.164 78.9479L717.948 79.1645L715.091 78.5499L716.885 70.6461H724.024V73.8953H719.626L719.358 75.0338C719.41 75.0338 719.458 75.0338 719.505 75.0338C720.847 75.0338 721.978 75.477 722.867 76.3586C723.756 77.2251 724.203 78.3535 724.203 79.7085C724.203 81.0737 723.714 82.2374 722.741 83.1743C721.762 84.1163 720.563 84.5899 719.169 84.5899C717.932 84.5899 716.848 84.2474 715.944 83.5673C715.039 82.8772 714.444 81.9351 714.171 80.7614L714.023 80.1367H717.653L717.806 80.4188C717.964 80.7311 718.169 80.9578 718.421 81.114C718.974 81.4616 719.763 81.4062 720.242 80.9175ZM797.366 112.664C797.366 114.407 797.566 115.722 797.976 116.684C798.392 117.676 798.992 118.427 799.755 118.926C800.523 119.419 801.459 119.671 802.553 119.671C803.658 119.671 804.589 119.419 805.321 118.926C806.052 118.432 806.641 117.666 807.062 116.644C807.478 115.636 807.677 114.296 807.677 112.543C807.677 110.83 807.478 109.465 807.072 108.483C806.657 107.455 806.047 106.679 805.268 106.176C804.484 105.667 803.548 105.41 802.48 105.41C800.828 105.41 799.513 106.06 798.571 107.344C797.761 108.488 797.366 110.231 797.366 112.664ZM800.944 112.714C800.944 111.541 801.028 110.649 801.186 110.065C801.328 109.541 801.522 109.178 801.764 108.987C801.985 108.81 802.243 108.72 802.538 108.72C802.806 108.72 803.206 108.795 803.59 109.41C803.821 109.782 804.1 110.634 804.1 112.573C804.1 114.105 803.905 115.193 803.521 115.802C803.185 116.346 802.816 116.417 802.538 116.417C802.259 116.417 801.848 116.346 801.459 115.747C801.222 115.389 800.944 114.573 800.944 112.714ZM674.283 35.0762L670.658 41.8667C670.211 42.6979 669.911 43.3377 669.779 43.7709C669.643 44.1991 669.574 44.6475 669.574 45.0958C669.574 46.2494 670.021 47.2821 670.905 48.1687C671.8 49.0603 672.925 49.5137 674.256 49.5137C675.535 49.5137 676.64 49.0804 677.539 48.2241C678.444 47.3677 678.902 46.3048 678.902 45.0706C678.902 43.7961 678.46 42.713 677.576 41.8516C676.897 41.1917 676.103 40.7787 675.198 40.6225L677.376 36.5623L674.283 35.0762ZM675.377 45.0354C675.377 45.393 675.261 45.6802 675.035 45.9068C674.572 46.3451 673.93 46.3854 673.446 45.9018C673.215 45.6701 673.099 45.388 673.099 45.0354C673.099 44.6827 673.21 44.4006 673.43 44.174C673.641 43.9573 673.888 43.8515 674.204 43.8515C674.546 43.8515 674.819 43.9573 675.035 44.179C675.266 44.4057 675.377 44.6777 675.377 45.0354ZM675.409 80.9679C675.687 80.7059 675.824 80.3936 675.824 80.0158C675.824 79.6028 675.64 79.2703 675.251 78.9731C674.825 78.6507 674.183 78.4844 673.331 78.4744L672.799 78.4693V75.4267L673.294 75.3914C673.957 75.341 674.293 75.2453 674.456 75.1698C674.656 75.0791 674.814 74.9532 674.925 74.797C675.03 74.6459 675.082 74.4948 675.082 74.3386C675.082 74.1371 675.014 73.991 674.872 73.86C674.783 73.7794 674.614 73.6636 674.256 73.6636C674.009 73.6636 673.804 73.7341 673.604 73.8752C673.409 74.0162 673.273 74.1976 673.194 74.4243L673.078 74.7819H669.664L669.743 74.2026C669.885 73.1599 670.29 72.3085 670.942 71.6688C671.847 70.7771 672.989 70.3288 674.341 70.3288C675.551 70.3288 676.587 70.7066 677.424 71.4522C678.265 72.2027 678.686 73.1196 678.686 74.1674C678.686 74.8273 678.497 75.4368 678.118 75.9859C677.929 76.258 677.697 76.5048 677.418 76.7264C677.881 76.9783 678.265 77.3058 678.581 77.7037C679.102 78.3637 679.365 79.1445 679.365 80.026C679.365 81.2955 678.87 82.3886 677.892 83.2702C676.924 84.1467 675.682 84.59 674.199 84.59C672.778 84.59 671.605 84.1719 670.7 83.3407C669.795 82.5095 669.295 81.3761 669.217 79.9807L669.185 79.4366H672.694L672.762 79.8699C672.846 80.3988 673.031 80.7817 673.304 81.0184C673.83 81.4867 674.846 81.4817 675.409 80.9679ZM705.932 23.4849C706.211 22.9811 706.358 22.5328 706.358 22.155C706.358 21.8124 706.243 21.5353 706.011 21.3187C705.543 20.8754 704.67 20.8401 704.149 21.3943C703.875 21.6865 703.733 22.0995 703.712 22.6234L703.696 23.1222H700.171L700.198 22.5831C700.266 21.1021 700.766 19.9032 701.692 19.0317C702.623 18.1602 703.817 17.7169 705.248 17.7169C706.137 17.7169 706.937 17.8982 707.621 18.2609C708.315 18.6236 708.878 19.1626 709.299 19.8578C709.709 20.5379 709.92 21.2481 709.92 21.9685C709.92 22.7846 709.678 23.6712 709.199 24.6082C708.731 25.5149 707.905 26.5577 706.669 27.7969L706.053 28.4165H710.025V31.6607H699.84V29.7867L704.059 25.661C705.011 24.7442 705.638 24.0088 705.932 23.4849ZM709.083 70.1524L705.459 76.9429C705.012 77.7741 704.712 78.4139 704.58 78.8471C704.443 79.2753 704.375 79.7237 704.375 80.172C704.375 81.3256 704.822 82.3583 705.706 83.2449C706.6 84.1365 707.726 84.5899 709.057 84.5899C710.335 84.5899 711.44 84.1567 712.34 83.3003C713.245 82.4439 713.702 81.381 713.702 80.1468C713.702 78.8723 713.261 77.7892 712.377 76.9278C711.698 76.2679 710.904 75.8549 709.999 75.6987L712.177 71.6385L709.083 70.1524ZM710.178 80.1115C710.178 80.4692 710.062 80.7563 709.836 80.983C709.383 81.4263 708.731 81.4616 708.247 80.978C708.015 80.7462 707.9 80.4641 707.9 80.1115C707.9 79.7589 708.01 79.4768 708.231 79.2501C708.442 79.0335 708.689 78.9277 709.004 78.9277C709.346 78.9277 709.62 79.0335 709.836 79.2551C710.067 79.4819 710.178 79.7539 710.178 80.1115ZM705.059 140.31L701.434 147.1C700.987 147.932 700.687 148.571 700.556 149.005C700.419 149.433 700.35 149.881 700.35 150.329C700.35 151.483 700.798 152.516 701.681 153.402C702.576 154.294 703.702 154.747 705.033 154.747C706.311 154.747 707.416 154.314 708.315 153.458C709.22 152.601 709.678 151.538 709.678 150.304C709.678 149.03 709.236 147.947 708.352 147.085C707.673 146.425 706.879 146.012 705.974 145.856L708.152 141.796L705.059 140.31ZM706.153 150.269C706.153 150.627 706.037 150.914 705.811 151.14C705.359 151.584 704.701 151.619 704.222 151.135C703.991 150.904 703.875 150.622 703.875 150.269C703.875 149.916 703.986 149.634 704.207 149.408C704.417 149.191 704.664 149.085 704.98 149.085C705.322 149.085 705.595 149.191 705.811 149.413C706.043 149.639 706.153 149.911 706.153 150.269ZM669.79 116.684C670.206 117.676 670.805 118.427 671.568 118.926C672.336 119.419 673.273 119.671 674.367 119.671C675.472 119.671 676.403 119.419 677.134 118.926C677.865 118.432 678.455 117.666 678.876 116.644C679.06 116.2 679.196 115.697 679.302 115.122V116.77H685.046V119.354H688.571V116.77H689.739V113.52H688.571V105.41H685.246L679.465 113.641C679.486 113.294 679.491 112.931 679.491 112.543C679.491 110.83 679.291 109.465 678.886 108.483C678.47 107.455 677.86 106.679 677.081 106.176C676.298 105.667 675.361 105.41 674.293 105.41C672.641 105.41 671.326 106.06 670.384 107.344C669.574 108.488 669.18 110.231 669.18 112.664C669.18 114.407 669.38 115.722 669.79 116.684ZM683.6 113.52L685.046 111.485V113.52H683.6ZM672.757 112.714C672.757 111.541 672.841 110.649 672.999 110.065C673.141 109.541 673.336 109.178 673.578 108.987C673.799 108.81 674.056 108.72 674.351 108.72C674.619 108.72 675.019 108.795 675.403 109.41C675.635 109.782 675.914 110.634 675.914 112.573C675.914 114.105 675.719 115.193 675.335 115.802C674.998 116.346 674.63 116.417 674.351 116.417C674.072 116.417 673.662 116.346 673.273 115.747C673.036 115.389 672.757 114.573 672.757 112.714ZM705.059 87.693L701.434 94.4836C700.987 95.3147 700.687 95.9545 700.556 96.3877C700.419 96.8159 700.35 97.2642 700.35 97.7126C700.35 98.8662 700.798 99.8989 701.681 100.785C702.576 101.677 703.702 102.13 705.033 102.13C706.311 102.13 707.416 101.697 708.315 100.841C709.22 99.9845 709.678 98.9216 709.678 97.6874C709.678 96.413 709.236 95.3299 708.352 94.4685C707.673 93.8086 706.879 93.3955 705.974 93.2393L708.152 89.1791L705.059 87.693ZM706.153 97.6521C706.153 98.0098 706.037 98.2969 705.811 98.5236C705.359 98.9669 704.701 99.0022 704.222 98.5186C703.991 98.2869 703.875 98.0048 703.875 97.6521C703.875 97.2995 703.986 97.0174 704.207 96.7907C704.417 96.5741 704.664 96.4683 704.98 96.4683C705.322 96.4683 705.595 96.5741 705.811 96.7958C706.043 97.0224 706.153 97.2945 706.153 97.6521ZM694.905 67.2306L698.53 60.43C698.988 59.5787 699.277 58.959 699.409 58.5359C699.545 58.1127 699.614 57.6694 699.614 57.2161C699.614 56.0575 699.167 55.0197 698.283 54.1382C697.388 53.2466 696.263 52.7932 694.926 52.7932C693.653 52.7932 692.549 53.2264 691.649 54.0828C690.744 54.9391 690.286 56.0021 690.286 57.2463C690.286 58.5157 690.728 59.5938 691.612 60.4552C692.291 61.1201 693.096 61.5332 694.001 61.6894L691.812 65.7546L694.905 67.2306ZM693.811 57.2715C693.811 56.9188 693.927 56.6317 694.158 56.405C694.395 56.1783 694.653 56.0675 694.974 56.0675C695.268 56.0675 695.51 56.1783 695.742 56.405C695.979 56.6418 696.089 56.9189 696.089 57.2765C696.089 57.6241 695.979 57.9012 695.758 58.1329C695.31 58.5812 694.579 58.546 694.153 58.1228C693.922 57.8961 693.811 57.6191 693.811 57.2715ZM757.436 63.4323C757.715 63.1704 757.852 62.8581 757.852 62.4802C757.852 62.0672 757.668 61.7347 757.278 61.4375C756.852 61.1151 756.21 60.9488 755.358 60.9388L754.827 60.9337V57.8911L755.321 57.8558C755.984 57.8054 756.321 57.7098 756.484 57.6342C756.684 57.5435 756.842 57.4176 756.952 57.2614C757.057 57.1103 757.11 56.9592 757.11 56.803C757.11 56.6015 757.042 56.4554 756.9 56.3244C756.81 56.2438 756.642 56.128 756.284 56.128C756.037 56.128 755.832 56.1985 755.632 56.3396C755.437 56.4806 755.3 56.662 755.221 56.8886L755.106 57.2463H751.691L751.77 56.667C751.912 55.6242 752.317 54.7729 752.97 54.1331C753.875 53.2415 755.016 52.7932 756.368 52.7932C757.578 52.7932 758.615 53.171 759.451 53.9165C760.293 54.6671 760.714 55.5839 760.714 56.6317C760.714 57.2916 760.524 57.9012 760.145 58.4503C759.956 58.7223 759.725 58.9692 759.446 59.1908C759.909 59.4427 760.293 59.7701 760.608 60.1681C761.129 60.8331 761.392 61.6089 761.392 62.4904C761.392 63.7599 760.898 64.853 759.919 65.7346C758.951 66.6111 757.71 67.0544 756.226 67.0544C754.806 67.0544 753.633 66.6363 752.728 65.8051C751.823 64.9738 751.323 63.8404 751.244 62.4451L751.213 61.901H754.721L754.79 62.3342C754.874 62.8632 755.058 63.246 755.327 63.4828C755.863 63.9512 756.873 63.9512 757.436 63.4323ZM679.491 45.126C679.491 45.9773 679.701 46.7582 680.128 47.4483C680.559 48.1435 681.138 48.6674 681.858 49.015C682.558 49.3474 683.489 49.5137 684.626 49.5137C685.699 49.5137 686.604 49.3374 687.314 48.9898C688.04 48.6321 688.629 48.0981 689.055 47.403C689.481 46.7028 689.697 45.9371 689.697 45.126C689.697 44.3754 689.513 43.6651 689.145 43.0153C688.871 42.5367 688.519 42.1186 688.082 41.771C688.382 41.4134 688.603 41.0809 688.745 40.7635C688.95 40.3202 689.05 39.8266 689.05 39.3027C689.05 38.5722 688.855 37.8821 688.477 37.2524C688.082 36.6076 687.551 36.1089 686.888 35.7663C685.552 35.0762 683.6 35.0913 682.285 35.7613C681.601 36.1038 681.059 36.5925 680.68 37.2121C680.296 37.8317 680.107 38.5219 680.107 39.2674C680.107 39.8215 680.222 40.3505 680.449 40.8391C680.601 41.1716 680.801 41.4839 681.059 41.7912C680.612 42.1791 680.259 42.6073 680.001 43.0758C679.659 43.6954 679.491 44.3905 679.491 45.126ZM685.22 40.1238C684.873 40.4613 684.268 40.4714 683.915 40.1238C683.731 39.9425 683.642 39.7309 683.642 39.4639C683.642 39.1918 683.721 38.9954 683.894 38.8292C684.052 38.6679 684.252 38.5924 684.515 38.5924C684.82 38.5924 685.046 38.6679 685.225 38.8342C685.394 38.9853 685.473 39.1818 685.473 39.4487C685.473 39.7409 685.388 39.9575 685.22 40.1238ZM684.615 43.645C685.068 43.645 685.431 43.776 685.725 44.0329C686.009 44.2948 686.146 44.592 686.146 44.9648C686.146 45.3376 686.02 45.6247 685.751 45.8565C685.21 46.335 683.994 46.3501 683.431 45.8313C683.147 45.5744 683.016 45.2822 683.016 44.9145C683.016 44.577 683.158 44.2999 683.452 44.043C683.763 43.776 684.147 43.645 684.615 43.645ZM684.541 52.6168L680.917 59.4074C680.47 60.2385 680.17 60.8783 680.038 61.3115C679.901 61.7397 679.833 62.188 679.833 62.6364C679.833 63.79 680.28 64.8227 681.164 65.7093C682.058 66.6009 683.184 67.0543 684.515 67.0543C685.793 67.0543 686.898 66.6211 687.798 65.7647C688.703 64.9083 689.16 63.8454 689.16 62.6112C689.16 61.3368 688.719 60.2537 687.835 59.3923C687.156 58.7324 686.362 58.3193 685.457 58.1631L687.635 54.1029L684.541 52.6168ZM685.636 62.576C685.636 62.9336 685.52 63.2208 685.294 63.4475C684.836 63.8857 684.189 63.9261 683.705 63.4424C683.473 63.2107 683.358 62.9286 683.358 62.576C683.358 62.2233 683.468 61.9412 683.689 61.7146C683.9 61.4979 684.147 61.3922 684.463 61.3922C684.804 61.3922 685.078 61.498 685.294 61.7196C685.525 61.9463 685.636 62.2183 685.636 62.576ZM695.673 111.178C695.952 110.674 696.1 110.226 696.1 109.848C696.1 109.505 695.984 109.228 695.752 109.012C695.284 108.568 694.411 108.533 693.89 109.087C693.616 109.379 693.474 109.793 693.453 110.316L693.438 110.815H689.913L689.939 110.276C690.008 108.795 690.507 107.596 691.433 106.725C692.364 105.853 693.559 105.41 694.99 105.41C695.879 105.41 696.678 105.591 697.362 105.954C698.057 106.317 698.62 106.856 699.04 107.551C699.451 108.231 699.661 108.941 699.661 109.662C699.661 110.478 699.419 111.364 698.941 112.301C698.472 113.208 697.646 114.251 696.41 115.49L695.795 116.11H699.766V119.354H689.581V117.48L693.801 113.354C694.753 112.437 695.379 111.702 695.673 111.178ZM694.8 35.0762L691.175 41.8667C690.728 42.6979 690.428 43.3377 690.297 43.7709C690.16 44.1991 690.092 44.6475 690.092 45.0958C690.092 46.2494 690.539 47.2821 691.423 48.1687C692.317 49.0603 693.443 49.5137 694.774 49.5137C696.052 49.5137 697.157 49.0804 698.057 48.2241C698.962 47.3677 699.419 46.3048 699.419 45.0706C699.419 43.7961 698.977 42.713 698.093 41.8516C697.415 41.1917 696.62 40.7787 695.716 40.6225L697.894 36.5623L694.8 35.0762ZM695.894 45.0354C695.894 45.393 695.779 45.6802 695.552 45.9068C695.095 46.3451 694.448 46.3854 693.964 45.9018C693.732 45.6701 693.616 45.388 693.616 45.0354C693.616 44.6827 693.727 44.4006 693.948 44.174C694.158 43.9573 694.406 43.8515 694.721 43.8515C695.063 43.8515 695.337 43.9573 695.552 44.179C695.784 44.4057 695.894 44.6777 695.894 45.0354ZM680.422 100.871L685.22 91.4661H680.028V88.1867H689.734L689.681 90.1866L683.505 102.307L680.422 100.871ZM690.039 77.4366C690.039 76.0916 690.36 74.8776 691.002 73.8298C691.633 72.782 692.559 71.9256 693.748 71.2858C695.915 70.1121 698.598 70.0063 700.94 71.034C702.018 71.5024 702.955 72.1774 703.728 73.0389L704.059 73.4117L701.545 75.7038L701.176 75.3259C700.082 74.2177 698.893 73.6787 697.546 73.6787C696.431 73.6787 695.516 74.0363 694.748 74.7668C693.99 75.4871 693.616 76.3637 693.616 77.4417C693.616 78.1923 693.785 78.8572 694.116 79.4265C694.453 80.0008 694.916 80.439 695.531 80.7665C696.662 81.376 698.209 81.3962 699.361 80.9126C699.898 80.6808 700.513 80.2375 701.187 79.5978L701.576 79.23L704.022 81.6682L703.644 82.0259C702.607 82.9981 701.65 83.6479 700.718 84.0207C699.793 84.3985 698.73 84.59 697.551 84.59C695.368 84.59 693.548 83.915 692.149 82.58C690.749 81.25 690.039 79.5171 690.039 77.4366ZM705.564 119.354H709.089V116.77H710.257V113.52H709.089V105.41H705.764L699.908 113.747L699.819 113.878V116.77H705.564V119.354ZM704.117 113.52L705.564 111.485V113.52H704.117ZM681.164 83.2449C682.058 84.1365 683.184 84.5899 684.515 84.5899C685.794 84.5899 686.898 84.1567 687.798 83.3003C688.703 82.4439 689.16 81.381 689.16 80.1468C689.16 78.8723 688.719 77.7892 687.835 76.9278C687.156 76.2679 686.362 75.8549 685.457 75.6987L687.635 71.6385L684.541 70.1524L680.917 76.943C680.47 77.7742 680.17 78.4139 680.038 78.8472C679.901 79.2753 679.833 79.7237 679.833 80.172C679.833 81.3256 680.28 82.3582 681.164 83.2449ZM683.358 80.1115C683.358 79.7589 683.468 79.4768 683.689 79.2501C683.9 79.0335 684.147 78.9277 684.463 78.9277C684.804 78.9277 685.078 79.0335 685.294 79.2551C685.525 79.4818 685.636 79.7539 685.636 80.1115C685.636 80.4692 685.52 80.7563 685.294 80.983C684.836 81.4263 684.189 81.4616 683.705 80.978C683.473 80.7463 683.358 80.4641 683.358 80.1115ZM702.376 136.708C703.075 137.04 704.007 137.207 705.143 137.207C706.216 137.207 707.121 137.03 707.831 136.683C708.557 136.325 709.147 135.791 709.573 135.096C709.999 134.396 710.215 133.63 710.215 132.819C710.215 132.068 710.03 131.358 709.662 130.708C709.389 130.23 709.036 129.812 708.599 129.464C708.899 129.106 709.12 128.774 709.262 128.456C709.467 128.013 709.567 127.52 709.567 126.996C709.567 126.265 709.373 125.575 708.994 124.945C708.599 124.301 708.068 123.802 707.405 123.459C706.074 122.769 704.117 122.784 702.802 123.454C702.118 123.797 701.576 124.285 701.197 124.905C700.813 125.525 700.624 126.215 700.624 126.96C700.624 127.514 700.74 128.043 700.966 128.532C701.118 128.865 701.318 129.177 701.576 129.484C701.129 129.872 700.776 130.3 700.519 130.769C700.177 131.388 700.008 132.084 700.008 132.819C700.008 133.67 700.219 134.451 700.645 135.141C701.076 135.836 701.655 136.36 702.376 136.708ZM705.737 127.817C705.39 128.154 704.785 128.164 704.433 127.817C704.249 127.635 704.159 127.424 704.159 127.157C704.159 126.885 704.238 126.688 704.412 126.522C704.57 126.361 704.769 126.285 705.033 126.285C705.338 126.285 705.564 126.361 705.743 126.527C705.911 126.678 705.99 126.875 705.99 127.142C705.99 127.434 705.906 127.651 705.737 127.817ZM705.132 131.338C705.585 131.338 705.948 131.469 706.243 131.726C706.527 131.988 706.663 132.285 706.663 132.658C706.663 133.031 706.537 133.318 706.269 133.549C705.732 134.028 704.512 134.043 703.949 133.524C703.665 133.267 703.533 132.975 703.533 132.607C703.533 132.27 703.675 131.993 703.97 131.736C704.28 131.469 704.664 131.338 705.132 131.338ZM692.086 154.002C692.854 154.495 693.79 154.747 694.884 154.747C695.989 154.747 696.92 154.495 697.652 154.002C698.383 153.508 698.972 152.742 699.393 151.72C699.809 150.712 700.008 149.372 700.008 147.619C700.008 145.906 699.808 144.541 699.403 143.559C698.988 142.531 698.378 141.756 697.599 141.252C696.815 140.743 695.879 140.486 694.811 140.486C693.159 140.486 691.844 141.136 690.902 142.421C690.092 143.564 689.697 145.307 689.697 147.74C689.697 149.483 689.897 150.798 690.307 151.76C690.723 152.752 691.323 153.503 692.086 154.002ZM693.274 147.791C693.274 146.617 693.359 145.725 693.516 145.141C693.659 144.617 693.853 144.254 694.095 144.063C694.316 143.886 694.574 143.796 694.869 143.796C695.137 143.796 695.537 143.871 695.921 144.486C696.152 144.859 696.431 145.71 696.431 147.649C696.431 149.181 696.236 150.269 695.852 150.878C695.516 151.423 695.147 151.493 694.869 151.493C694.59 151.493 694.179 151.423 693.79 150.823C693.553 150.465 693.274 149.649 693.274 147.791ZM669.79 64.0671C670.206 65.0594 670.805 65.8101 671.568 66.3088C672.336 66.8024 673.273 67.0543 674.367 67.0543C675.472 67.0543 676.403 66.8024 677.134 66.3088C677.865 65.8151 678.455 65.0494 678.876 64.0268C679.291 63.0193 679.491 61.6793 679.491 59.9262C679.491 58.2135 679.291 56.8483 678.886 55.866C678.47 54.8383 677.86 54.0626 677.081 53.5588C676.298 53.0501 675.361 52.7931 674.293 52.7931C672.641 52.7931 671.326 53.443 670.384 54.7275C669.574 55.8711 669.18 57.614 669.18 60.0471C669.18 61.7901 669.38 63.1049 669.79 64.0671ZM672.757 60.0975C672.757 58.9237 672.841 58.0321 672.999 57.4477C673.141 56.9238 673.336 56.5612 673.578 56.3697C673.799 56.1934 674.056 56.1027 674.351 56.1027C674.619 56.1027 675.019 56.1783 675.403 56.7929C675.635 57.1656 675.914 58.017 675.914 59.9564C675.914 61.4878 675.719 62.5759 675.335 63.1855C674.998 63.7295 674.63 63.8 674.351 63.8C674.072 63.8 673.662 63.7295 673.273 63.13C673.036 62.7724 672.757 61.9563 672.757 60.0975ZM669.79 99.1433C670.206 100.136 670.805 100.886 671.568 101.385C672.336 101.879 673.273 102.13 674.367 102.13C675.472 102.13 676.403 101.879 677.134 101.385C677.865 100.891 678.455 100.126 678.876 99.103C679.291 98.0955 679.491 96.7555 679.491 95.0024C679.491 93.2897 679.291 91.9245 678.886 90.9422C678.47 89.9145 677.86 89.1388 677.081 88.635C676.298 88.1263 675.361 87.8693 674.293 87.8693C672.641 87.8693 671.326 88.5192 670.384 89.8037C669.574 90.9473 669.18 92.6902 669.18 95.1233C669.18 96.8663 669.38 98.1811 669.79 99.1433ZM672.757 95.1737C672.757 93.9999 672.841 93.1083 672.999 92.5239C673.141 92 673.336 91.6374 673.578 91.4459C673.799 91.2696 674.056 91.1789 674.351 91.1789C674.619 91.1789 675.019 91.2545 675.403 91.8691C675.635 92.2418 675.914 93.0932 675.914 95.0326C675.914 96.564 675.719 97.6521 675.335 98.2617C674.998 98.8057 674.63 98.8762 674.351 98.8762C674.072 98.8762 673.662 98.8057 673.273 98.2062C673.036 97.8486 672.757 97.0325 672.757 95.1737ZM705.164 49.69L708.789 42.8894C709.246 42.038 709.536 41.4184 709.667 40.9953C709.804 40.5721 709.872 40.1288 709.872 39.6755C709.872 38.5168 709.425 37.4791 708.542 36.5976C707.647 35.7059 706.521 35.2525 705.185 35.2525C703.912 35.2525 702.807 35.6858 701.908 36.5421C701.003 37.3986 700.545 38.4614 700.545 39.7057C700.545 40.9751 700.987 42.0532 701.871 42.9146C702.549 43.5795 703.354 43.9926 704.259 44.1488L702.071 48.214L705.164 49.69ZM704.07 39.7308C704.07 39.3782 704.186 39.0911 704.417 38.8644C704.654 38.6377 704.912 38.5269 705.232 38.5269C705.527 38.5269 705.769 38.6377 706.001 38.8644C706.237 39.1011 706.348 39.3782 706.348 39.7359C706.348 40.0835 706.237 40.3606 706.016 40.5923C705.569 41.0457 704.838 41.0104 704.412 40.5822C704.18 40.3555 704.07 40.0784 704.07 39.7308ZM690.681 100.871L695.479 91.4661H690.286V88.1867H699.993L699.94 90.1866L693.764 102.307L690.681 100.871ZM700.545 53.1105H710.251L710.199 55.1103L704.023 67.2306L700.94 65.7949L705.738 56.3899H700.545V53.1105H700.545ZM689.508 154.43H679.323V152.556L683.542 148.43C684.494 147.513 685.12 146.778 685.415 146.254C685.694 145.75 685.841 145.302 685.841 144.924C685.841 144.582 685.725 144.304 685.494 144.088C685.025 143.65 684.152 143.609 683.631 144.163C683.358 144.456 683.216 144.869 683.195 145.393L683.179 145.891H679.654L679.68 145.352C679.749 143.871 680.249 142.672 681.174 141.801C682.106 140.929 683.3 140.486 684.731 140.486C685.62 140.486 686.42 140.667 687.103 141.03C687.798 141.393 688.361 141.932 688.782 142.627C689.192 143.307 689.402 144.017 689.402 144.738C689.402 145.554 689.16 146.44 688.682 147.377C688.214 148.284 687.388 149.327 686.151 150.566L685.536 151.186H689.508V154.43H689.508ZM689.681 125.263L683.505 137.383L680.422 135.947L685.22 126.542H680.028V123.263H689.734L689.681 125.263ZM694.8 122.769L691.175 129.56C690.728 130.391 690.428 131.031 690.297 131.464C690.16 131.892 690.092 132.34 690.092 132.789C690.092 133.942 690.539 134.975 691.423 135.862C692.317 136.753 693.443 137.207 694.774 137.207C696.052 137.207 697.157 136.773 698.057 135.917C698.962 135.061 699.419 133.998 699.419 132.764C699.419 131.489 698.977 130.406 698.093 129.545C697.415 128.885 696.62 128.472 695.716 128.315L697.894 124.255L694.8 122.769ZM695.894 132.728C695.894 133.086 695.779 133.373 695.552 133.6C695.095 134.038 694.448 134.078 693.964 133.595C693.732 133.363 693.616 133.081 693.616 132.728C693.616 132.376 693.727 132.094 693.948 131.867C694.158 131.65 694.406 131.545 694.721 131.545C695.063 131.545 695.337 131.65 695.552 131.872C695.784 132.099 695.894 132.371 695.894 132.728ZM679.249 31.6608H669.064V29.7868L673.283 25.6611C674.235 24.7443 674.861 24.0088 675.156 23.4849C675.435 22.9811 675.582 22.5328 675.582 22.155C675.582 21.8124 675.466 21.5353 675.235 21.3187C674.761 20.8754 673.893 20.8401 673.373 21.3943C673.099 21.6865 672.957 22.0995 672.936 22.6234L672.92 23.1222H669.395L669.422 22.5831C669.49 21.1021 669.99 19.9032 670.916 19.0317C671.847 18.1602 673.041 17.7169 674.472 17.7169C675.361 17.7169 676.161 17.8982 676.845 18.2609C677.539 18.6236 678.102 19.1626 678.523 19.8578C678.933 20.5379 679.144 21.2481 679.144 21.9685C679.144 22.7846 678.902 23.6712 678.423 24.6082C677.955 25.5149 677.129 26.5577 675.893 27.7969L675.277 28.4165H679.249V31.6608H679.249ZM685.22 3.77307H680.028V0.493629H689.734L689.681 2.49352L683.505 14.6138L680.422 13.1781L685.22 3.77307ZM674.961 3.77307H669.769V0.493629H679.475L679.423 2.49352L673.246 14.6138L670.163 13.1781L674.961 3.77307ZM680.959 171.034C680.054 170.202 679.554 169.069 679.475 167.674L679.444 167.13H682.953L683.021 167.563C683.105 168.092 683.289 168.475 683.563 168.711C684.094 169.18 685.104 169.175 685.667 168.661C685.946 168.399 686.083 168.087 686.083 167.709C686.083 167.296 685.899 166.963 685.509 166.666C685.083 166.344 684.441 166.177 683.589 166.167L683.058 166.162V163.12L683.552 163.084C684.215 163.034 684.552 162.938 684.715 162.863C684.915 162.772 685.073 162.646 685.183 162.49C685.288 162.339 685.341 162.188 685.341 162.032C685.341 161.83 685.273 161.684 685.131 161.553C685.041 161.472 684.873 161.357 684.515 161.357C684.268 161.357 684.063 161.427 683.863 161.568C683.668 161.709 683.531 161.891 683.452 162.117L683.337 162.475H679.922L680.001 161.896C680.143 160.853 680.548 160.001 681.201 159.362C682.106 158.47 683.247 158.022 684.599 158.022C685.809 158.022 686.846 158.4 687.682 159.145C688.519 159.896 688.945 160.813 688.945 161.86C688.945 162.52 688.755 163.13 688.377 163.679C688.187 163.951 687.956 164.198 687.677 164.419C688.14 164.671 688.524 164.999 688.84 165.397C689.36 166.057 689.623 166.837 689.623 167.719C689.623 168.988 689.129 170.082 688.15 170.963C687.182 171.84 685.941 172.283 684.457 172.283C683.037 172.283 681.864 171.865 680.959 171.034ZM674.256 172.283C675.535 172.283 676.64 171.85 677.539 170.993C678.444 170.137 678.902 169.074 678.902 167.84C678.902 166.565 678.46 165.482 677.576 164.621C676.897 163.961 676.103 163.548 675.198 163.392L677.376 159.331L674.283 157.845L670.658 164.636C670.211 165.467 669.911 166.107 669.779 166.54C669.643 166.968 669.574 167.417 669.574 167.865C669.574 169.019 670.021 170.051 670.905 170.938C671.8 171.829 672.925 172.283 674.256 172.283ZM673.099 167.805C673.099 167.452 673.21 167.17 673.43 166.943C673.641 166.726 673.888 166.621 674.204 166.621C674.546 166.621 674.819 166.726 675.035 166.948C675.266 167.175 675.377 167.447 675.377 167.805C675.377 168.162 675.261 168.449 675.035 168.676C674.572 169.119 673.93 169.155 673.446 168.671C673.215 168.439 673.099 168.157 673.099 167.805ZM669.769 175.88H679.475L679.423 177.88L673.246 190L670.163 188.564L674.961 179.159H669.769V175.88H669.769ZM694.774 14.4375C696.052 14.4375 697.157 14.0042 698.057 13.1479C698.962 12.2915 699.419 11.2286 699.419 9.99439C699.419 8.71992 698.977 7.63684 698.093 6.77544C697.415 6.11553 696.62 5.70246 695.716 5.54628L697.894 1.48605L694.8 0L691.175 6.79057C690.728 7.62175 690.428 8.26154 690.297 8.69474C690.16 9.12294 690.092 9.57126 690.092 10.0196C690.092 11.1732 690.539 12.2059 691.423 13.0925C692.317 13.9841 693.443 14.4375 694.774 14.4375ZM693.616 9.95915C693.616 9.60651 693.727 9.32443 693.948 9.09775C694.158 8.88113 694.406 8.77533 694.721 8.77533C695.063 8.77533 695.337 8.88113 695.552 9.10278C695.784 9.32945 695.894 9.60148 695.894 9.95915C695.894 10.3168 695.779 10.6039 695.552 10.8306C695.095 11.2739 694.448 11.3092 693.964 10.8256C693.732 10.5939 693.616 10.3118 693.616 9.95915ZM670.884 153.725C669.979 153.035 669.385 152.093 669.111 150.919L668.964 150.294H672.594L672.747 150.576C672.904 150.889 673.11 151.115 673.362 151.271C673.909 151.619 674.704 151.564 675.182 151.075C675.477 150.788 675.619 150.425 675.619 149.962C675.619 149.508 675.487 149.151 675.219 148.879C674.825 148.466 674.335 148.345 673.741 148.622C673.53 148.727 673.315 148.889 673.104 149.105L672.889 149.322L670.032 148.707L671.826 140.803H678.965V144.053H674.567L674.299 145.191C674.351 145.191 674.398 145.191 674.446 145.191C675.787 145.191 676.918 145.634 677.808 146.516C678.697 147.382 679.144 148.511 679.144 149.866C679.144 151.231 678.654 152.395 677.681 153.332C676.703 154.274 675.503 154.747 674.109 154.747C672.873 154.747 671.789 154.405 670.884 153.725ZM689.145 20.7898C688.729 19.7621 688.119 18.9864 687.34 18.4826C686.556 17.9739 685.62 17.7169 684.552 17.7169C682.9 17.7169 681.585 18.3668 680.643 19.6513C679.833 20.7949 679.438 22.5378 679.438 24.9709C679.438 26.7139 679.638 28.0287 680.049 28.9909C680.464 29.9833 681.064 30.7339 681.827 31.2326C682.595 31.7263 683.531 31.9781 684.626 31.9781C685.73 31.9781 686.662 31.7263 687.393 31.2326C688.124 30.7389 688.713 29.9732 689.134 28.9506C689.318 28.5073 689.455 28.0036 689.56 27.4293V29.0766H695.305V31.6608H698.83V29.0766H699.998V25.8273H698.83V17.717H695.505L689.723 25.9482C689.744 25.6006 689.75 25.2379 689.75 24.8501C689.75 23.1373 689.55 21.7721 689.145 20.7898ZM686.172 24.8802C686.172 26.4116 685.978 27.4998 685.594 28.1093C685.257 28.6534 684.889 28.7238 684.61 28.7238C684.331 28.7238 683.921 28.6533 683.531 28.0539C683.295 27.6962 683.016 26.8801 683.016 25.0213C683.016 23.8475 683.1 22.9559 683.258 22.3715C683.4 21.8476 683.595 21.485 683.837 21.2935C684.058 21.1172 684.315 21.0265 684.61 21.0265C684.878 21.0265 685.278 21.1021 685.662 21.7167C685.894 22.0895 686.172 22.9408 686.172 24.8802ZM693.858 25.8273L695.305 23.7922V25.8273H693.858ZM730.658 28.1496L730.511 27.525H734.141L734.293 27.807C734.451 28.1194 734.657 28.346 734.909 28.5022C735.456 28.8498 736.251 28.7944 736.729 28.3057C737.024 28.0186 737.166 27.6559 737.166 27.1924C737.166 26.739 737.034 26.3814 736.766 26.1094C736.371 25.7013 735.887 25.5703 735.288 25.8525C735.077 25.9582 734.862 26.1195 734.651 26.3361L734.436 26.5527L731.579 25.9381L733.373 18.0343H740.512V21.2835H736.114L735.845 22.422C735.898 22.422 735.945 22.422 735.993 22.422C737.334 22.422 738.465 22.8653 739.354 23.7469C740.243 24.6133 740.691 25.7417 740.691 27.0968C740.691 28.462 740.201 29.6256 739.228 30.5626C738.25 31.5046 737.05 31.9781 735.656 31.9781C734.42 31.9781 733.336 31.6356 732.431 30.9555C731.526 30.2654 730.932 29.3234 730.658 28.1496ZM736.508 3.77307H731.316V0.493629H741.022L740.97 2.49352L734.793 14.6138L731.71 13.1781L736.508 3.77307ZM724.771 9.07256L722.583 13.1378L725.676 14.6138L729.301 7.81317C729.759 6.96184 730.048 6.34221 730.18 5.91908C730.316 5.49594 730.385 5.05261 730.385 4.59925C730.385 3.44064 729.938 2.4029 729.054 1.52135C728.159 0.629687 727.034 0.176337 725.697 0.176337C724.424 0.176337 723.319 0.609567 722.42 1.46593C721.515 2.3223 721.057 3.38522 721.057 4.62947C721.057 5.89891 721.499 6.97697 722.383 7.83837C723.062 8.50331 723.866 8.91638 724.771 9.07256ZM724.582 4.65467C724.582 4.30204 724.698 4.01492 724.929 3.7882C725.166 3.56152 725.424 3.4507 725.745 3.4507C726.039 3.4507 726.281 3.56152 726.513 3.7882C726.749 4.02498 726.86 4.30203 726.86 4.65969C726.86 5.0073 726.749 5.28436 726.528 5.51606C726.081 5.96439 725.35 5.93416 724.924 5.506C724.692 5.27933 724.582 5.00223 724.582 4.65467ZM740.849 8.64435V11.5359H746.593V14.1201H750.118V11.5359H751.286V8.28669H750.118V0.176292H746.793L740.938 8.51337L740.849 8.64435ZM745.147 8.28669L746.593 6.25155V8.28669H745.147ZM715.291 14.4375C716.57 14.4375 717.674 14.0042 718.574 13.1479C719.479 12.2915 719.937 11.2286 719.937 9.99439C719.937 8.71992 719.495 7.63684 718.611 6.77544C717.932 6.11553 717.138 5.70246 716.233 5.54628L718.411 1.48605L715.317 0L711.693 6.79057C711.246 7.62175 710.946 8.26154 710.814 8.69474C710.677 9.12294 710.609 9.57126 710.609 10.0196C710.609 11.1732 711.056 12.2059 711.94 13.0925C712.834 13.9841 713.96 14.4375 715.291 14.4375ZM714.134 9.95915C714.134 9.60651 714.244 9.32443 714.465 9.09775C714.676 8.88113 714.923 8.77533 715.239 8.77533C715.581 8.77533 715.854 8.88113 716.07 9.10278C716.301 9.32945 716.412 9.60148 716.412 9.95915C716.412 10.3168 716.296 10.6039 716.07 10.8306C715.617 11.2739 714.965 11.3092 714.481 10.8256C714.25 10.5939 714.134 10.3118 714.134 9.95915ZM702.376 13.9388C703.075 14.2712 704.007 14.4375 705.143 14.4375C706.216 14.4375 707.121 14.2612 707.831 13.9136C708.557 13.5559 709.147 13.0219 709.573 12.3268C709.999 11.6266 710.215 10.8609 710.215 10.0498C710.215 9.29923 710.03 8.58894 709.662 7.93909C709.389 7.46051 709.036 7.0424 708.599 6.6948C708.899 6.33713 709.12 6.00466 709.262 5.68728C709.467 5.24399 709.567 4.75032 709.567 4.22642C709.567 3.49597 709.373 2.80583 708.994 2.17614C708.599 1.53132 708.068 1.03262 707.405 0.690087C706.074 -4.492e-05 704.117 0.0150473 702.802 0.68506C702.118 1.02763 701.576 1.51623 701.197 2.13586C700.813 2.75549 700.624 3.44562 700.624 4.19117C700.624 4.74529 700.74 5.27426 700.966 5.76286C701.118 6.09533 701.318 6.40764 701.576 6.71496C701.129 7.10284 700.776 7.53105 700.519 7.99953C700.177 8.61916 700.008 9.31432 700.008 10.0498C700.008 10.9011 700.219 11.682 700.645 12.3721C701.076 13.0673 701.655 13.5912 702.376 13.9388ZM705.737 5.04758C705.39 5.39015 704.785 5.39518 704.433 5.04758C704.249 4.86621 704.159 4.65467 704.159 4.38767C704.159 4.11564 704.238 3.91918 704.412 3.75295C704.57 3.59174 704.769 3.51617 705.033 3.51617C705.338 3.51617 705.564 3.59174 705.743 3.75798C705.911 3.90912 705.99 4.10558 705.99 4.37254C705.99 4.66473 705.906 4.88134 705.737 5.04758ZM705.132 8.56878C705.585 8.56878 705.948 8.69976 706.243 8.95666C706.527 9.21863 706.663 9.51581 706.663 9.8886C706.663 10.2614 706.537 10.5485 706.269 10.7803C705.732 11.2588 704.512 11.2739 703.949 10.7551C703.665 10.4982 703.533 10.206 703.533 9.83826C703.533 9.50076 703.675 9.2237 703.97 8.96676C704.28 8.69977 704.664 8.56878 705.132 8.56878ZM719.347 17.7169H716.023L710.167 26.054L710.078 26.185V29.0765H715.823V31.6608H719.347V29.0765H720.515V25.8273H719.347V17.7169V17.7169ZM714.376 25.8273L715.823 23.7922V25.8273H714.376ZM724.771 26.6132L722.583 30.6784L725.676 32.1544L729.301 25.3538C729.759 24.5025 730.048 23.8828 730.18 23.4597C730.316 23.0365 730.385 22.5932 730.385 22.1399C730.385 20.9813 729.938 19.9435 729.054 19.062C728.159 18.1703 727.034 17.717 725.697 17.717C724.424 17.717 723.319 18.1502 722.42 19.0066C721.515 19.8629 721.057 20.9258 721.057 22.1701C721.057 23.4395 721.499 24.5176 722.383 25.379C723.062 26.0439 723.866 26.457 724.771 26.6132ZM724.582 22.1952C724.582 21.8426 724.698 21.5555 724.929 21.3288C725.166 21.1021 725.424 20.9913 725.745 20.9913C726.039 20.9913 726.281 21.1021 726.513 21.3288C726.749 21.5656 726.86 21.8427 726.86 22.2003C726.86 22.5479 726.749 22.825 726.528 23.0567C726.081 23.5101 725.35 23.4748 724.924 23.0466C724.692 22.8199 724.582 22.5428 724.582 22.1952ZM793.947 158.787C793.163 158.279 792.226 158.022 791.158 158.022C789.506 158.022 788.191 158.672 787.249 159.956C786.439 161.1 786.045 162.843 786.045 165.276C786.045 167.019 786.245 168.333 786.655 169.296C787.071 170.288 787.67 171.039 788.433 171.537C789.201 172.031 790.138 172.283 791.232 172.283C792.337 172.283 793.268 172.031 793.999 171.537C794.731 171.044 795.32 170.278 795.741 169.255C796.156 168.248 796.356 166.908 796.356 165.155C796.356 163.442 796.156 162.077 795.751 161.095C795.335 160.067 794.725 159.291 793.947 158.787ZM792.779 165.185C792.779 166.716 792.584 167.804 792.2 168.414C791.863 168.958 791.495 169.029 791.216 169.029C790.937 169.029 790.527 168.958 790.138 168.359C789.901 168.001 789.622 167.185 789.622 165.326C789.622 164.152 789.706 163.261 789.864 162.676C790.006 162.152 790.201 161.79 790.443 161.598C790.664 161.422 790.922 161.331 791.216 161.331C791.485 161.331 791.884 161.407 792.268 162.021C792.5 162.394 792.779 163.246 792.779 165.185ZM777.859 186.262H781.831V189.506H771.646V187.632L775.865 183.506C776.817 182.59 777.443 181.854 777.738 181.33C778.017 180.827 778.164 180.378 778.164 180C778.164 179.658 778.048 179.381 777.817 179.164C777.349 178.721 776.475 178.686 775.954 179.24C775.681 179.532 775.539 179.945 775.518 180.469L775.502 180.968H771.977L772.004 180.429C772.072 178.948 772.572 177.749 773.498 176.877C774.429 176.006 775.623 175.562 777.054 175.562C777.943 175.562 778.743 175.744 779.427 176.106C780.121 176.469 780.684 177.008 781.105 177.703C781.515 178.383 781.726 179.094 781.726 179.814C781.726 180.63 781.484 181.517 781.005 182.454C780.537 183.36 779.711 184.403 778.474 185.642L777.859 186.262ZM781.883 168.721H785.855V171.965H775.67V170.092L779.89 165.966C780.842 165.049 781.468 164.314 781.762 163.79C782.041 163.286 782.189 162.838 782.189 162.46C782.189 162.117 782.073 161.84 781.841 161.623C781.368 161.185 780.5 161.145 779.979 161.699C779.705 161.991 779.563 162.404 779.542 162.928L779.527 163.427H776.002L776.028 162.888C776.096 161.407 776.596 160.208 777.522 159.336C778.453 158.465 779.648 158.022 781.079 158.022C781.968 158.022 782.767 158.203 783.451 158.566C784.146 158.928 784.708 159.467 785.129 160.163C785.54 160.843 785.75 161.553 785.75 162.273C785.75 163.089 785.508 163.976 785.029 164.913C784.561 165.82 783.735 166.862 782.499 168.102L781.883 168.721ZM757.262 180.932L759.44 176.872L756.347 175.386L752.722 182.177C752.275 183.008 751.975 183.647 751.844 184.081C751.707 184.509 751.639 184.957 751.639 185.406C751.639 186.559 752.086 187.592 752.97 188.478C753.864 189.37 754.99 189.823 756.321 189.823C757.599 189.823 758.704 189.39 759.604 188.534C760.508 187.677 760.966 186.615 760.966 185.38C760.966 184.106 760.524 183.023 759.64 182.161C758.962 181.502 758.167 181.088 757.262 180.932ZM757.441 185.345C757.441 185.703 757.326 185.99 757.099 186.217C756.637 186.66 755.995 186.695 755.511 186.212C755.279 185.98 755.163 185.698 755.163 185.345C755.163 184.993 755.274 184.71 755.495 184.484C755.705 184.267 755.953 184.161 756.268 184.161C756.61 184.161 756.884 184.267 757.099 184.489C757.331 184.715 757.441 184.987 757.441 185.345ZM680.028 175.88H689.734L689.681 177.88L683.505 190L680.422 188.564L685.22 179.159H680.028V175.88ZM754.985 23.1222H751.46L751.486 22.5831C751.554 21.1021 752.054 19.9032 752.98 19.0317C753.911 18.1602 755.106 17.7169 756.537 17.7169C757.426 17.7169 758.225 17.8982 758.909 18.2609C759.604 18.6236 760.167 19.1626 760.587 19.8578C760.998 20.5379 761.208 21.2481 761.208 21.9685C761.208 22.7846 760.966 23.6712 760.487 24.6082C760.019 25.5149 759.193 26.5577 757.957 27.7969L757.341 28.4165H761.313V31.6607H751.128V29.7867L755.348 25.661C756.3 24.7442 756.926 24.0087 757.22 23.4848C757.499 22.9811 757.647 22.5327 757.647 22.1549C757.647 21.8123 757.531 21.5352 757.299 21.3186C756.826 20.8753 755.958 20.84 755.437 21.3942C755.164 21.6864 755.021 22.0995 755 22.6234L754.985 23.1222ZM810.887 129.545C810.208 128.885 809.414 128.472 808.509 128.315L810.687 124.255L807.593 122.769L803.968 129.56C803.521 130.391 803.221 131.031 803.09 131.464C802.953 131.892 802.885 132.34 802.885 132.789C802.885 133.942 803.332 134.975 804.216 135.862C805.11 136.753 806.236 137.207 807.567 137.207C808.845 137.207 809.95 136.773 810.85 135.917C811.755 135.061 812.212 133.998 812.212 132.764C812.212 131.489 811.77 130.406 810.887 129.545ZM808.688 132.728C808.688 133.086 808.572 133.373 808.346 133.6C807.893 134.038 807.236 134.078 806.757 133.595C806.525 133.363 806.41 133.081 806.41 132.728C806.41 132.376 806.52 132.094 806.741 131.867C806.951 131.65 807.199 131.545 807.514 131.545C807.856 131.545 808.13 131.65 808.346 131.872C808.577 132.099 808.688 132.371 808.688 132.728ZM793.205 151.186H797.177V154.43H786.992V152.556L791.211 148.43C792.163 147.513 792.789 146.778 793.084 146.254C793.363 145.75 793.51 145.302 793.51 144.924C793.51 144.582 793.394 144.304 793.163 144.088C792.695 143.65 791.821 143.609 791.3 144.163C791.027 144.456 790.885 144.869 790.864 145.393L790.848 145.891H787.323L787.349 145.352C787.418 143.871 787.918 142.672 788.844 141.801C789.775 140.929 790.969 140.486 792.4 140.486C793.289 140.486 794.089 140.667 794.773 141.03C795.467 141.393 796.03 141.932 796.451 142.627C796.861 143.307 797.072 144.017 797.072 144.738C797.072 145.554 796.83 146.44 796.351 147.377C795.883 148.284 795.057 149.327 793.82 150.566L793.205 151.186ZM805.268 141.252C804.484 140.743 803.548 140.486 802.48 140.486C800.828 140.486 799.513 141.136 798.571 142.421C797.761 143.564 797.366 145.307 797.366 147.74C797.366 149.483 797.566 150.798 797.976 151.76C798.392 152.752 798.992 153.503 799.754 154.002C800.523 154.495 801.459 154.747 802.553 154.747C803.658 154.747 804.589 154.495 805.321 154.002C806.052 153.508 806.641 152.742 807.062 151.72C807.478 150.712 807.677 149.372 807.677 147.619C807.677 145.906 807.477 144.541 807.072 143.559C806.657 142.531 806.047 141.756 805.268 141.252ZM804.1 147.649C804.1 149.181 803.905 150.269 803.521 150.878C803.185 151.423 802.816 151.493 802.538 151.493C802.259 151.493 801.848 151.423 801.459 150.823C801.222 150.465 800.944 149.649 800.944 147.791C800.944 146.617 801.028 145.725 801.186 145.141C801.328 144.617 801.522 144.254 801.764 144.063C801.985 143.886 802.243 143.796 802.538 143.796C802.806 143.796 803.206 143.871 803.59 144.486C803.821 144.859 804.1 145.71 804.1 147.649ZM770.131 181.592C771.02 182.459 771.467 183.587 771.467 184.942C771.467 186.307 770.978 187.471 770.004 188.408C769.026 189.35 767.826 189.823 766.432 189.823C765.196 189.823 764.112 189.481 763.207 188.801C762.302 188.111 761.708 187.169 761.434 185.995L761.287 185.37H764.917L765.07 185.652C765.227 185.965 765.433 186.191 765.685 186.348C766.232 186.695 767.027 186.64 767.505 186.151C767.8 185.864 767.942 185.501 767.942 185.038C767.942 184.584 767.811 184.227 767.542 183.955C767.148 183.542 766.664 183.416 766.064 183.698C765.853 183.804 765.638 183.965 765.427 184.181L765.212 184.398L762.355 183.783L764.149 175.88H771.288V179.129H766.89L766.622 180.267C766.674 180.267 766.722 180.267 766.769 180.267C768.11 180.267 769.241 180.711 770.131 181.592ZM695.716 163.392L697.894 159.331L694.8 157.845L691.175 164.636C690.728 165.467 690.428 166.107 690.297 166.54C690.16 166.968 690.092 167.417 690.092 167.865C690.092 169.019 690.539 170.051 691.423 170.938C692.317 171.829 693.443 172.283 694.774 172.283C696.052 172.283 697.157 171.85 698.057 170.993C698.962 170.137 699.419 169.074 699.419 167.84C699.419 166.565 698.977 165.482 698.093 164.621C697.415 163.961 696.62 163.548 695.716 163.392ZM695.894 167.805C695.894 168.162 695.779 168.449 695.552 168.676C695.095 169.119 694.448 169.155 693.964 168.671C693.732 168.439 693.616 168.157 693.616 167.805C693.616 167.452 693.727 167.17 693.948 166.943C694.158 166.726 694.406 166.621 694.721 166.621C695.063 166.621 695.337 166.726 695.552 166.948C695.784 167.175 695.894 167.447 695.894 167.805ZM708.599 182.081C708.899 181.723 709.12 181.391 709.262 181.073C709.467 180.63 709.567 180.136 709.567 179.612C709.567 178.882 709.373 178.192 708.994 177.562C708.599 176.917 708.068 176.419 707.405 176.076C706.074 175.391 704.117 175.396 702.802 176.071C702.118 176.414 701.576 176.902 701.197 177.522C700.813 178.141 700.624 178.832 700.624 179.577C700.624 180.131 700.74 180.66 700.966 181.149C701.118 181.481 701.318 181.794 701.576 182.101C701.129 182.489 700.776 182.917 700.519 183.386C700.177 184.005 700.008 184.7 700.008 185.436C700.008 186.287 700.219 187.068 700.645 187.758C701.076 188.453 701.655 188.977 702.376 189.325C703.075 189.657 704.007 189.823 705.143 189.823C706.216 189.823 707.121 189.647 707.831 189.3C708.557 188.942 709.146 188.408 709.573 187.713C709.999 187.013 710.214 186.247 710.214 185.436C710.214 184.685 710.03 183.975 709.662 183.325C709.389 182.847 709.036 182.428 708.599 182.081ZM705.737 180.434C705.39 180.776 704.785 180.781 704.433 180.434C704.249 180.252 704.159 180.041 704.159 179.774C704.159 179.502 704.238 179.305 704.412 179.139C704.57 178.978 704.769 178.902 705.033 178.902C705.338 178.902 705.564 178.978 705.743 179.144C705.911 179.295 705.99 179.492 705.99 179.759C705.99 180.051 705.906 180.267 705.737 180.434ZM703.97 184.353C704.28 184.086 704.664 183.955 705.132 183.955C705.585 183.955 705.948 184.086 706.243 184.343C706.527 184.605 706.663 184.902 706.663 185.275C706.663 185.647 706.537 185.934 706.269 186.166C705.732 186.64 704.512 186.665 703.949 186.141C703.665 185.884 703.533 185.592 703.533 185.224C703.533 184.887 703.675 184.61 703.97 184.353ZM695.716 180.932L697.894 176.872L694.8 175.386L691.175 182.177C690.728 183.008 690.428 183.647 690.297 184.081C690.16 184.509 690.092 184.957 690.092 185.406C690.092 186.559 690.539 187.592 691.423 188.478C692.317 189.37 693.443 189.823 694.774 189.823C696.052 189.823 697.157 189.39 698.057 188.534C698.962 187.677 699.419 186.615 699.419 185.38C699.419 184.106 698.977 183.023 698.093 182.161C697.415 181.502 696.62 181.088 695.716 180.932ZM695.894 185.345C695.894 185.703 695.779 185.99 695.552 186.217C695.095 186.66 694.448 186.695 693.964 186.212C693.732 185.98 693.616 185.698 693.616 185.345C693.616 184.993 693.727 184.71 693.948 184.484C694.158 184.267 694.406 184.161 694.721 184.161C695.063 184.161 695.337 184.267 695.552 184.489C695.784 184.715 695.894 184.987 695.894 185.345ZM716.233 180.932L718.411 176.872L715.318 175.386L711.693 182.177C711.246 183.008 710.946 183.647 710.814 184.081C710.677 184.509 710.609 184.957 710.609 185.406C710.609 186.559 711.056 187.592 711.94 188.478C712.834 189.37 713.96 189.823 715.291 189.823C716.57 189.823 717.674 189.39 718.574 188.534C719.479 187.677 719.937 186.615 719.937 185.38C719.937 184.106 719.495 183.023 718.611 182.161C717.932 181.502 717.138 181.088 716.233 180.932ZM716.412 185.345C716.412 185.703 716.296 185.99 716.07 186.217C715.617 186.66 714.965 186.695 714.481 186.212C714.25 185.98 714.134 185.698 714.134 185.345C714.134 184.993 714.244 184.71 714.465 184.484C714.676 184.267 714.923 184.161 715.239 184.161C715.581 184.161 715.854 184.267 716.07 184.489C716.301 184.715 716.412 184.987 716.412 185.345ZM740.97 177.88L734.793 190L731.71 188.564L736.508 179.159H731.316V175.88H741.022L740.97 177.88ZM750.118 175.562H746.793L740.938 183.899L740.849 184.03V186.922H746.593V189.506H750.118V186.922H751.286V183.673H750.118V175.562ZM745.147 183.673L746.593 181.638V183.673H745.147ZM725.697 175.562C724.424 175.562 723.319 175.995 722.42 176.852C721.515 177.708 721.057 178.771 721.057 180.015C721.057 181.285 721.499 182.363 722.383 183.224C723.062 183.889 723.867 184.302 724.771 184.458L722.583 188.524L725.676 190L729.301 183.199C729.759 182.348 730.048 181.728 730.18 181.305C730.316 180.882 730.385 180.439 730.385 179.985C730.385 178.827 729.938 177.789 729.054 176.907C728.159 176.016 727.033 175.562 725.697 175.562ZM726.86 180.046C726.86 180.393 726.749 180.67 726.528 180.902C726.081 181.35 725.35 181.315 724.924 180.892C724.692 180.665 724.582 180.388 724.582 180.041C724.582 179.688 724.698 179.401 724.929 179.174C725.166 178.948 725.424 178.837 725.745 178.837C726.039 178.837 726.281 178.948 726.513 179.174C726.749 179.411 726.86 179.688 726.86 180.046ZM788.733 97.9494L788.118 98.569H792.09V101.813H781.904V99.9391L786.124 95.8134C787.076 94.8966 787.702 94.1611 787.996 93.6372C788.275 93.1335 788.423 92.6852 788.423 92.3073C788.423 91.9648 788.307 91.6877 788.075 91.4711C787.607 91.0328 786.734 90.9925 786.213 91.5467C785.94 91.8388 785.797 92.2519 785.777 92.7758L785.761 93.2745H782.236L782.262 92.7355C782.331 91.2545 782.83 90.0555 783.756 89.184C784.687 88.3125 785.882 87.8692 787.313 87.8692C788.202 87.8692 789.001 88.0506 789.685 88.4133C790.38 88.776 790.943 89.315 791.364 90.0102C791.774 90.6903 791.984 91.4005 791.984 92.1209C791.984 92.937 791.742 93.8236 791.264 94.7605C790.795 95.6674 789.969 96.7101 788.733 97.9494ZM776.991 72.2631C776.181 73.4066 775.786 75.1496 775.786 77.5827C775.786 79.3257 775.986 80.6405 776.396 81.6026C776.812 82.595 777.412 83.3456 778.174 83.8443C778.943 84.338 779.879 84.5899 780.973 84.5899C782.078 84.5899 783.009 84.338 783.741 83.8443C784.472 83.3507 785.061 82.585 785.482 81.5624C785.897 80.5549 786.097 79.2149 786.097 77.4618C786.097 75.749 785.897 74.3839 785.492 73.4016C785.077 72.3739 784.466 71.5981 783.688 71.0944C782.904 70.5856 781.968 70.3287 780.9 70.3287C779.248 70.3287 777.932 70.9785 776.991 72.2631ZM782.01 74.3285C782.241 74.7012 782.52 75.5526 782.52 77.492C782.52 79.0234 782.325 80.1116 781.941 80.7211C781.605 81.2651 781.236 81.3356 780.958 81.3356C780.679 81.3356 780.268 81.2651 779.879 80.6657C779.642 80.308 779.363 79.4919 779.363 77.6331C779.363 76.4593 779.448 75.5677 779.605 74.9833C779.748 74.4594 779.942 74.0967 780.184 73.9053C780.405 73.729 780.663 73.6383 780.958 73.6383C781.226 73.6383 781.626 73.7139 782.01 74.3285ZM756.321 14.4375C757.599 14.4375 758.704 14.0042 759.604 13.1479C760.508 12.2915 760.966 11.2286 760.966 9.99439C760.966 8.71992 760.524 7.63684 759.64 6.77544C758.962 6.11553 758.167 5.70246 757.262 5.54628L759.44 1.48605L756.347 0L752.722 6.79057C752.275 7.62175 751.975 8.26154 751.844 8.69474C751.707 9.12294 751.639 9.57126 751.639 10.0196C751.639 11.1732 752.086 12.2059 752.97 13.0925C753.864 13.9841 754.99 14.4375 756.321 14.4375ZM755.163 9.95915C755.163 9.60651 755.274 9.32443 755.495 9.09775C755.705 8.88113 755.953 8.77533 756.268 8.77533C756.61 8.77533 756.884 8.88113 757.099 9.10278C757.331 9.32945 757.441 9.60148 757.441 9.95915C757.441 10.3168 757.326 10.6039 757.099 10.8306C756.636 11.2739 755.995 11.3092 755.511 10.8256C755.279 10.5939 755.163 10.3118 755.163 9.95915ZM766.606 87.693L762.981 94.4836C762.534 95.3147 762.234 95.9545 762.102 96.3877C761.966 96.8159 761.897 97.2642 761.897 97.7126C761.897 98.8662 762.344 99.8989 763.228 100.785C764.123 101.677 765.248 102.13 766.579 102.13C767.858 102.13 768.963 101.697 769.862 100.841C770.767 99.9845 771.225 98.9216 771.225 97.6874C771.225 96.413 770.783 95.3299 769.899 94.4685C769.22 93.8086 768.426 93.3955 767.521 93.2393L769.699 89.1791L766.606 87.693ZM767.7 97.6521C767.7 98.0098 767.584 98.2969 767.358 98.5236C766.9 98.9669 766.253 99.0022 765.769 98.5186C765.538 98.2869 765.422 98.0048 765.422 97.6521C765.422 97.2995 765.533 97.0174 765.754 96.7907C765.964 96.5741 766.211 96.4683 766.527 96.4683C766.869 96.4683 767.142 96.5741 767.358 96.7958C767.59 97.0224 767.7 97.2945 767.7 97.6521ZM787.086 52.6168L783.462 59.4074C783.014 60.2385 782.715 60.8783 782.583 61.3115C782.446 61.7397 782.378 62.188 782.378 62.6364C782.378 63.79 782.825 64.8227 783.709 65.7093C784.603 66.6009 785.729 67.0543 787.06 67.0543C788.338 67.0543 789.443 66.6211 790.343 65.7647C791.248 64.9083 791.705 63.8454 791.705 62.6112C791.705 61.3368 791.263 60.2537 790.38 59.3923C789.701 58.7324 788.907 58.3193 788.002 58.1631L790.18 54.1029L787.086 52.6168ZM788.181 62.576C788.181 62.9336 788.065 63.2208 787.839 63.4475C787.386 63.8857 786.734 63.9261 786.25 63.4424C786.018 63.2107 785.903 62.9286 785.903 62.576C785.903 62.2233 786.013 61.9412 786.234 61.7146C786.445 61.4979 786.692 61.3922 787.007 61.3922C787.349 61.3922 787.623 61.498 787.839 61.7196C788.07 61.9463 788.181 62.2183 788.181 62.576ZM772.24 80.4087L771.625 81.0284H775.597V84.2725H765.412V82.3985L769.631 78.2728C770.583 77.356 771.209 76.6205 771.504 76.0966C771.782 75.5929 771.93 75.1445 771.93 74.7667C771.93 74.4241 771.814 74.1471 771.583 73.9305C771.114 73.4872 770.241 73.4519 769.72 74.006C769.447 74.2982 769.305 74.7113 769.284 75.2352L769.268 75.7339H765.743L765.769 75.1949C765.838 73.7138 766.338 72.5149 767.264 71.6435C768.195 70.772 769.389 70.3287 770.82 70.3287C771.709 70.3287 772.509 70.51 773.193 70.8727C773.887 71.2354 774.45 71.7744 774.871 72.4696C775.281 73.1497 775.492 73.86 775.492 74.5803C775.492 75.3964 775.25 76.283 774.771 77.22C774.302 78.1267 773.476 79.1695 772.24 80.4087ZM756.921 109.863C756.921 111.133 757.362 112.211 758.246 113.072C758.925 113.737 759.73 114.15 760.635 114.306L758.446 118.371L761.54 119.847L765.164 113.047C765.622 112.195 765.911 111.576 766.043 111.153C766.18 110.73 766.248 110.286 766.248 109.833C766.248 108.674 765.801 107.637 764.917 106.755C764.023 105.863 762.897 105.41 761.561 105.41C760.288 105.41 759.183 105.843 758.283 106.7C757.378 107.556 756.921 108.619 756.921 109.863ZM760.445 109.888C760.445 109.536 760.561 109.249 760.793 109.022C761.029 108.795 761.287 108.684 761.608 108.684C761.903 108.684 762.145 108.795 762.376 109.022C762.613 109.259 762.723 109.536 762.723 109.893C762.723 110.241 762.613 110.518 762.392 110.75C761.939 111.198 761.213 111.168 760.787 110.74C760.556 110.513 760.445 110.236 760.445 109.888ZM771.519 119.671C770.283 119.671 769.199 119.329 768.295 118.648C767.39 117.958 766.795 117.016 766.522 115.843L766.374 115.218H770.004L770.157 115.5C770.315 115.812 770.52 116.039 770.772 116.195C771.325 116.538 772.109 116.487 772.593 115.999C772.887 115.712 773.029 115.349 773.029 114.885C773.029 114.432 772.898 114.074 772.63 113.802C772.235 113.394 771.751 113.268 771.151 113.545C770.941 113.651 770.725 113.812 770.515 114.029L770.299 114.246L767.442 113.631L769.236 105.727H776.375V108.976H771.977L771.709 110.115C771.762 110.115 771.809 110.115 771.856 110.115C773.198 110.115 774.329 110.558 775.218 111.44C776.107 112.306 776.554 113.435 776.554 114.79C776.554 116.155 776.065 117.319 775.092 118.256C774.113 119.198 772.914 119.671 771.519 119.671ZM779.626 53.5588C778.843 53.0501 777.906 52.7931 776.838 52.7931C775.186 52.7931 773.871 53.443 772.929 54.7275C772.119 55.8711 771.725 57.614 771.725 60.0471C771.725 61.7901 771.925 63.1049 772.335 64.0671C772.751 65.0595 773.35 65.8101 774.113 66.3088C774.881 66.8025 775.818 67.0543 776.912 67.0543C778.017 67.0543 778.948 66.8025 779.679 66.3088C780.41 65.8151 781 65.0494 781.42 64.0268C781.836 63.0193 782.036 61.6793 782.036 59.9263C782.036 58.2135 781.836 56.8484 781.431 55.866C781.015 54.8383 780.405 54.0626 779.626 53.5588ZM778.459 59.9564C778.459 61.4879 778.264 62.576 777.88 63.1855C777.543 63.7296 777.175 63.8001 776.896 63.8001C776.617 63.8001 776.207 63.7295 775.818 63.1301C775.581 62.7724 775.302 61.9563 775.302 60.0975C775.302 58.9237 775.386 58.0321 775.544 57.4477C775.686 56.9238 775.881 56.5612 776.123 56.3697C776.344 56.1934 776.602 56.1027 776.896 56.1027C777.164 56.1027 777.564 56.1783 777.948 56.7929C778.18 57.1657 778.459 58.017 778.459 59.9564ZM769.815 135.917C770.72 135.061 771.177 133.998 771.177 132.764C771.177 131.489 770.736 130.406 769.852 129.545C769.173 128.885 768.379 128.472 767.474 128.315L769.652 124.255L766.558 122.769L762.934 129.56C762.487 130.391 762.187 131.031 762.055 131.464C761.918 131.892 761.85 132.34 761.85 132.789C761.85 133.942 762.297 134.975 763.181 135.862C764.075 136.753 765.201 137.207 766.532 137.207C767.811 137.207 768.915 136.773 769.815 135.917ZM765.375 132.728C765.375 132.376 765.485 132.094 765.706 131.867C765.917 131.65 766.164 131.545 766.48 131.545C766.821 131.545 767.095 131.65 767.311 131.872C767.542 132.099 767.653 132.371 767.653 132.728C767.653 133.086 767.537 133.373 767.311 133.6C766.853 134.038 766.201 134.078 765.722 133.595C765.491 133.363 765.375 133.081 765.375 132.728ZM793.82 115.49L793.205 116.11H797.177V119.354H786.992V117.48L791.211 113.354C792.163 112.437 792.789 111.702 793.084 111.178C793.363 110.674 793.51 110.226 793.51 109.848C793.51 109.505 793.394 109.228 793.163 109.012C792.695 108.568 791.821 108.533 791.3 109.087C791.027 109.379 790.885 109.793 790.864 110.316L790.848 110.815H787.323L787.349 110.276C787.418 108.795 787.918 107.596 788.844 106.725C789.775 105.853 790.969 105.41 792.4 105.41C793.289 105.41 794.089 105.591 794.773 105.954C795.467 106.317 796.03 106.856 796.451 107.551C796.861 108.231 797.072 108.941 797.072 109.662C797.072 110.478 796.83 111.364 796.351 112.301C795.883 113.208 795.057 114.251 793.82 115.49ZM767.274 35.2525L761.419 43.5896L761.329 43.7206V46.6121H767.074V49.1963H770.599V46.6121H771.767V43.3629H770.599V35.2525H767.274ZM765.627 43.3629L767.074 41.3277V43.3629H765.627ZM787.986 45.8413C788.281 45.5542 788.423 45.1915 788.423 44.728C788.423 44.2746 788.291 43.917 788.023 43.6449C787.628 43.2369 787.144 43.106 786.545 43.388C786.334 43.4938 786.118 43.655 785.908 43.8717L785.692 44.0883L782.836 43.4737L784.63 35.5699H791.769V38.819H787.371L787.102 39.9576C787.155 39.9576 787.202 39.9576 787.249 39.9576C788.591 39.9576 789.722 40.4008 790.611 41.2824C791.5 42.1489 791.947 43.2773 791.947 44.6323C791.947 45.9975 791.458 47.1612 790.485 48.0981C789.506 49.0401 788.307 49.5137 786.913 49.5137C785.676 49.5137 784.593 49.1712 783.688 48.4911C782.783 47.801 782.189 46.8589 781.915 45.6852L781.768 45.0605H785.398L785.55 45.3426C785.708 45.6549 785.913 45.8816 786.166 46.0378C786.718 46.3804 787.502 46.33 787.986 45.8413ZM785.982 119.354V116.77H787.15V113.52H785.982V105.41H782.657L776.801 113.747L776.712 113.878V116.77H782.457V119.354H785.982ZM781.01 113.52L782.457 111.485V113.52H781.01ZM776.922 137.383L780.547 130.582C781.005 129.731 781.294 129.111 781.426 128.688C781.562 128.265 781.631 127.822 781.631 127.368C781.631 126.21 781.184 125.172 780.3 124.291C779.405 123.399 778.28 122.945 776.943 122.945C775.67 122.945 774.565 123.379 773.666 124.235C772.761 125.091 772.303 126.154 772.303 127.399C772.303 128.668 772.745 129.746 773.629 130.608C774.308 131.272 775.113 131.686 776.017 131.842L773.829 135.907L776.922 137.383ZM775.828 127.424C775.828 127.071 775.944 126.784 776.175 126.557C776.412 126.331 776.67 126.22 776.991 126.22C777.285 126.22 777.527 126.331 777.759 126.557C777.996 126.794 778.106 127.071 778.106 127.429C778.106 127.776 777.996 128.054 777.775 128.285C777.322 128.734 776.591 128.703 776.17 128.275C775.939 128.048 775.828 127.771 775.828 127.424ZM761.245 76.0966C761.524 75.5929 761.671 75.1445 761.671 74.7667C761.671 74.4241 761.555 74.1471 761.324 73.9305C760.856 73.4872 759.982 73.4519 759.462 74.006C759.188 74.2982 759.046 74.7113 759.025 75.2352L759.009 75.7339H755.484L755.511 75.1949C755.579 73.7138 756.079 72.5149 757.005 71.6435C757.936 70.772 759.13 70.3287 760.561 70.3287C761.45 70.3287 762.25 70.51 762.934 70.8727C763.628 71.2354 764.191 71.7744 764.612 72.4696C765.022 73.1497 765.233 73.86 765.233 74.5803C765.233 75.3964 764.991 76.283 764.512 77.22C764.044 78.1267 763.218 79.1695 761.982 80.4087L761.366 81.0283H765.338V84.2725H755.153V82.3985L759.372 78.2728C760.324 77.356 760.95 76.6205 761.245 76.0966ZM767.442 58.561C767.721 58.0573 767.868 57.6089 767.868 57.2311C767.868 56.8885 767.753 56.6115 767.521 56.3949C767.053 55.9516 766.18 55.9163 765.659 56.4704C765.385 56.7626 765.243 57.1757 765.222 57.6996L765.206 58.1983H761.682L761.708 57.6593C761.776 56.1783 762.276 54.9793 763.202 54.1078C764.133 53.2363 765.328 52.793 766.758 52.793C767.648 52.793 768.447 52.9744 769.131 53.3371C769.826 53.6998 770.388 54.2388 770.809 54.934C771.22 55.614 771.43 56.3243 771.43 57.0447C771.43 57.8608 771.188 58.7474 770.709 59.6843C770.241 60.5911 769.415 61.6338 768.179 62.8731L767.563 63.4927H771.535V66.7368H761.35V64.8629L765.57 60.7372C766.522 59.8204 767.148 59.0849 767.442 58.561ZM761.54 154.924L765.164 148.123C765.622 147.272 765.911 146.652 766.043 146.229C766.18 145.806 766.248 145.362 766.248 144.909C766.248 143.75 765.801 142.713 764.917 141.831C764.023 140.939 762.897 140.486 761.561 140.486C760.288 140.486 759.183 140.919 758.283 141.776C757.378 142.632 756.921 143.695 756.921 144.939C756.921 146.209 757.362 147.287 758.246 148.148C758.925 148.813 759.73 149.226 760.635 149.382L758.446 153.448L761.54 154.924ZM760.445 144.964C760.445 144.612 760.561 144.325 760.793 144.098C761.029 143.871 761.287 143.76 761.608 143.76C761.903 143.76 762.145 143.871 762.376 144.098C762.613 144.335 762.723 144.612 762.723 144.969C762.723 145.317 762.613 145.594 762.392 145.826C761.939 146.279 761.213 146.244 760.787 145.816C760.556 145.589 760.445 145.312 760.445 144.964ZM774.408 88.1867H781.547V91.4359H777.149L776.88 92.5744C776.933 92.5744 776.98 92.5744 777.028 92.5744C778.369 92.5744 779.5 93.0177 780.389 93.8992C781.278 94.7657 781.726 95.8941 781.726 97.2492C781.726 98.6143 781.236 99.778 780.263 100.715C779.284 101.657 778.085 102.13 776.691 102.13C775.455 102.13 774.371 101.788 773.466 101.108C772.561 100.418 771.967 99.4757 771.693 98.302L771.546 97.6774H775.176L775.328 97.9594C775.486 98.2718 775.691 98.4984 775.944 98.6546C776.491 99.0022 777.28 98.9468 777.764 98.4582C778.059 98.171 778.201 97.8083 778.201 97.3449C778.201 96.8915 778.069 96.5338 777.801 96.2618C777.406 95.8537 776.917 95.7227 776.323 96.0049C776.112 96.1107 775.896 96.2719 775.686 96.4885L775.47 96.7051L772.614 96.0905L774.408 88.1867ZM787.802 21.3137H782.609V18.0342H792.316L792.263 20.0341L786.087 32.1544L783.004 30.7187L787.802 21.3137ZM776.886 150.138L776.854 149.594H780.363L780.431 150.027C780.516 150.556 780.7 150.939 780.973 151.176C781.505 151.644 782.509 151.644 783.078 151.125C783.356 150.863 783.493 150.551 783.493 150.173C783.493 149.76 783.309 149.428 782.92 149.13C782.494 148.808 781.852 148.642 781 148.632L780.468 148.627V145.584L780.963 145.549C781.626 145.498 781.962 145.403 782.125 145.327C782.325 145.237 782.483 145.111 782.594 144.954C782.699 144.803 782.751 144.652 782.751 144.496C782.751 144.294 782.683 144.148 782.541 144.017C782.452 143.937 782.283 143.821 781.926 143.821C781.678 143.821 781.473 143.892 781.273 144.033C781.079 144.174 780.942 144.355 780.863 144.582L780.747 144.939H777.333L777.412 144.36C777.554 143.317 777.959 142.466 778.611 141.826C779.516 140.934 780.658 140.486 782.01 140.486C783.22 140.486 784.256 140.864 785.093 141.61C785.929 142.36 786.355 143.277 786.355 144.325C786.355 144.985 786.166 145.594 785.787 146.143C785.598 146.415 785.366 146.662 785.087 146.884C785.55 147.136 785.934 147.463 786.25 147.861C786.771 148.526 787.034 149.302 787.034 150.183C787.034 151.453 786.539 152.546 785.561 153.428C784.593 154.304 783.351 154.747 781.868 154.747C780.447 154.747 779.274 154.329 778.369 153.498C777.464 152.667 776.964 151.533 776.886 150.138ZM792.216 125.263L786.039 137.383L782.957 135.947L787.755 126.542H782.562V123.263H792.268L792.216 125.263ZM777.543 21.3137H772.351V18.0342H782.057L782.004 20.0341L775.828 32.1544L772.745 30.7187L777.543 21.3137ZM795.982 40.6577H792.458L792.484 40.1187C792.552 38.6377 793.052 37.4387 793.978 36.5673C794.909 35.6958 796.104 35.2525 797.535 35.2525C798.424 35.2525 799.223 35.4338 799.907 35.7966C800.602 36.1592 801.164 36.6983 801.585 37.3934C801.996 38.0735 802.206 38.7838 802.206 39.5042C802.206 40.3202 801.964 41.2068 801.485 42.1438C801.017 43.0505 800.191 44.0933 798.955 45.3325L798.339 45.9522H802.311V49.1963H792.126V47.3223L796.346 43.1966C797.298 42.2798 797.924 41.5443 798.219 41.0204C798.497 40.5167 798.645 40.0683 798.645 39.6905C798.645 39.3479 798.529 39.0709 798.297 38.8543C797.824 38.416 796.956 38.3757 796.435 38.9298C796.161 39.222 796.019 39.6351 795.998 40.159L795.982 40.6577ZM767.505 10.7652C767.8 10.478 767.942 10.1153 767.942 9.65186C767.942 9.19851 767.811 8.84081 767.542 8.56878C767.148 8.16073 766.664 8.02975 766.064 8.31188C765.853 8.41767 765.638 8.57888 765.427 8.7955L765.212 9.01212L762.355 8.39756L764.149 0.493719H771.288V3.74293H766.89L766.622 4.88138C766.674 4.88138 766.722 4.88138 766.769 4.88138C768.11 4.88138 769.242 5.32468 770.131 6.20624C771.02 7.07271 771.467 8.2011 771.467 9.55617C771.467 10.9213 770.978 12.085 770.004 13.022C769.026 13.964 767.826 14.4375 766.432 14.4375C765.196 14.4375 764.112 14.095 763.207 13.4149C762.302 12.7248 761.708 11.7827 761.434 10.609L761.287 9.98438H764.917L765.07 10.2665C765.227 10.5788 765.433 10.8055 765.685 10.9616C766.232 11.3092 767.027 11.2538 767.505 10.7652ZM769.405 18.4826C768.621 17.9739 767.684 17.7169 766.616 17.7169C764.964 17.7169 763.649 18.3668 762.707 19.6513C761.897 20.7949 761.503 22.5378 761.503 24.9709C761.503 26.7139 761.703 28.0287 762.113 28.9909C762.529 29.9833 763.128 30.7339 763.891 31.2326C764.659 31.7263 765.596 31.9781 766.69 31.9781C767.795 31.9781 768.726 31.7263 769.457 31.2326C770.189 30.7389 770.778 29.9732 771.199 28.9506C771.614 27.9431 771.814 26.6031 771.814 24.8501C771.814 23.1373 771.614 21.7721 771.209 20.7898C770.793 19.7622 770.183 18.9864 769.405 18.4826ZM768.237 24.8802C768.237 26.4116 768.042 27.4998 767.658 28.1093C767.321 28.6534 766.953 28.7238 766.674 28.7238C766.395 28.7238 765.985 28.6533 765.596 28.0539C765.359 27.6962 765.08 26.8801 765.08 25.0213C765.08 23.8475 765.164 22.9559 765.322 22.3715C765.464 21.8476 765.659 21.485 765.901 21.2935C766.122 21.1172 766.38 21.0265 766.674 21.0265C766.942 21.0265 767.342 21.1021 767.726 21.7167C767.958 22.0895 768.237 22.9408 768.237 24.8802ZM776.801 49.5137C778.08 49.5137 779.185 49.0804 780.084 48.2241C780.989 47.3677 781.447 46.3048 781.447 45.0706C781.447 43.7961 781.005 42.713 780.121 41.8516C779.442 41.1917 778.648 40.7787 777.743 40.6225L779.921 36.5623L776.828 35.0762L773.203 41.8668C772.756 42.698 772.456 43.3377 772.324 43.771C772.188 44.1991 772.119 44.6475 772.119 45.0958C772.119 46.2494 772.566 47.2821 773.45 48.1687C774.345 49.0603 775.47 49.5137 776.801 49.5137ZM775.644 45.0354C775.644 44.6827 775.754 44.4006 775.975 44.174C776.186 43.9573 776.433 43.8515 776.749 43.8515C777.091 43.8515 777.364 43.9573 777.58 44.179C777.811 44.4057 777.922 44.6777 777.922 45.0354C777.922 45.393 777.806 45.6802 777.58 45.9068C777.122 46.3451 776.475 46.3854 775.991 45.9018C775.76 45.6701 775.644 45.388 775.644 45.0354ZM739.828 172.283C741.106 172.283 742.211 171.85 743.111 170.993C744.016 170.137 744.473 169.074 744.473 167.84C744.473 166.565 744.031 165.482 743.148 164.621C742.469 163.961 741.674 163.548 740.77 163.392L742.948 159.331L739.854 157.845L736.23 164.636C735.782 165.467 735.482 166.107 735.351 166.54C735.214 166.968 735.146 167.417 735.146 167.865C735.146 169.019 735.593 170.051 736.477 170.938C737.371 171.829 738.497 172.283 739.828 172.283ZM738.671 167.805C738.671 167.452 738.781 167.17 739.002 166.943C739.212 166.726 739.46 166.621 739.775 166.621C740.117 166.621 740.391 166.726 740.607 166.948C740.838 167.175 740.948 167.447 740.948 167.805C740.948 168.162 740.833 168.449 740.607 168.676C740.154 169.119 739.497 169.155 739.018 168.671C738.786 168.439 738.671 168.157 738.671 167.805ZM737.492 70.646H742.074V84.2725H738.518V73.9254H735.382L737.492 70.646ZM751.796 35.5699H761.503L761.45 37.5698L755.274 49.69L752.191 48.2543L756.989 38.8493H751.796V35.5699ZM776.833 142.803L770.657 154.924L767.574 153.488L772.372 144.083H767.179V140.803H776.886L776.833 142.803ZM745.599 70.646H755.305L755.253 72.6459L749.077 84.7662L745.994 83.3305L750.792 73.9255H745.599V70.646H745.599ZM775.597 171.965H765.412V170.092L769.631 165.966C770.583 165.049 771.209 164.314 771.504 163.79C771.782 163.286 771.93 162.838 771.93 162.46C771.93 162.117 771.814 161.84 771.583 161.623C771.114 161.185 770.241 161.145 769.72 161.699C769.447 161.991 769.305 162.404 769.284 162.928L769.268 163.427H765.743L765.769 162.888C765.838 161.407 766.338 160.208 767.263 159.336C768.195 158.465 769.389 158.022 770.82 158.022C771.709 158.022 772.509 158.203 773.192 158.566C773.887 158.928 774.45 159.467 774.871 160.163C775.281 160.843 775.491 161.553 775.491 162.273C775.491 163.089 775.249 163.976 774.771 164.913C774.303 165.82 773.477 166.862 772.24 168.102L771.625 168.721H775.597V171.965H775.597ZM745.052 102.307L741.969 100.871L746.767 91.4661H741.575V88.1867H751.281L751.228 90.1866L745.052 102.307ZM756.852 101.813H760.377V99.2289H761.545V95.9797H760.377V87.8693H757.052L751.197 96.2064L751.107 96.3373V99.2289H756.852V101.813V101.813ZM755.405 95.9797L756.852 93.9445V95.9797H755.405Z" fill="#F2D080"/>
</g>
<defs>
<clipPath id="clip0_2_43">
<rect width="1000" height="190" fill="white"/>
</clipPath>
</defs>
</svg>
